<mxfile host="Electron" modified="2023-04-26T22:52:39.147Z" agent="Mozilla/5.0 (Macintosh; Intel Mac OS X 10_15_7) AppleWebKit/537.36 (KHTML, like Gecko) draw.io/21.2.1 Chrome/112.0.5615.87 Electron/24.1.2 Safari/537.36" etag="Ri8LLLwZqdlbqFWcmO24" version="21.2.1" type="device" pages="2">
  <diagram name="Metadata &amp; Instructions" id="6YBcXGq9gsxZ-7K_7OL9">
    <mxGraphModel dx="1642" dy="1982" grid="1" gridSize="10" guides="1" tooltips="1" connect="1" arrows="1" fold="1" page="0" pageScale="1" pageWidth="1169" pageHeight="827" math="0" shadow="0">
      <root>
        <object label="" layout="Page" title="DevOps Context Diagram" type="Diagram" status="Proposed" version="1.0.0" classification="IBM Confidential" source-location="" author="Daisy Aye" owner="Architecture" valid.from="" valid.to="" audience.auditor="No" audience.anchor.clients="Yes" audience.public="Yes" approvals.executive.name="Andrew Hately" approvals.executive.status="Pending" approvals.technical.name="Fabio Benedetti" approvals.technical.status="Pending" approvals.architecture.name="Fabio Benedetti" approvals.architecture.status="Pending" approvals.compliance.name="Katie Van Allen" approvals.compliance.status="Pending" approvals.security.name="" approvals.security.status="" approvals.business.name="" approvals.business.status="" process="" audience.internal="Yes" header.version="0.0.4" date-approved="" id="gMTfS0zWgepgTJXKSmxV-0">
          <mxCell />
        </object>
        <mxCell id="b5vNler4YERWNUyklsqf-50" value="Regions" style="" parent="gMTfS0zWgepgTJXKSmxV-0" />
        <mxCell id="6C2P2h2iCZalGHdGZCTm-0" value="&lt;h1&gt;&lt;span&gt;README - INTERNAL&lt;/span&gt;&lt;br&gt;&lt;/h1&gt;&lt;div&gt;&lt;span&gt;This drawio file is a template for governed architectural diagrams within IBM Cloud.&lt;/span&gt;&lt;/div&gt;&lt;div&gt;&lt;span&gt;&lt;br&gt;&lt;/span&gt;&lt;/div&gt;&lt;div&gt;This tab stores metadata in the data fields which are accessed by the Edit menu =&amp;gt; Edit Data.&lt;/div&gt;&lt;div&gt;&lt;br&gt;&lt;/div&gt;&lt;div&gt;The metadata fields are defined within the instructions in the governed-content repository:&amp;nbsp;https://github.ibm.com/ibmcloud/governed-content&lt;/div&gt;&lt;div&gt;&lt;br&gt;&lt;/div&gt;&lt;div&gt;Insert your diagram in a second (and or multiple) tabs within the document.&lt;/div&gt;&lt;div&gt;&lt;br&gt;&lt;/div&gt;&lt;div&gt;The metadata tab must remain first in the order.&lt;/div&gt;" style="text;html=1;strokeColor=none;fillColor=none;spacing=5;spacingTop=-20;whiteSpace=wrap;overflow=hidden;rounded=0;" parent="b5vNler4YERWNUyklsqf-50" vertex="1">
          <mxGeometry x="-320" y="-1170" width="830" height="200" as="geometry" />
        </mxCell>
        <mxCell id="6C2P2h2iCZalGHdGZCTm-1" value="&lt;h1&gt;&lt;font style=&quot;font-size: 36px&quot;&gt;WARNING&lt;/font&gt;&lt;br&gt;DO NOT RELEASE THIS METADATA TAB TO EXTERNAL PARTIES WITHOUT APPROVAL.&lt;/h1&gt;&lt;div&gt;&lt;br&gt;&lt;/div&gt;" style="text;html=1;strokeColor=none;fillColor=none;spacing=5;spacingTop=-20;whiteSpace=wrap;overflow=hidden;rounded=0;" parent="b5vNler4YERWNUyklsqf-50" vertex="1">
          <mxGeometry x="-320" y="-940" width="1060" height="200" as="geometry" />
        </mxCell>
        <mxCell id="vJgvSMlz11n7CNDYZyhQ-0" value="Metadata" style="shape=table;startSize=30;container=1;collapsible=0;childLayout=tableLayout;fontSize=10;whiteSpace=wrap;" vertex="1" parent="b5vNler4YERWNUyklsqf-50">
          <mxGeometry x="-309.9999999999999" y="-840" width="300" height="110" as="geometry" />
        </mxCell>
        <mxCell id="vJgvSMlz11n7CNDYZyhQ-1" value="" style="shape=tableRow;horizontal=0;startSize=0;swimlaneHead=0;swimlaneBody=0;strokeColor=inherit;top=0;left=0;bottom=0;right=0;collapsible=0;dropTarget=0;fillColor=none;points=[[0,0.5],[1,0.5]];portConstraint=eastwest;fontSize=8;" vertex="1" parent="vJgvSMlz11n7CNDYZyhQ-0">
          <mxGeometry y="30" width="300" height="40" as="geometry" />
        </mxCell>
        <mxCell id="vJgvSMlz11n7CNDYZyhQ-2" value="Date Created" style="shape=partialRectangle;html=1;whiteSpace=wrap;connectable=0;strokeColor=inherit;overflow=hidden;fillColor=none;top=0;left=0;bottom=0;right=0;pointerEvents=1;fontSize=8;" vertex="1" parent="vJgvSMlz11n7CNDYZyhQ-1">
          <mxGeometry width="60" height="40" as="geometry">
            <mxRectangle width="60" height="40" as="alternateBounds" />
          </mxGeometry>
        </mxCell>
        <mxCell id="vJgvSMlz11n7CNDYZyhQ-3" value="Date Updated" style="shape=partialRectangle;html=1;whiteSpace=wrap;connectable=0;strokeColor=inherit;overflow=hidden;fillColor=none;top=0;left=0;bottom=0;right=0;pointerEvents=1;fontSize=8;" vertex="1" parent="vJgvSMlz11n7CNDYZyhQ-1">
          <mxGeometry x="60" width="60" height="40" as="geometry">
            <mxRectangle width="60" height="40" as="alternateBounds" />
          </mxGeometry>
        </mxCell>
        <mxCell id="vJgvSMlz11n7CNDYZyhQ-4" value="Diagram Version" style="shape=partialRectangle;html=1;whiteSpace=wrap;connectable=0;strokeColor=inherit;overflow=hidden;fillColor=none;top=0;left=0;bottom=0;right=0;pointerEvents=1;fontSize=8;" vertex="1" parent="vJgvSMlz11n7CNDYZyhQ-1">
          <mxGeometry x="120" width="60" height="40" as="geometry">
            <mxRectangle width="60" height="40" as="alternateBounds" />
          </mxGeometry>
        </mxCell>
        <mxCell id="vJgvSMlz11n7CNDYZyhQ-5" value="File Format" style="shape=partialRectangle;html=1;whiteSpace=wrap;connectable=0;strokeColor=inherit;overflow=hidden;fillColor=none;top=0;left=0;bottom=0;right=0;pointerEvents=1;fontSize=8;" vertex="1" parent="vJgvSMlz11n7CNDYZyhQ-1">
          <mxGeometry x="180" width="60" height="40" as="geometry">
            <mxRectangle width="60" height="40" as="alternateBounds" />
          </mxGeometry>
        </mxCell>
        <mxCell id="vJgvSMlz11n7CNDYZyhQ-6" value="Stencils Source/Version" style="shape=partialRectangle;html=1;whiteSpace=wrap;connectable=0;strokeColor=inherit;overflow=hidden;fillColor=none;top=0;left=0;bottom=0;right=0;pointerEvents=1;fontSize=8;" vertex="1" parent="vJgvSMlz11n7CNDYZyhQ-1">
          <mxGeometry x="240" width="60" height="40" as="geometry">
            <mxRectangle width="60" height="40" as="alternateBounds" />
          </mxGeometry>
        </mxCell>
        <mxCell id="vJgvSMlz11n7CNDYZyhQ-7" style="shape=tableRow;horizontal=0;startSize=0;swimlaneHead=0;swimlaneBody=0;strokeColor=inherit;top=0;left=0;bottom=0;right=0;collapsible=0;dropTarget=0;fillColor=none;points=[[0,0.5],[1,0.5]];portConstraint=eastwest;fontSize=8;" vertex="1" parent="vJgvSMlz11n7CNDYZyhQ-0">
          <mxGeometry y="70" width="300" height="40" as="geometry" />
        </mxCell>
        <mxCell id="vJgvSMlz11n7CNDYZyhQ-8" value="01/24/2023" style="shape=partialRectangle;html=1;whiteSpace=wrap;connectable=0;strokeColor=inherit;overflow=hidden;fillColor=none;top=0;left=0;bottom=0;right=0;pointerEvents=1;fontSize=8;" vertex="1" parent="vJgvSMlz11n7CNDYZyhQ-7">
          <mxGeometry width="60" height="40" as="geometry">
            <mxRectangle width="60" height="40" as="alternateBounds" />
          </mxGeometry>
        </mxCell>
        <mxCell id="vJgvSMlz11n7CNDYZyhQ-9" value="01/25/2023" style="shape=partialRectangle;html=1;whiteSpace=wrap;connectable=0;strokeColor=inherit;overflow=hidden;fillColor=none;top=0;left=0;bottom=0;right=0;pointerEvents=1;fontSize=8;" vertex="1" parent="vJgvSMlz11n7CNDYZyhQ-7">
          <mxGeometry x="60" width="60" height="40" as="geometry">
            <mxRectangle width="60" height="40" as="alternateBounds" />
          </mxGeometry>
        </mxCell>
        <mxCell id="vJgvSMlz11n7CNDYZyhQ-10" value="1.0.0" style="shape=partialRectangle;html=1;whiteSpace=wrap;connectable=0;strokeColor=inherit;overflow=hidden;fillColor=none;top=0;left=0;bottom=0;right=0;pointerEvents=1;fontSize=8;" vertex="1" parent="vJgvSMlz11n7CNDYZyhQ-7">
          <mxGeometry x="120" width="60" height="40" as="geometry">
            <mxRectangle width="60" height="40" as="alternateBounds" />
          </mxGeometry>
        </mxCell>
        <mxCell id="vJgvSMlz11n7CNDYZyhQ-11" value="&lt;a href=&quot;https://github.com/jgraph/drawio-desktop/releases&quot; style=&quot;font-size: 8px;&quot;&gt;Desktop drawio&lt;/a&gt;" style="shape=partialRectangle;html=1;whiteSpace=wrap;connectable=0;strokeColor=inherit;overflow=hidden;fillColor=none;top=0;left=0;bottom=0;right=0;pointerEvents=1;fontSize=8;" vertex="1" parent="vJgvSMlz11n7CNDYZyhQ-7">
          <mxGeometry x="180" width="60" height="40" as="geometry">
            <mxRectangle width="60" height="40" as="alternateBounds" />
          </mxGeometry>
        </mxCell>
        <mxCell id="vJgvSMlz11n7CNDYZyhQ-12" value="&lt;a href=&quot;https://github.ibm.com/ibmcloud/ibm-cloud-stencils#compatible-with-drawio-application&quot;&gt;Static 2.0 Libraries&lt;/a&gt;&amp;nbsp;/ &lt;a href=&quot;https://github.ibm.com/ibmcloud/ibm-cloud-stencils/releases/tag/v1.5.0&quot;&gt;v1.5.0&lt;/a&gt;" style="shape=partialRectangle;html=1;whiteSpace=wrap;connectable=0;strokeColor=inherit;overflow=hidden;fillColor=none;top=0;left=0;bottom=0;right=0;pointerEvents=1;fontSize=8;" vertex="1" parent="vJgvSMlz11n7CNDYZyhQ-7">
          <mxGeometry x="240" width="60" height="40" as="geometry">
            <mxRectangle width="60" height="40" as="alternateBounds" />
          </mxGeometry>
        </mxCell>
        <mxCell id="vJgvSMlz11n7CNDYZyhQ-13" value="&lt;font style=&quot;font-size: 10px;&quot;&gt;Go to&amp;nbsp;&lt;span style=&quot;background-color: initial;&quot;&gt;&lt;a href=&quot;https://github.ibm.com/ibmcloud/ibm-cloud-stencils#tools--conventions&quot;&gt;Tools &amp;amp; Conventions &amp;gt; Diagrams Metadata&lt;/a&gt;&amp;nbsp;for more information&lt;/span&gt;&lt;br&gt;&lt;/font&gt;" style="text;html=1;strokeColor=none;fillColor=none;align=center;verticalAlign=middle;whiteSpace=wrap;rounded=0;fontSize=10;" vertex="1" parent="b5vNler4YERWNUyklsqf-50">
          <mxGeometry x="-309.9999999999999" y="-720" width="240" height="50" as="geometry" />
        </mxCell>
        <mxCell id="gMTfS0zWgepgTJXKSmxV-1" value="Database" parent="gMTfS0zWgepgTJXKSmxV-0" />
        <mxCell id="b5vNler4YERWNUyklsqf-271" value="Gray " style="" parent="gMTfS0zWgepgTJXKSmxV-0" />
      </root>
    </mxGraphModel>
  </diagram>
  <diagram id="COOkrQE1X24qxClXc-up" name="DevOps Context">
    <mxGraphModel dx="9242" dy="7982" grid="1" gridSize="10" guides="1" tooltips="1" connect="1" arrows="1" fold="1" page="1" pageScale="1" pageWidth="2000" pageHeight="1800" math="0" shadow="0">
      <root>
        <mxCell id="0" />
        <mxCell id="1" parent="0" />
        <mxCell id="bQxnhAWywP4pUUYXjwK0-8" value="Regulatory Boundary" style="rounded=0;whiteSpace=wrap;html=1;fontFamily=IBM Plex Sans;fontSource=fonts%2FIBMPlexSans-Regular.woff;fontSize=14;fillColor=default;spacingBottom=-25;spacingTop=0;labelPosition=-100;verticalLabelPosition=top;align=left;verticalAlign=bottom;spacingLeft=47;spacing=0;expand=0;recursiveResize=0;spacingRight=0;container=1;collapsible=0;strokeColor=#FA4D56;strokeWidth=2;" parent="1" vertex="1">
          <mxGeometry x="-6610" y="-7120" width="510" height="1360" as="geometry">
            <mxRectangle width="670" as="alternateBounds" />
          </mxGeometry>
        </mxCell>
        <mxCell id="bQxnhAWywP4pUUYXjwK0-9" value="" style="rounded=0;whiteSpace=wrap;html=1;strokeColor=none;fillColor=#FA4D56;" parent="bQxnhAWywP4pUUYXjwK0-8" vertex="1">
          <mxGeometry width="7" height="37" as="geometry" />
        </mxCell>
        <mxCell id="bQxnhAWywP4pUUYXjwK0-11" value="" style="shape=image;aspect=fixed;image=data:image/svg+xml,PD94bWwgdmVyc2lvbj0iMS4wIiBlbmNvZGluZz0iVVRGLTgiPz4KPHN2ZyB3aWR0aD0iMTZweCIgaGVpZ2h0PSIxOXB4IiB2aWV3Qm94PSIwIDAgMTYgMTkiIHZlcnNpb249IjEuMSIgeG1sbnM9Imh0dHA6Ly93d3cudzMub3JnLzIwMDAvc3ZnIiB4bWxuczp4bGluaz0iaHR0cDovL3d3dy53My5vcmcvMTk5OS94bGluayI+CiAgICA8IS0tIEdlbmVyYXRvcjogU2tldGNoIDUzICg3MjUyMCkgLSBodHRwczovL3NrZXRjaGFwcC5jb20gLS0+CiAgICA8dGl0bGU+RmlsbCAxPC90aXRsZT4KICAgIDxkZXNjPkNyZWF0ZWQgd2l0aCBTa2V0Y2guPC9kZXNjPgogICAgPGcgaWQ9IlBhZ2UtMSIgc3Ryb2tlPSJub25lIiBzdHJva2Utd2lkdGg9IjEiIGZpbGw9Im5vbmUiIGZpbGwtcnVsZT0iZXZlbm9kZCI+CiAgICAgICAgPGcgaWQ9IlJ1bGVzLVNxdWFyZSIgdHJhbnNmb3JtPSJ0cmFuc2xhdGUoLTc4Ljc4NDcyMiwgLTg3LjgxMDQxOCkiIGZpbGw9IiMwMDAwMDAiPgogICAgICAgICAgICA8cGF0aCBkPSJNNzguNzg0NzIyMiw4Ny44MTA0MTc5IEw3OC43ODQ3MjIyLDEwNi40NDU0MTggTDgwLjExNTcyMjIsMTA2LjQ0NTQxOCBMODAuMTE1NzIyMiw5OS43OTA0MTc5IEw5NC43NTc3MjIyLDk5Ljc5MDQxNzkgTDkwLjg5NzcyMjIsOTMuODAwNDE3OSBMOTQuNzU3NzIyMiw4Ny44MTA0MTc5IEw3OC43ODQ3MjIyLDg3LjgxMDQxNzkgWiBNODAuMTE1NzIyMiw4OS4xNDE0MTc5IEw5Mi4zMTU3MjIyLDg5LjE0MTQxNzkgTDg5LjI5OTcyMjIsOTMuODAwNDE3OSBMOTIuMzE1NzIyMiw5OC40NTk0MTc5IEw4MC4xMTU3MjIyLDk4LjQ1OTQxNzkgTDgwLjExNTcyMjIsODkuMTQxNDE3OSBaIiBpZD0iRmlsbC0xIj48L3BhdGg+CiAgICAgICAgPC9nPgogICAgPC9nPgo8L3N2Zz4=;" parent="bQxnhAWywP4pUUYXjwK0-8" vertex="1">
          <mxGeometry x="19" y="7" width="16" height="19" as="geometry" />
        </mxCell>
        <mxCell id="bQxnhAWywP4pUUYXjwK0-48" value="" style="group;fontFamily=IBM Plex Sans;fontSource=fonts%2FIBMPlexSans-Regular.woff;fontSize=14;" parent="bQxnhAWywP4pUUYXjwK0-8" vertex="1" connectable="0">
          <mxGeometry x="264.3" y="220" width="198.40999999999997" height="130" as="geometry" />
        </mxCell>
        <mxCell id="bQxnhAWywP4pUUYXjwK0-49" value="ITSM&#xa;(Service)" style="shape=image;aspect=fixed;image=data:image/svg+xml,PD94bWwgdmVyc2lvbj0iMS4wIiBlbmNvZGluZz0iVVRGLTgiPz4KPHN2ZyB3aWR0aD0iMTQ1NnB4IiBoZWlnaHQ9Ijk1NHB4IiB2aWV3Qm94PSIwIDAgMTQ1NiA5NTQiIHZlcnNpb249IjEuMSIgeG1sbnM9Imh0dHA6Ly93d3cudzMub3JnLzIwMDAvc3ZnIiB4bWxuczp4bGluaz0iaHR0cDovL3d3dy53My5vcmcvMTk5OS94bGluayI+CiAgICA8dGl0bGU+SVRTTSBHcm91cDwvdGl0bGU+CiAgICA8ZyBpZD0iUGFnZS0xIiBzdHJva2U9Im5vbmUiIHN0cm9rZS13aWR0aD0iMSIgZmlsbD0ibm9uZSIgZmlsbC1ydWxlPSJldmVub2RkIj4KICAgICAgICA8ZyBpZD0iSVRTTS1Hcm91cCIgdHJhbnNmb3JtPSJ0cmFuc2xhdGUoMS41MDAwMDAsIDQuMDAwMDAwKSI+CiAgICAgICAgICAgIDxnIGlkPSJNYWdlbnRhLUdyb3VwIj4KICAgICAgICAgICAgICAgIDxwYXRoIGQ9Ik00Ni4zODkxMzYxLDk0NS4zNTYyMTQgQzIyLjY1OTg4MSw5NDUuMzU2MjE0IDMuMjQ1MzgyOTgsOTI1Ljk0MTMzNCAzLjI0NTM4Mjk4LDkwMi4yMTE2OTggTDMuMjQ1MzgyOTgsNDMuMzM2ODEzOSBDMy4yNDUzODI5OCwxOS42MDcxNzcgMjIuNjU5ODgxLDAuMTkyMjk3MjE3IDQ2LjM4OTEzNjEsMC4xOTIyOTcyMTcgTDE0MDYuODI4NzYsMC4xOTIyOTcyMTcgQzE0MzAuNTU4MDIsMC4xOTIyOTcyMTcgMTQ0OS45NzMyOCwxOS42MDcxNzcgMTQ0OS45NzMyOCw0My4zMzY4MTM5IEwxNDQ5Ljk3MzI4LDkwMi4yMTE2OTggQzE0NDkuOTczMjgsOTI1Ljk0MTMzNCAxNDMwLjU1ODAyLDk0NS4zNTYyMTQgMTQwNi44Mjg3Niw5NDUuMzU2MjE0IEw0Ni4zODkxMzYxLDk0NS4zNTYyMTQgWiIgaWQ9IkZpbGwtMSIgZmlsbD0iI0ZGRkZGRiI+PC9wYXRoPgogICAgICAgICAgICAgICAgPHBhdGggZD0iTTE0MDYuODI4NzYsOTQ1LjM1NjIxNCBMNDYuMzg5MTM2MSw5NDUuMzU2MjE0IEMyMi42NTk4ODEsOTQ1LjM1NjIxNCAzLjI0NTM4Mjk4LDkyNS45NDEzMzQgMy4yNDUzODI5OCw5MDIuMjExNjk4IEwzLjI0NTM4Mjk4LDQzLjMzNjgxMzkgQzMuMjQ1MzgyOTgsMTkuNjA3MTc3IDIyLjY1OTg4MSwwLjE5MjI5NzIxNyA0Ni4zODkxMzYxLDAuMTkyMjk3MjE3IEwxNDA2LjgyODc2LDAuMTkyMjk3MjE3IEMxNDMwLjU1ODAyLDAuMTkyMjk3MjE3IDE0NDkuOTczMjgsMTkuNjA3MTc3IDE0NDkuOTczMjgsNDMuMzM2ODEzOSBMMTQ0OS45NzMyOCw5MDIuMjExNjk4IEMxNDQ5Ljk3MzI4LDkyNS45NDEzMzQgMTQzMC41NTgwMiw5NDUuMzU2MjE0IDE0MDYuODI4NzYsOTQ1LjM1NjIxNCBaIiBpZD0iU3Ryb2tlLTMiIHN0cm9rZT0iIzAwOUQ5QSIgc3Ryb2tlLXdpZHRoPSI4Ij48L3BhdGg+CiAgICAgICAgICAgICAgICA8cGF0aCBkPSJNMS4wNzE2MDg3MiwzMzguODM1NDg0IEMwLjYxMTU5NjgwMiwzMzguODM1NDg0IDAuMjM1Mzk4OTc1LDMzOC40NjU2MzQgMC4yMzUzOTg5NzUsMzM4LjAxMzc2NCBMMC4yMzUzOTg5NzUsNTMuNTUzNTkzNCBDMC4yMzUzOTg5NzUsMjQuMjA0ODIzNSAyNC42NjA0NDg1LDAuMTkyMjk3MjE3IDU0LjUxMjk0MzQsMC4xOTIyOTcyMTcgTDM1MS40NjMxOTIsMC4xOTIyOTcyMTcgTDM1MS40NjMxOTIsMzM4LjAxMzc2NCBDMzUxLjQ2MzE5MiwzMzguNDY1NjM0IDM1MS4wODY5OTQsMzM4LjgzNTQ4NCAzNTAuNjI3MzY4LDMzOC44MzU0ODQgTDEuMDcxNjA4NzIsMzM4LjgzNTQ4NCBaIiBpZD0iRmlsbC01IiBmaWxsPSIjMDA5RDlBIj48L3BhdGg+CiAgICAgICAgICAgICAgICA8bGluZSB4MT0iMy4wNTQxNTQ3MiIgeTE9IjM0Mi4zODM3MjEiIHgyPSIxNDQ5LjA5NTAyIiB5Mj0iMzQyLjM4MzcyMSIgaWQ9IlBhdGgtMiIgc3Ryb2tlPSIjNjZFOEU2IiBzdHJva2Utd2lkdGg9IjEyIj48L2xpbmU+CiAgICAgICAgICAgIDwvZz4KICAgICAgICAgICAgPGcgaWQ9Ikdyb3VwLTYiIHRyYW5zZm9ybT0idHJhbnNsYXRlKDcyLjUwMDAwMCwgODguMDAwMDAwKSIgZmlsbD0iI0ZGRkZGRiI+CiAgICAgICAgICAgICAgICA8cGF0aCBkPSJNMTUyLjI5MTU4OCw2Mi43MDMyMzUgTDE1OS43NDY2NSw2NC4wNTc2OTUxIEMxNjUuNzg3NzEzLDY1LjAzODcyOTMgMTcxLjQ4MTU4OCw2Ny41MzI0NTQ5IDE3Ni4zMTA2NSw3MS4yOTgzNjAzIEMxODUuNDU3NDYzLDc4LjU4MzMzMDQgMTkwLjI2NzU4OCw5MC4wNDU2MDczIDE4OS4wNjgyMTMsMTAxLjY5Nzc2MiBMMjAxLjg3NjI3NSwxMDEuNjk3NzYyIEMyMDMuNDkyMjc1LDc3LjU3Njk3OTEgMTg2Ljc3Njc3NSw1Ni4wOTU0OTUgMTYzLjA1NDQsNTEuNzkxNjAzIEMxNTguMTY4NTI1LDI2LjM1NDMzNTggMTM4LjMxNTcxMyw2LjQ2MTQ5NDEzIDExMi45Mzk0NjMsMS41NzUzMTA5MyBDNzguNzA2Nzc1LC01LjA1Nzc0NjA1IDQ1LjU4NTA4NzUsMTcuMzk4NDQzMSAzOC45Njk1ODc1LDUxLjcyODMxMDUgQzM4Ljk2OTU4NzUsNTEuNzQ3Mjk4MyAzOC45NjMyNzUsNTEuNzcyNjE1MyAzOC45NTY5NjI1LDUxLjc5MTYwMyBDMTQuMjQ5ODM3NSw1Ni4yNjYzODQ4IC0yLjY4NjYsNzkuMjkyMjA2NyAwLjM0OTcxMjUsMTA0LjI4MDA5NyBDMy44MTUyNzUsMTI4LjQ4MzE2IDI0LjY2NTQ2MjUsMTQ2LjM0NDMxMSA0OS4wNTA2NSwxNDYuMDAyNTMyIEw4OC4zNjQ5LDE0Ni4wMDI1MzIgTDg4LjM2NDksMTMzLjM0NDAyNiBMNDguNTc3MjEyNSwxMzMuMzQ0MDI2IEMzMS41MjcxNSwxMzMuNjA5ODU1IDE2LjY4NjQ2MjUsMTIxLjY5MTg3MiAxMy4yMTQ1ODc1LDEwNC45NTA5OTggQzkuNjg1OSw4Ni4wMjY1MzE3IDIyLjEyNzgzNzUsNjcuODIzNjAwNSA0MC45OTU5LDY0LjI4NTU0ODIgQzQxLjA2NTMzNzUsNjQuMjcyODg5NyA0MS4xMzQ3NzUsNjQuMjYwMjMxMiA0MS4yMDQyMTI1LDY0LjI0NzU3MjYgTDQ5LjcxOTc3NSw2Mi43MDMyMzUgTDUxLjA3MDY1LDU1LjY3Nzc2NDMgQzU0Ljk1MjgzNzUsMzQuMDQ0Mzc4IDcxLjk5NjU4NzUsMTcuMjA4NTY1NSA5My42Mjk1MjUsMTMuNjMyNTM3NiBDOTkuOTY3Mjc1LDEyLjY5NTgwODIgMTA2LjQyNDk2MywxMi45NzQyOTUzIDExMi42NTU0LDE0LjQ1NTM0MDUgQzEzMi4yODcyNzUsMTkuMzM1MTk0NCAxNDcuMjQxNTg4LDM1LjMwMzg5OTQgMTUwLjg2NDk2Myw1NS4yNjAwMzM2IEwxNTIuMjkxNTg4LDYyLjcwMzIzNSBaIiBpZD0iRmlsbC0xIj48L3BhdGg+CiAgICAgICAgICAgICAgICA8cGF0aCBkPSJNMTUxLDE1MS44NTcxNDMgQzE0MC41ODQ1NzEsMTUxLjg1NzE0MyAxMzIuMTQyODU3LDE0My40MTU0MjkgMTMyLjE0Mjg1NywxMzMgQzEzMi4xNDI4NTcsMTIyLjU4NDU3MSAxNDAuNTg0NTcxLDExNC4xNDI4NTcgMTUxLDExNC4xNDI4NTcgQzE2MS40MTU0MjksMTE0LjE0Mjg1NyAxNjkuODU3MTQzLDEyMi41ODQ1NzEgMTY5Ljg1NzE0MywxMzMgQzE2OS44NDQ1NzEsMTQzLjQwOTE0MyAxNjEuNDA5MTQzLDE1MS44NDQ1NzEgMTUxLDE1MS44NTcxNDMgTDE1MSwxNTEuODU3MTQzIFogTTE5NSwxMzkuMjg1NzE0IEwxOTUsMTI2LjcxNDI4NiBMMTgxLjc5MzcxNCwxMjYuNzE0Mjg2IEMxODAuOTgyODU3LDEyMi43Nzk0MjkgMTc5LjQxNzcxNCwxMTkuMDM5NDI5IDE3Ny4xOTI1NzEsMTE1LjY5NTQyOSBMMTg2LjU1ODI4NiwxMDYuMzI5NzE0IEwxNzcuNjcwMjg2LDk3LjQ0MTcxNDMgTDE2OC4zMDQ1NzEsMTA2LjgwNzQyOSBDMTY0Ljk2MDU3MSwxMDQuNTgyMjg2IDE2MS4yMjA1NzEsMTAzLjAxNzE0MyAxNTcuMjg1NzE0LDEwMi4yMDYyODYgTDE1Ny4yODU3MTQsODkgTDE0NC43MTQyODYsODkgTDE0NC43MTQyODYsMTAyLjIwNjI4NiBDMTQwLjc3OTQyOSwxMDMuMDE3MTQzIDEzNy4wMzk0MjksMTA0LjU4MjI4NiAxMzMuNjk1NDI5LDEwNi44MDc0MjkgTDEyNC4zMjk3MTQsOTcuNDQxNzE0MyBMMTE1LjQ0MTcxNCwxMDYuMzI5NzE0IEwxMjQuODA3NDI5LDExNS42OTU0MjkgQzEyMi41ODIyODYsMTE5LjAzOTQyOSAxMjEuMDE3MTQzLDEyMi43Nzk0MjkgMTIwLjIwNjI4NiwxMjYuNzE0Mjg2IEwxMDcsMTI2LjcxNDI4NiBMMTA3LDEzOS4yODU3MTQgTDEyMC4yMDYyODYsMTM5LjI4NTcxNCBDMTIxLjAxNzE0MywxNDMuMjIwNTcxIDEyMi41ODIyODYsMTQ2Ljk2MDU3MSAxMjQuODA3NDI5LDE1MC4zMDQ1NzEgTDExNS40NDE3MTQsMTU5LjY3MDI4NiBMMTI0LjMyOTcxNCwxNjguNTU4Mjg2IEwxMzMuNjk1NDI5LDE1OS4xOTI1NzEgQzEzNy4wMzk0MjksMTYxLjQxNzcxNCAxNDAuNzc5NDI5LDE2Mi45ODI4NTcgMTQ0LjcxNDI4NiwxNjMuNzkzNzE0IEwxNDQuNzE0Mjg2LDE3NyBMMTU3LjI4NTcxNCwxNzcgTDE1Ny4yODU3MTQsMTYzLjc5MzcxNCBDMTYxLjIyMDU3MSwxNjIuOTgyODU3IDE2NC45NjA1NzEsMTYxLjQxNzcxNCAxNjguMzA0NTcxLDE1OS4xOTI1NzEgTDE3Ny42NzAyODYsMTY4LjU1ODI4NiBMMTg2LjU1ODI4NiwxNTkuNjcwMjg2IEwxNzcuMTkyNTcxLDE1MC4zMDQ1NzEgQzE3OS40MTc3MTQsMTQ2Ljk2MDU3MSAxODAuOTgyODU3LDE0My4yMjA1NzEgMTgxLjc5MzcxNCwxMzkuMjg1NzE0IEwxOTUsMTM5LjI4NTcxNCBaIiBpZD0iRmlsbC00Ij48L3BhdGg+CiAgICAgICAgICAgIDwvZz4KICAgICAgICA8L2c+CiAgICA8L2c+Cjwvc3ZnPg==;spacingBottom=89;spacingLeft=-33;points=[[0,0,0,0,0],[0,0.25,0,0,0],[0,0.5,0,0,0],[0,0.75,0,0,0],[0,1,0,0,0],[0.25,0,0,0,0],[0.5,0,0,0,0],[0.5,1,0,0,0],[0.75,0,0,0,0],[1,0,0,0,0],[1,0.25,0,0,0],[1,0.5,0,0,0],[1,0.75,0,0,0]];fontSize=14;fontFamily=IBM Plex Sans;fontSource=fonts%2FIBMPlexSans-Regular.woff;" parent="bQxnhAWywP4pUUYXjwK0-48" vertex="1">
          <mxGeometry width="198.41" height="130" as="geometry" />
        </mxCell>
        <mxCell id="bQxnhAWywP4pUUYXjwK0-50" value="IT Service Management &lt;br&gt;Change&lt;br&gt;ServiceNow Service" style="text;html=1;strokeColor=none;fillColor=none;align=center;verticalAlign=middle;whiteSpace=wrap;rounded=0;fontSize=14;fontFamily=IBM Plex Sans;fontSource=fonts%2FIBMPlexSans-Regular.woff;" parent="bQxnhAWywP4pUUYXjwK0-48" vertex="1">
          <mxGeometry x="19.21" y="60" width="160" height="58" as="geometry" />
        </mxCell>
        <mxCell id="qK7P-8Lu3oddX9ztJ0Ts-10" value="Regulated Source &#xa;Repository&#xa;(Internal Service" style="shape=image;aspect=fixed;image=data:image/svg+xml,PD94bWwgdmVyc2lvbj0iMS4wIiBlbmNvZGluZz0iVVRGLTgiPz4KPHN2ZyB3aWR0aD0iMjEycHgiIGhlaWdodD0iMTM1cHgiIHZpZXdCb3g9IjAgMCAyMTIgMTM1IiB2ZXJzaW9uPSIxLjEiIHhtbG5zPSJodHRwOi8vd3d3LnczLm9yZy8yMDAwL3N2ZyIgeG1sbnM6eGxpbms9Imh0dHA6Ly93d3cudzMub3JnLzE5OTkveGxpbmsiPgogICAgPHRpdGxlPlNvdXJjZSBSZXBvc2l0b3J5PC90aXRsZT4KICAgIDxnIGlkPSJQYWdlLTEiIHN0cm9rZT0ibm9uZSIgc3Ryb2tlLXdpZHRoPSIxIiBmaWxsPSJub25lIiBmaWxsLXJ1bGU9ImV2ZW5vZGQiPgogICAgICAgIDxnIGlkPSJ2Mi00OHg0OCIgdHJhbnNmb3JtPSJ0cmFuc2xhdGUoLTMxMy4wMDAwMDAsIC01NzMuMDAwMDAwKSI+CiAgICAgICAgICAgIDxnIGlkPSJTb3VyY2UtUmVwb3NpdG9yeSIgdHJhbnNmb3JtPSJ0cmFuc2xhdGUoMzE0LjAwMDAwMCwgNTc0Ljk2NjcwMCkiPgogICAgICAgICAgICAgICAgPGcgaWQ9Ikdyb3VwLTExMS1Db3B5LTEzIj4KICAgICAgICAgICAgICAgICAgICA8cGF0aCBkPSJNMjAzLjc0ODgyMSwxMzEuNjQyNTY1IEw2LjYzNTY4MzM2LDEzMS42NDI1NjUgQzMuMTk3NTY4MzEsMTMxLjY0MjU2NSAwLjM4NDYxNTM4NSwxMjguOTM4NzEgMC4zODQ2MTUzODUsMTI1LjYzMzk1MiBMMC4zODQ2MTUzODUsNi4wMjA5MjQ5OCBDMC4zODQ2MTUzODUsMi43MTYxNjY5MSAzLjE5NzU2ODMxLDAuMDEyMzEyNjA1IDYuNjM1NjgzMzYsMC4wMTIzMTI2MDUgTDIwMy43NDg4MjEsMC4wMTIzMTI2MDUgQzIwNy4xODY5MzYsMC4wMTIzMTI2MDUgMjEwLDIuNzE2MTY2OTEgMjEwLDYuMDIwOTI0OTggTDIxMCwxMjUuNjMzOTUyIEMyMTAsMTI4LjkzODcxIDIwNy4xODY5MzYsMTMxLjY0MjU2NSAyMDMuNzQ4ODIxLDEzMS42NDI1NjUgWiIgaWQ9IlN0cm9rZS0zIiBzdHJva2U9IiMxMDYxRkUiIGZpbGw9IiNGRkZGRkYiPjwvcGF0aD4KICAgICAgICAgICAgICAgICAgICA8bGluZSB4MT0iMC45NTQ4ODIyMTUiIHkxPSI0Ny41MjQ5MTc2IiB4Mj0iMjA5LjQxNjE5OSIgeTI9IjQ3LjUyNDkxNzYiIGlkPSJQYXRoLTItQ29weSIgc3Ryb2tlPSIjRDRFMEY4IiBzdHJva2Utd2lkdGg9IjIiPjwvbGluZT4KICAgICAgICAgICAgICAgICAgICA8cGF0aCBkPSJNNTAuNjQ4NDE0Myw0Ny4zNDAwNDM3IEwwLjEyMDg3MjM0Miw0Ny4zNDAwNDM3IEMwLjA1NDM3ODU5NjEsNDcuMzQwMDQzNyAwLDQ3LjI4ODM1NDYgMCw0Ny4yMjUyMDI2IEwwLDcuNDY5OTIzMzggQzAsMy4zNjgyMjk0OSAzLjUzMDU4ODk4LDAuMDEyMzEyNjA1IDcuODQ1NzAzNjUsMC4wMTIzMTI2MDUgTDUwLjc2OTIzMDgsMC4wMTIzMTI2MDUgTDUwLjc2OTIzMDgsNDcuMjI1MjAyNiBDNTAuNzY5MjMwOCw0Ny4yODgzNTQ2IDUwLjcxNDg1MjIsNDcuMzQwMDQzNyA1MC42NDg0MTQzLDQ3LjM0MDA0MzciIGlkPSJGaWxsLTUiIGZpbGw9IiMxMDYxRkUiPjwvcGF0aD4KICAgICAgICAgICAgICAgIDwvZz4KICAgICAgICAgICAgICAgIDxnIGlkPSJHcm91cCIgdHJhbnNmb3JtPSJ0cmFuc2xhdGUoMTAuODg0NjE1LCAxMC4wMDAwMDApIiBzdHJva2U9IiNGRkZGRkYiPgogICAgICAgICAgICAgICAgICAgIDxyZWN0IGlkPSJSZWN0YW5nbGUiIHg9IjAuNSIgeT0iMC41IiB3aWR0aD0iNy42NzYwNTYzNCIgaGVpZ2h0PSI3LjU3NzQ2NDc5Ij48L3JlY3Q+CiAgICAgICAgICAgICAgICAgICAgPHJlY3QgaWQ9IlJlY3RhbmdsZS1Db3B5LTkiIHg9IjAuNSIgeT0iMTAuMjAwNjUxNyIgd2lkdGg9IjcuNjc2MDU2MzQiIGhlaWdodD0iNy41Nzc0NjQ3OSI+PC9yZWN0PgogICAgICAgICAgICAgICAgICAgIDxyZWN0IGlkPSJSZWN0YW5nbGUtQ29weS0xMiIgeD0iMC41IiB5PSIxOS45MDEzMDMzIiB3aWR0aD0iNy42NzYwNTYzNCIgaGVpZ2h0PSI3LjU3NzQ2NDc5Ij48L3JlY3Q+CiAgICAgICAgICAgICAgICAgICAgPHJlY3QgaWQ9IlJlY3RhbmdsZS1Db3B5LTciIHg9IjEwLjQzMzQ1NDQiIHk9IjAuNSIgd2lkdGg9IjcuNjc2MDU2MzQiIGhlaWdodD0iNy41Nzc0NjQ3OSI+PC9yZWN0PgogICAgICAgICAgICAgICAgICAgIDxyZWN0IGlkPSJSZWN0YW5nbGUtQ29weS0xMCIgeD0iMTAuNDMzNDU0NCIgeT0iMTAuMjAwNjUxNyIgd2lkdGg9IjcuNjc2MDU2MzQiIGhlaWdodD0iNy41Nzc0NjQ3OSI+PC9yZWN0PgogICAgICAgICAgICAgICAgICAgIDxyZWN0IGlkPSJSZWN0YW5nbGUtQ29weS0xMyIgeD0iMTAuNDMzNDU0NCIgeT0iMTkuOTAxMzAzMyIgd2lkdGg9IjcuNjc2MDU2MzQiIGhlaWdodD0iNy41Nzc0NjQ3OSI+PC9yZWN0PgogICAgICAgICAgICAgICAgICAgIDxyZWN0IGlkPSJSZWN0YW5nbGUtQ29weS04IiB4PSIyMC4yNTk1NDU1IiB5PSIwLjUiIHdpZHRoPSI3LjY3NjA1NjM0IiBoZWlnaHQ9IjcuNTc3NDY0NzkiPjwvcmVjdD4KICAgICAgICAgICAgICAgICAgICA8cmVjdCBpZD0iUmVjdGFuZ2xlLUNvcHktMTEiIHg9IjIwLjI1OTU0NTUiIHk9IjEwLjIwMDY1MTciIHdpZHRoPSI3LjY3NjA1NjM0IiBoZWlnaHQ9IjcuNTc3NDY0NzkiPjwvcmVjdD4KICAgICAgICAgICAgICAgICAgICA8cmVjdCBpZD0iUmVjdGFuZ2xlLUNvcHktMTQiIHg9IjIwLjI1OTU0NTUiIHk9IjE5LjkwMTMwMzMiIHdpZHRoPSI3LjY3NjA1NjM0IiBoZWlnaHQ9IjcuNTc3NDY0NzkiPjwvcmVjdD4KICAgICAgICAgICAgICAgIDwvZz4KICAgICAgICAgICAgPC9nPgogICAgICAgIDwvZz4KICAgIDwvZz4KPC9zdmc+;fontFamily=IBM Plex Sans;fontSource=fonts%2FIBMPlexSans-Regular.woff;align=left;spacingLeft=58;spacingBottom=86;fontSize=14;" parent="bQxnhAWywP4pUUYXjwK0-8" vertex="1">
          <mxGeometry x="280" y="1170" width="212" height="135" as="geometry" />
        </mxCell>
        <mxCell id="qK7P-8Lu3oddX9ztJ0Ts-16" value="" style="group" parent="bQxnhAWywP4pUUYXjwK0-8" vertex="1" connectable="0">
          <mxGeometry x="34" y="400" width="212" height="135" as="geometry" />
        </mxCell>
        <mxCell id="qK7P-8Lu3oddX9ztJ0Ts-17" value="Regulated Production &#xa;Service&#xa;(Service)" style="shape=image;image=data:image/svg+xml,PD94bWwgdmVyc2lvbj0iMS4wIiBlbmNvZGluZz0iVVRGLTgiPz4KPHN2ZyB3aWR0aD0iMzgwN3B4IiBoZWlnaHQ9IjI0OTRweCIgdmlld0JveD0iMCAwIDM4MDcgMjQ5NCIgdmVyc2lvbj0iMS4xIiB4bWxucz0iaHR0cDovL3d3dy53My5vcmcvMjAwMC9zdmciIHhtbG5zOnhsaW5rPSJodHRwOi8vd3d3LnczLm9yZy8xOTk5L3hsaW5rIj4KICAgIDwhLS0gR2VuZXJhdG9yOiBTa2V0Y2ggNTMgKDcyNTIwKSAtIGh0dHBzOi8vc2tldGNoYXBwLmNvbSAtLT4KICAgIDx0aXRsZT5TZXJ2aWNlcyBHcm91cCBNYWdlbnRhPC90aXRsZT4KICAgIDxkZXNjPkNyZWF0ZWQgd2l0aCBTa2V0Y2guPC9kZXNjPgogICAgPGcgaWQ9IlBhZ2UtMSIgc3Ryb2tlPSJub25lIiBzdHJva2Utd2lkdGg9IjEiIGZpbGw9Im5vbmUiIGZpbGwtcnVsZT0iZXZlbm9kZCI+CiAgICAgICAgPGcgaWQ9IlNlcnZpY2VzLUdyb3VwLU1hZ2VudGEiIHRyYW5zZm9ybT0idHJhbnNsYXRlKDAuMDAwMDAwLCA4LjcxNzAwMCkiPgogICAgICAgICAgICA8ZyBpZD0iTWFnZW50YS1Hcm91cC1Db3B5Ij48L2c+CiAgICAgICAgICAgIDxwYXRoIGQ9Ik0zNjg1LjAyMjksMjQ3Ni4yNDk3IEwxMjEuNTEwOSwyNDc2LjI0OTcgQzU5LjM1NDksMjQ3Ni4yNDk3IDguNTAwOSwyNDI1LjM5NDcgOC41MDA5LDIzNjMuMjM3NyBMOC41MDA5LDExMy41MTU3IEM4LjUwMDksNTEuMzU4NyA1OS4zNTQ5LDAuNTAzNyAxMjEuNTEwOSwwLjUwMzcgTDM2ODUuMDIyOSwwLjUwMzcgQzM3NDcuMTc4OSwwLjUwMzcgMzc5OC4wMzQ5LDUxLjM1ODcgMzc5OC4wMzQ5LDExMy41MTU3IEwzNzk4LjAzNDksMjM2My4yMzc3IEMzNzk4LjAzNDksMjQyNS4zOTQ3IDM3NDcuMTc4OSwyNDc2LjI0OTcgMzY4NS4wMjI5LDI0NzYuMjQ5NyBaIiBpZD0iU3Ryb2tlLTMiIHN0cm9rZT0iI0VENTQ5NiIgc3Ryb2tlLXdpZHRoPSIxNyIgZmlsbD0iI0ZGRkZGRiI+PC9wYXRoPgogICAgICAgICAgICA8cGF0aCBkPSJNOTE4LjQyNzI1OCw4ODcuNTM5OCBMMi44MDY5NTMzNCw4ODcuNTM5OCBDMS42MDIwMDYwOCw4ODcuNTM5OCAwLjYxNjYsODg2LjU3MTAyMSAwLjYxNjYsODg1LjM4NzQwMSBMMC42MTY2LDE0MC4yNzczNTUgQzAuNjE2Niw2My40MDE2OTU3IDY0LjU5NTE1MTcsMC41MDM3IDE0Mi43OTAyNiwwLjUwMzcgTDkyMC42MTY2LDAuNTAzNyBMOTIwLjYxNjYsODg1LjM4NzQwMSBDOTIwLjYxNjYsODg2LjU3MTAyMSA5MTkuNjMxMTk0LDg4Ny41Mzk4IDkxOC40MjcyNTgsODg3LjUzOTgiIGlkPSJGaWxsLTUiIGZpbGw9IiNFRDU0OTYiPjwvcGF0aD4KICAgICAgICAgICAgPHBhdGggZD0iTTgsODk2LjgzMzk5MSBMMzc5NS43MzQ0LDg5Ni44MzM5OTEiIGlkPSJQYXRoLTItQ29weSIgc3Ryb2tlPSIjRkZENUU4IiBzdHJva2Utd2lkdGg9IjEyIj48L3BhdGg+CiAgICAgICAgICAgIDxwYXRoIGQ9Ik03MTcuNjA5MTM3LDM0MC43MTQ4MzUgTDY4Ni45MjI3NzEsMzQwLjcxNDgzNSBMNjg2LjkyMjc3MSwyMTcuOTY5MzY3IEw0NTYuNzc1MDE4LDIxNy45NjkzNjcgTDQ1Ni43NzUwMTgsMTg3LjI4MyBMNjg2LjkyMjc3MSwxODcuMjgzIEM3MDMuODYyMzIxLDE4Ny4zMDI0NDcgNzE3LjU4OTY5MSwyMDEuMDI5ODE2IDcxNy42MDkxMzcsMjE3Ljk2OTM2NyBMNzE3LjYwOTEzNywzNDAuNzE0ODM1IFoiIGlkPSJQYXRoIiBzdHJva2U9IiNGRkZGRkYiIGZpbGw9IiNGRkZGRkYiIGZpbGwtcnVsZT0ibm9uemVybyI+PC9wYXRoPgogICAgICAgICAgICA8cGF0aCBkPSJNNjQwLjg5MzIyLDQxNy40MzA3NTIgTDYxMC4yMDY4NTMsNDE3LjQzMDc1MiBMNjEwLjIwNjg1MywyOTQuNjg1Mjg0IEwzODAuMDU5MTAxLDI5NC42ODUyODQgTDM4MC4wNTkxMDEsMjYzLjk5ODkxNyBMNjEwLjIwNjg1MywyNjMuOTk4OTE3IEM2MjcuMTQ2NDA0LDI2NC4wMTgzNjQgNjQwLjg3Mzc3MywyNzcuNzQ1NzM0IDY0MC44OTMyMiwyOTQuNjg1Mjg0IEw2NDAuODkzMjIsNDE3LjQzMDc1MiBaIiBpZD0iUGF0aCIgc3Ryb2tlPSIjRkZGRkZGIiBmaWxsPSIjRkZGRkZGIiBmaWxsLXJ1bGU9Im5vbnplcm8iPjwvcGF0aD4KICAgICAgICAgICAgPHBhdGggZD0iTTMzNy45OTU3NjEsMzUxLjg5NTYwNyBDMzI0LjI1OTM0MywzNTEuODk1NjA3IDMxOS40NzEzMDIsMzUyLjgyMDIyMSAzMTQuNTUzODkzLDM1NS40NTAwOCBDMzEwLjYzODA5NiwzNTcuNTQ0MjcxIDMwNy42NDg2NjQsMzYwLjUzMzcwMyAzMDUuNTU0NDcyLDM2NC40NDk1IEMzMDIuOTI0NjEzLDM2OS4zNjY5MDkgMzAyLDM3NC4xNTQ5NSAzMDIsMzg3Ljg5MTM2OSBMMzAyLDYxOS44OTUzNzggQzMwMiw2MzMuNjMxNzk2IDMwMi45MjQ2MTMsNjM4LjQxOTgzOCAzMDUuNTU0NDcyLDY0My4zMzcyNDYgQzMwNy42NDg2NjQsNjQ3LjI1MzA0MyAzMTAuNjM4MDk2LDY1MC4yNDI0NzYgMzE0LjU1Mzg5Myw2NTIuMzM2NjY3IEMzMTkuNDcxMzAyLDY1NC45NjY1MjYgMzI0LjI1OTM0Myw2NTUuODkxMTM5IDMzNy45OTU3NjEsNjU1Ljg5MTEzOSBMNTE4LjE3NjA3OCw2NTUuODkxMTM5IEM1MzEuOTEyNDk2LDY1NS44OTExMzkgNTM2LjcwMDUzOCw2NTQuOTY2NTI2IDU0MS42MTc5NDYsNjUyLjMzNjY2NyBDNTQ1LjUzMzc0Myw2NTAuMjQyNDc2IDU0OC41MjMxNzYsNjQ3LjI1MzA0MyA1NTAuNjE3MzY3LDY0My4zMzcyNDYgQzU1My4yNDcyMjYsNjM4LjQxOTgzOCA1NTQuMTcxODM5LDYzMy42MzE3OTYgNTU0LjE3MTgzOSw2MTkuODk1Mzc4IEw1NTQuMTcxODM5LDM4Ny44OTEzNjkgQzU1NC4xNzE4MzksMzc0LjE1NDk1IDU1My4yNDcyMjYsMzY5LjM2NjkwOSA1NTAuNjE3MzY3LDM2NC40NDk1IEM1NDguNTIzMTc2LDM2MC41MzM3MDMgNTQ1LjUzMzc0MywzNTcuNTQ0MjcxIDU0MS42MTc5NDYsMzU1LjQ1MDA4IEM1MzYuNzAwNTM4LDM1Mi44MjAyMjEgNTMxLjkxMjQ5NiwzNTEuODk1NjA3IDUxOC4xNzYwNzgsMzUxLjg5NTYwNyBMMzM3Ljk5NTc2MSwzNTEuODk1NjA3IFoiIGlkPSJSZWN0YW5nbGUiIHN0cm9rZT0iI0ZGRkZGRiIgc3Ryb2tlLXdpZHRoPSIyOCI+PC9wYXRoPgogICAgICAgIDwvZz4KICAgIDwvZz4KPC9zdmc+;spacingBottom=85;fontFamily=IBM Plex Sans;fontSource=fonts%2FIBMPlexSans-Regular.woff;fontSize=14;spacingLeft=55;align=left;" parent="qK7P-8Lu3oddX9ztJ0Ts-16" vertex="1">
          <mxGeometry x="-5" width="212" height="135" as="geometry" />
        </mxCell>
        <mxCell id="qK7P-8Lu3oddX9ztJ0Ts-18" value="Service Published in&amp;nbsp;&lt;br&gt;IBM Cloud Global Catalog" style="text;html=1;strokeColor=none;fillColor=none;align=center;verticalAlign=middle;whiteSpace=wrap;rounded=0;fontSize=14;fontFamily=IBM Plex Sans;fontSource=fonts%2FIBMPlexSans-Regular.woff;" parent="qK7P-8Lu3oddX9ztJ0Ts-16" vertex="1">
          <mxGeometry x="21" y="60" width="160" height="60" as="geometry" />
        </mxCell>
        <mxCell id="qK7P-8Lu3oddX9ztJ0Ts-20" value="Regulated Prod &#xa;Environment&#xa;(Environment)" style="shape=image;aspect=fixed;image=data:image/svg+xml,PD94bWwgdmVyc2lvbj0iMS4wIiBlbmNvZGluZz0iVVRGLTgiPz4KPHN2ZyB3aWR0aD0iMjEycHgiIGhlaWdodD0iMTM0cHgiIHZpZXdCb3g9IjAgMCAyMTIgMTM0IiB2ZXJzaW9uPSIxLjEiIHhtbG5zPSJodHRwOi8vd3d3LnczLm9yZy8yMDAwL3N2ZyIgeG1sbnM6eGxpbms9Imh0dHA6Ly93d3cudzMub3JnLzE5OTkveGxpbmsiPgogICAgPHRpdGxlPlByb2QgRW5udmlyb25tZW50PC90aXRsZT4KICAgIDxnIGlkPSJQYWdlLTEiIHN0cm9rZT0ibm9uZSIgc3Ryb2tlLXdpZHRoPSIxIiBmaWxsPSJub25lIiBmaWxsLXJ1bGU9ImV2ZW5vZGQiPgogICAgICAgIDxnIGlkPSJ2Mi00OHg0OCIgdHJhbnNmb3JtPSJ0cmFuc2xhdGUoLTYzLjAwMDAwMCwgLTg4MC4wMDAwMDApIj4KICAgICAgICAgICAgPGcgaWQ9IlByb2QtRW5udmlyb25tZW50IiB0cmFuc2Zvcm09InRyYW5zbGF0ZSg2NC4wMDAwMDAsIDg4MC45NzkwMTMpIj4KICAgICAgICAgICAgICAgIDxnIGlkPSJNYWdlbnRhLUdyb3VwLUNvcHkiIHRyYW5zZm9ybT0idHJhbnNsYXRlKDcuMDAwMDAwLCAxMi4wMDAwMDApIj48L2c+CiAgICAgICAgICAgICAgICA8ZyBpZD0iTWFnZW50YS1Hcm91cC1Db3B5IiB0cmFuc2Zvcm09InRyYW5zbGF0ZSgtMC4wMDAwMDAsIC0wLjAwMDAwMCkiPjwvZz4KICAgICAgICAgICAgICAgIDxwYXRoIGQ9Ik0yMDMuNzQ4ODIxLDEzMS42MzAyNTIgTDYuNjM1NjgzMzYsMTMxLjYzMDI1MiBDMy4xOTc1NjgzMSwxMzEuNjMwMjUyIDAuMzg0NjE1Mzg1LDEyOC45MjYzOTggMC4zODQ2MTUzODUsMTI1LjYyMTY0IEwwLjM4NDYxNTM4NSw2LjAwODYxMjM3IEMwLjM4NDYxNTM4NSwyLjcwMzg1NDMgMy4xOTc1NjgzMSwtNy4xMDU0MjczNmUtMTQgNi42MzU2ODMzNiwtNy4xMDU0MjczNmUtMTQgTDIwMy43NDg4MjEsLTcuMTA1NDI3MzZlLTE0IEMyMDcuMTg2OTM2LC03LjEwNTQyNzM2ZS0xNCAyMTAsMi43MDM4NTQzIDIxMCw2LjAwODYxMjM3IEwyMTAsMTI1LjYyMTY0IEMyMTAsMTI4LjkyNjM5OCAyMDcuMTg2OTM2LDEzMS42MzAyNTIgMjAzLjc0ODgyMSwxMzEuNjMwMjUyIFoiIGlkPSJTdHJva2UtMyIgc3Ryb2tlPSIjRUQ1NDk2IiBmaWxsPSIjRkZGRkZGIj48L3BhdGg+CiAgICAgICAgICAgICAgICA8bGluZSB4MT0iMC44NTk4NTM0NTUiIHkxPSI0Ny41MTI2MDUiIHgyPSIyMDkuNDg2MDEzIiB5Mj0iNDcuNTEyNjA1IiBpZD0iUGF0aC0yLUNvcHkiIHN0cm9rZT0iI0ZGRDVFOCIgc3Ryb2tlLXdpZHRoPSIyIj48L2xpbmU+CiAgICAgICAgICAgICAgICA8cGF0aCBkPSJNMC4xMjA4NzIzNDEsNDcuMzI3NzMxMSBDMC4wNTQzNzg1OTYxLDQ3LjMyNzczMTEgLTEuNDU2NjEyNjFlLTEzLDQ3LjI3NjA0MiAtMS40NTY2MTI2MWUtMTMsNDcuMjEyODkgTC0xLjQ1NjYxMjYxZS0xMyw3LjQ1NzYxMDc3IEMtMS40NTY2MTI2MWUtMTMsMy4zNTU5MTY4OSAzLjUzMDU4ODk4LC04LjUyNjUxMjgzZS0xNCA3Ljg0NTcwMzY1LC04LjUyNjUxMjgzZS0xNCBMNTAuNzY5MjMwOCwtOC41MjY1MTI4M2UtMTQgTDUwLjc2OTIzMDgsNDcuMjEyODkgQzUwLjc2OTIzMDgsNDcuMjc2MDQyIDUwLjcxNDg1MjIsNDcuMzI3NzMxMSA1MC42NDg0MTQzLDQ3LjMyNzczMTEgTDAuMTIwODcyMzQxLDQ3LjMyNzczMTEgWiIgaWQ9IkZpbGwtNSIgZmlsbD0iI0VENTQ5NiI+PC9wYXRoPgogICAgICAgICAgICAgICAgPHBhdGggZD0iTTEzLjM4NDYxNTQsMjIuNjYzODY1NSBMMTMuMzg0NjE1NCwxOS42NjM4NjU1IEMxMy4zODQ2MTU0LDE5LjExMTg2NTUgMTMuODMyNjE1NCwxOC42NjM4NjU1IDE0LjM4NDYxNTQsMTguNjYzODY1NSBMMzYuMzg0NjE1NCwxOC42NjM4NjU1IEMzNi45MzY2MTU0LDE4LjY2Mzg2NTUgMzcuMzg0NjE1NCwxOS4xMTE4NjU1IDM3LjM4NDYxNTQsMTkuNjYzODY1NSBMMzcuMzg0NjE1NCwyMi42NjM4NjU1IEwxMy4zODQ2MTU0LDIyLjY2Mzg2NTUgWiBNMjMuMzg0NjE1NCwyNy42NjM4NjU1IEwyNy4zODQ2MTU0LDI3LjY2Mzg2NTUgTDI3LjM4NDYxNTQsMjQuNjYzODY1NSBMMjMuMzg0NjE1NCwyNC42NjM4NjU1IEwyMy4zODQ2MTU0LDI3LjY2Mzg2NTUgWiBNMzcuMzg0NjE1NCwzMy42NjM4NjU1IEwxMy4zODQ2MTU0LDMzLjY2Mzg2NTUgTDEzLjM4NDYxNTQsMjQuNjYzODY1NSBMMjEuMzg0NjE1NCwyNC42NjM4NjU1IEwyMS4zODQ2MTU0LDI5LjY2Mzg2NTUgTDI5LjM4NDYxNTQsMjkuNjYzODY1NSBMMjkuMzg0NjE1NCwyNC42NjM4NjU1IEwzNy4zODQ2MTU0LDI0LjY2Mzg2NTUgTDM3LjM4NDYxNTQsMzMuNjYzODY1NSBaIE0xOS4zODQ2MTU0LDE2LjY2Mzg2NTUgTDMxLjM4NDYxNTQsMTYuNjYzODY1NSBMMzEuMzg0NjE1NCwxMy42NjM4NjU1IEwxOS4zODQ2MTU0LDEzLjY2Mzg2NTUgTDE5LjM4NDYxNTQsMTYuNjYzODY1NSBaIE0zNi4zODQ2MTU0LDE2LjY2Mzg2NTUgTDMzLjM4NDYxNTQsMTYuNjYzODY1NSBMMzMuMzg0NjE1NCwxMy42NjM4NjU1IEMzMy4zODQ2MTU0LDEyLjU1ODg2NTUgMzIuNDg5NjE1NCwxMS42NjM4NjU1IDMxLjM4NDYxNTQsMTEuNjYzODY1NSBMMTkuMzg0NjE1NCwxMS42NjM4NjU1IEMxOC4yNzk2MTU0LDExLjY2Mzg2NTUgMTcuMzg0NjE1NCwxMi41NTg4NjU1IDE3LjM4NDYxNTQsMTMuNjYzODY1NSBMMTcuMzg0NjE1NCwxNi42NjM4NjU1IEwxNC4zODQ2MTU0LDE2LjY2Mzg2NTUgQzEyLjcyNzYxNTQsMTYuNjYzODY1NSAxMS4zODQ2MTU0LDE4LjAwNjg2NTUgMTEuMzg0NjE1NCwxOS42NjM4NjU1IEwxMS4zODQ2MTU0LDMzLjY2Mzg2NTUgQzExLjM4NDYxNTQsMzQuNzY4ODY1NSAxMi4yNzk2MTU0LDM1LjY2Mzg2NTUgMTMuMzg0NjE1NCwzNS42NjM4NjU1IEwzNy4zODQ2MTU0LDM1LjY2Mzg2NTUgQzM4LjQ4OTYxNTQsMzUuNjYzODY1NSAzOS4zODQ2MTU0LDM0Ljc2ODg2NTUgMzkuMzg0NjE1NCwzMy42NjM4NjU1IEwzOS4zODQ2MTU0LDE5LjY2Mzg2NTUgQzM5LjM4NDYxNTQsMTguMDA2ODY1NSAzOC4wNDE2MTU0LDE2LjY2Mzg2NTUgMzYuMzg0NjE1NCwxNi42NjM4NjU1IEwzNi4zODQ2MTU0LDE2LjY2Mzg2NTUgWiIgaWQ9IkZpbGwtMSIgZmlsbD0iI0ZGRkZGRiI+PC9wYXRoPgogICAgICAgICAgICA8L2c+CiAgICAgICAgPC9nPgogICAgPC9nPgo8L3N2Zz4=;fontFamily=IBM Plex Sans;fontSource=fonts%2FIBMPlexSans-Regular.woff;fontSize=14;align=left;spacingLeft=58;spacingBottom=86;" parent="bQxnhAWywP4pUUYXjwK0-8" vertex="1">
          <mxGeometry x="29" y="610" width="212" height="134" as="geometry" />
        </mxCell>
        <mxCell id="qK7P-8Lu3oddX9ztJ0Ts-24" style="edgeStyle=orthogonalEdgeStyle;rounded=0;orthogonalLoop=1;jettySize=auto;html=1;exitX=1;exitY=0.75;exitDx=0;exitDy=0;exitPerimeter=0;entryX=0.5;entryY=0;entryDx=0;entryDy=0;fontFamily=IBM Plex Sans;fontSource=fonts%2FIBMPlexSans-Regular.woff;fontSize=14;startArrow=classic;startFill=1;" parent="bQxnhAWywP4pUUYXjwK0-8" source="qK7P-8Lu3oddX9ztJ0Ts-23" target="qK7P-8Lu3oddX9ztJ0Ts-10" edge="1">
          <mxGeometry relative="1" as="geometry" />
        </mxCell>
        <mxCell id="qK7P-8Lu3oddX9ztJ0Ts-25" style="edgeStyle=orthogonalEdgeStyle;rounded=0;orthogonalLoop=1;jettySize=auto;html=1;exitX=0.5;exitY=1;exitDx=0;exitDy=0;exitPerimeter=0;fontFamily=IBM Plex Sans;fontSource=fonts%2FIBMPlexSans-Regular.woff;fontSize=14;startArrow=classic;startFill=1;" parent="bQxnhAWywP4pUUYXjwK0-8" source="qK7P-8Lu3oddX9ztJ0Ts-23" target="qK7P-8Lu3oddX9ztJ0Ts-7" edge="1">
          <mxGeometry relative="1" as="geometry" />
        </mxCell>
        <mxCell id="qK7P-8Lu3oddX9ztJ0Ts-23" value="Regulated Continuous &#xa;Delivery&#xa;(Internal Service)" style="shape=image;aspect=fixed;image=data:image/svg+xml,PD94bWwgdmVyc2lvbj0iMS4wIiBlbmNvZGluZz0iVVRGLTgiPz4KPHN2ZyB3aWR0aD0iMjEycHgiIGhlaWdodD0iMTM1cHgiIHZpZXdCb3g9IjAgMCAyMTIgMTM1IiB2ZXJzaW9uPSIxLjEiIHhtbG5zPSJodHRwOi8vd3d3LnczLm9yZy8yMDAwL3N2ZyIgeG1sbnM6eGxpbms9Imh0dHA6Ly93d3cudzMub3JnLzE5OTkveGxpbmsiPgogICAgPHRpdGxlPkdyb3VwIDExMTwvdGl0bGU+CiAgICA8ZyBpZD0iUGFnZS0xIiBzdHJva2U9Im5vbmUiIHN0cm9rZS13aWR0aD0iMSIgZmlsbD0ibm9uZSIgZmlsbC1ydWxlPSJldmVub2RkIj4KICAgICAgICA8ZyBpZD0iR3JvdXAtMTExIiB0cmFuc2Zvcm09InRyYW5zbGF0ZSgxLjAwMDAwMCwgMS45NjY3MDApIj4KICAgICAgICAgICAgPGcgaWQ9Ikdyb3VwLTEwOC1Db3B5Ij4KICAgICAgICAgICAgICAgIDxnIGlkPSJNYWdlbnRhLUdyb3VwLUNvcHkiIHRyYW5zZm9ybT0idHJhbnNsYXRlKDAuMDAwMDAwLCAwLjAxMjMxMykiPjwvZz4KICAgICAgICAgICAgICAgIDxwYXRoIGQ9Ik0yMDMuNzQ4ODIxLDEzMS42NDI1NjUgTDYuNjM1NjgzMzYsMTMxLjY0MjU2NSBDMy4xOTc1NjgzMSwxMzEuNjQyNTY1IDAuMzg0NjE1Mzg1LDEyOC45Mzg3MSAwLjM4NDYxNTM4NSwxMjUuNjMzOTUyIEwwLjM4NDYxNTM4NSw2LjAyMDkyNDk4IEMwLjM4NDYxNTM4NSwyLjcxNjE2NjkxIDMuMTk3NTY4MzEsMC4wMTIzMTI2MDUgNi42MzU2ODMzNiwwLjAxMjMxMjYwNSBMMjAzLjc0ODgyMSwwLjAxMjMxMjYwNSBDMjA3LjE4NjkzNiwwLjAxMjMxMjYwNSAyMTAsMi43MTYxNjY5MSAyMTAsNi4wMjA5MjQ5OCBMMjEwLDEyNS42MzM5NTIgQzIxMCwxMjguOTM4NzEgMjA3LjE4NjkzNiwxMzEuNjQyNTY1IDIwMy43NDg4MjEsMTMxLjY0MjU2NSBaIiBpZD0iU3Ryb2tlLTMiIHN0cm9rZT0iI0VENTQ5NiIgZmlsbD0iI0ZGRkZGRiI+PC9wYXRoPgogICAgICAgICAgICAgICAgPGxpbmUgeDE9IjEuNzMwNzY5MjMiIHkxPSI0Ny41MjQ5MTc2IiB4Mj0iMjA4LjY1Mzg0NiIgeTI9IjQ3LjUyNDkxNzYiIGlkPSJQYXRoLTItQ29weSIgc3Ryb2tlPSIjRkZENUU4IiBzdHJva2Utd2lkdGg9IjIiPjwvbGluZT4KICAgICAgICAgICAgICAgIDxwYXRoIGQ9Ik01MC42NDg0MTQzLDQ3LjM0MDA0MzcgTDAuMTIwODcyMzQyLDQ3LjM0MDA0MzcgQzAuMDU0Mzc4NTk2MSw0Ny4zNDAwNDM3IDAsNDcuMjg4MzU0NiAwLDQ3LjIyNTIwMjYgTDAsNy40Njk5MjMzOCBDMCwzLjM2ODIyOTQ5IDMuNTMwNTg4OTgsMC4wMTIzMTI2MDUgNy44NDU3MDM2NSwwLjAxMjMxMjYwNSBMNTAuNzY5MjMwOCwwLjAxMjMxMjYwNSBMNTAuNzY5MjMwOCw0Ny4yMjUyMDI2IEM1MC43NjkyMzA4LDQ3LjI4ODM1NDYgNTAuNzE0ODUyMiw0Ny4zNDAwNDM3IDUwLjY0ODQxNDMsNDcuMzQwMDQzNyIgaWQ9IkZpbGwtNSIgZmlsbD0iI0VENTQ5NiI+PC9wYXRoPgogICAgICAgICAgICA8L2c+CiAgICAgICAgICAgIDxnIGlkPSJHcm91cC02Ni1Db3B5LTIiIHRyYW5zZm9ybT0idHJhbnNsYXRlKDEwLjE0NjU3NiwgMTEuODU5NzA4KSIgZmlsbD0iI0ZGRkZGRiIgZmlsbC1ydWxlPSJub256ZXJvIj4KICAgICAgICAgICAgICAgIDxwb2x5Z29uIGlkPSJSZWN0YW5nbGUiIHBvaW50cz0iNS44NTM0MjM3NyAxNy4xMjE3NTE3IDEyLjY1MTMyMDEgMTEuMTczNTkyNCAxMy44NTM0MjM4IDEyLjIyNTQzMzIgNy4wNTU1Mjc0NiAxOC4xNzM1OTI0Ij48L3BvbHlnb24+CiAgICAgICAgICAgICAgICA8cGF0aCBkPSJNMTMuMTc1NTA2LDIyLjE3MzU5MjQgQzEzLjA3MTQ3NjEsMjIuMTczODMyMiAxMi45NjgzNDUxLDIyLjE1NTE2ODEgMTIuODcxNTk3NCwyMi4xMTg1OTAyIEMxMi41OTc2NzM2LDIyLjAxNDEzMzEgMTIuNDAzMzA4MiwyMS43NzcyMjY3IDEyLjM2MjM0NTMsMjEuNDk3ODc3NCBMMTEuNTQwOTcxLDE1Ljk5Nzg5MDIgTDEzLjE4MzcxOTcsMTUuNzc3ODkwNyBMMTMuNzk5NzUwNSwxOS45MTg1OTUzIEwxNi40NjEwMDM0LDE3Ljg2Nzg4NTggTDE2LjQ2MTAwMzQsMTEuOTU5MzI4MSBDMTYuNDU5NzQxMiwxMS43NTA0ODM0IDE2LjU0NTQ1MTgsMTEuNTQ5NzUxIDE2LjY5OTIwMiwxMS40MDE0NzIzIEwyMC4wNDIxOTU3LDguMjAzNjIyNTUgQzIxLjQzMzU0NzcsNi44ODE3MDc5MiAyMi4yMTQzNTA0LDUuMDgyMzUyNTEgMjIuMjEwNjI0MSwzLjIwNjQ5MTI5IEwyMi4yMTA2MjQxLDEuNzQ1MDY2MTIgTDIwLjY4Mjg2NzcsMS43NDUwNjYxMiBDMTguNzIxODY0OSwxLjc0MTUwMTU5IDE2Ljg0MDg0MDQsMi40ODg0MDM4MyAxNS40NTg5MjY3LDMuODE5MzQ3MDEgTDEyLjExNTkzMyw3LjAxNzE5NjczIEMxMS45NjA5MjQyLDcuMTY0MjcxNTEgMTEuNzUxMDgxLDcuMjQ2MjYwOCAxMS41MzI3NTcyLDcuMjQ1MDUzMzQgTDUuMzU2MDIxOTIsNy4yNDUwNTMzNCBMMy4yMTIyMzQ4MSw5LjgwNjQ3NTk3IEw3LjU0MDg3Nzc1LDEwLjM5NTc2MDMgTDcuMzEwODkyOTMsMTEuOTY3MTg1MiBMMS41NjEyNzIzMiwxMS4xODE0NzI4IEMxLjI2OTI0MzkyLDExLjE0MjI4ODQgMS4wMjE1ODQ4MSwxMC45NTYzNjE5IDAuOTEyMzg2NTYyLDEwLjY5NDMzMTEgQzAuODAxODA0Nzc1LDEwLjQzMDM5NTMgMC44NDg5MjQ0NjcsMTAuMTI5OTAyNyAxLjAzNTU5MjcyLDkuOTA4NjE4NTkgTDQuMzIxMDkwMjEsNS45ODAwNTYyOCBDNC40NzQzODgxNSw1Ljc4OTUyNjc3IDQuNzEwNDQxNjQsNS42NzY2MjQ0MyA0Ljk2MTc2MjIyLDUuNjczNjI4NDIgTDExLjE5NTk5MzcsNS42NzM2Mjg0MiBMMTQuMjkyNTc1MSwyLjcwMzYzNTMyIEMxNS45ODM0NzM2LDEuMDc3MDYwNTMgMTguMjg0ODYwNSwwLjE2NTkxMzYzNyAyMC42ODI4Njc3LDAuMTczNTkyNDM3IEwyMi4yMTA2MjQxLDAuMTczNTkyNDM3IEMyMy4xMTc4ODkxLDAuMTczNTkyNDM3IDIzLjg1MzQyMzgsMC44NzcxOTIwOTUgMjMuODUzNDIzOCwxLjc0NTA2NjEyIEwyMy44NTM0MjM4LDMuMjA2NDkxMjkgQzIzLjg2MTQ1MTEsNS41MDAzODMzNiAyMi45MDg5NDkxLDcuNzAxODUwMDkgMjEuMjA4NTQ3Myw5LjMxOTMzNDI0IEwxOC4xMDM3NTIyLDEyLjI4MTQ3MDIgTDE4LjEwMzc1MjIsMTguMjQ1MDI3OCBDMTguMTAyNiwxOC40ODQwOTgxIDE3Ljk4NzcyMjcsMTguNzA5NjYwOSAxNy43OTE2Mjk5LDE4Ljg1Nzg4MzUgTDEzLjY4NDc1ODEsMjIuMDAwNzMzNCBDMTMuNTQwMjQ2MSwyMi4xMTE2NDUgMTMuMzYwNzc4NiwyMi4xNzI1NjIxIDEzLjE3NTUwNiwyMi4xNzM1OTI0IFoiIGlkPSJQYXRoIj48L3BhdGg+CiAgICAgICAgICAgIDwvZz4KICAgICAgICA8L2c+CiAgICA8L2c+Cjwvc3ZnPg==;spacingLeft=54;spacingBottom=83;align=left;points=[[0,0.25,0,0,0],[0,0.5,0,0,0],[0,0.75,0,0,0],[0,1,0,0,0],[0.25,1,0,0,0],[0.4,0,0,0,0],[0.5,0,0,0,0],[0.5,1,0,0,0],[0.75,1,0,0,0],[1,0.25,0,0,0],[1,0.5,0,0,0],[1,0.75,0,0,0],[1,1,0,0,0]];fontFamily=IBM Plex Sans;fontSource=fonts%2FIBMPlexSans-Regular.woff;fontSize=14;" parent="bQxnhAWywP4pUUYXjwK0-8" vertex="1">
          <mxGeometry x="20" y="878" width="212" height="135" as="geometry" />
        </mxCell>
        <mxCell id="waI4hvnf7LsabYLLWTcf-8" style="edgeStyle=orthogonalEdgeStyle;rounded=0;orthogonalLoop=1;jettySize=auto;html=1;exitX=0.5;exitY=1;exitDx=0;exitDy=0;exitPerimeter=0;fontFamily=IBM Plex Sans;fontSource=fonts%2FIBMPlexSans-Regular.woff;fontSize=14;entryX=1;entryY=0.5;entryDx=0;entryDy=0;entryPerimeter=0;startArrow=classic;startFill=1;" parent="bQxnhAWywP4pUUYXjwK0-8" source="bQxnhAWywP4pUUYXjwK0-49" target="qK7P-8Lu3oddX9ztJ0Ts-23" edge="1">
          <mxGeometry relative="1" as="geometry">
            <mxPoint x="100" y="944" as="targetPoint" />
            <Array as="points">
              <mxPoint x="363" y="945" />
            </Array>
          </mxGeometry>
        </mxCell>
        <mxCell id="qK7P-8Lu3oddX9ztJ0Ts-26" style="edgeStyle=orthogonalEdgeStyle;rounded=0;orthogonalLoop=1;jettySize=auto;html=1;exitX=0.5;exitY=1;exitDx=0;exitDy=0;fontFamily=IBM Plex Sans;fontSource=fonts%2FIBMPlexSans-Regular.woff;fontSize=14;startArrow=classic;startFill=1;" parent="bQxnhAWywP4pUUYXjwK0-8" source="qK7P-8Lu3oddX9ztJ0Ts-17" target="qK7P-8Lu3oddX9ztJ0Ts-20" edge="1">
          <mxGeometry relative="1" as="geometry" />
        </mxCell>
        <mxCell id="qK7P-8Lu3oddX9ztJ0Ts-6" value="" style="group" parent="bQxnhAWywP4pUUYXjwK0-8" vertex="1" connectable="0">
          <mxGeometry x="19" y="1170" width="212" height="135" as="geometry" />
        </mxCell>
        <mxCell id="qK7P-8Lu3oddX9ztJ0Ts-7" value="Regulated Artifact&#xa; Repository&#xa;(Internal Service)" style="shape=image;aspect=fixed;image=data:image/svg+xml,PD94bWwgdmVyc2lvbj0iMS4wIiBlbmNvZGluZz0iVVRGLTgiPz4KPHN2ZyB3aWR0aD0iMjEycHgiIGhlaWdodD0iMTM1cHgiIHZpZXdCb3g9IjAgMCAyMTIgMTM1IiB2ZXJzaW9uPSIxLjEiIHhtbG5zPSJodHRwOi8vd3d3LnczLm9yZy8yMDAwL3N2ZyIgeG1sbnM6eGxpbms9Imh0dHA6Ly93d3cudzMub3JnLzE5OTkveGxpbmsiPgogICAgPHRpdGxlPkFydGlmYWN0IFJlcG9zaXRvcnkgQ29weTwvdGl0bGU+CiAgICA8ZyBpZD0iUGFnZS0xIiBzdHJva2U9Im5vbmUiIHN0cm9rZS13aWR0aD0iMSIgZmlsbD0ibm9uZSIgZmlsbC1ydWxlPSJldmVub2RkIj4KICAgICAgICA8ZyBpZD0idjItNDh4NDgiIHRyYW5zZm9ybT0idHJhbnNsYXRlKC0zMTMuMDAwMDAwLCAtMjYxLjAwMDAwMCkiPgogICAgICAgICAgICA8ZyBpZD0iQXJ0aWZhY3QtUmVwb3NpdG9yeS1Db3B5IiB0cmFuc2Zvcm09InRyYW5zbGF0ZSgzMTQuMDAwMDAwLCAyNjIuOTY2NzAwKSI+CiAgICAgICAgICAgICAgICA8ZyBpZD0iQXJ0aWZhY3QtUmVwb3NpdG9yeSI+CiAgICAgICAgICAgICAgICAgICAgPHBhdGggZD0iTTIwMy43NDg4MjEsMTMxLjY0MjU2NSBMNi42MzU2ODMzNiwxMzEuNjQyNTY1IEMzLjE5NzU2ODMxLDEzMS42NDI1NjUgMC4zODQ2MTUzODUsMTI4LjkzODcxIDAuMzg0NjE1Mzg1LDEyNS42MzM5NTIgTDAuMzg0NjE1Mzg1LDYuMDIwOTI0OTggQzAuMzg0NjE1Mzg1LDIuNzE2MTY2OTEgMy4xOTc1NjgzMSwwLjAxMjMxMjYwNSA2LjYzNTY4MzM2LDAuMDEyMzEyNjA1IEwyMDMuNzQ4ODIxLDAuMDEyMzEyNjA1IEMyMDcuMTg2OTM2LDAuMDEyMzEyNjA1IDIxMCwyLjcxNjE2NjkxIDIxMCw2LjAyMDkyNDk4IEwyMTAsMTI1LjYzMzk1MiBDMjEwLDEyOC45Mzg3MSAyMDcuMTg2OTM2LDEzMS42NDI1NjUgMjAzLjc0ODgyMSwxMzEuNjQyNTY1IFoiIGlkPSJTdHJva2UtMyIgc3Ryb2tlPSIjMTA2MUZFIiBmaWxsPSIjRkZGRkZGIj48L3BhdGg+CiAgICAgICAgICAgICAgICAgICAgPGxpbmUgeDE9IjEuNzMwNzY5MjMiIHkxPSI0Ny41MjQ5MTc2IiB4Mj0iMjA4LjY1Mzg0NiIgeTI9IjQ3LjUyNDkxNzYiIGlkPSJQYXRoLTItQ29weSIgc3Ryb2tlPSIjRDRFMEY4IiBzdHJva2Utd2lkdGg9IjIiPjwvbGluZT4KICAgICAgICAgICAgICAgICAgICA8cGF0aCBkPSJNNTAuNjQ4NDE0Myw0Ny4zNDAwNDM3IEwwLjEyMDg3MjM0Miw0Ny4zNDAwNDM3IEMwLjA1NDM3ODU5NjEsNDcuMzQwMDQzNyAwLDQ3LjI4ODM1NDYgMCw0Ny4yMjUyMDI2IEwwLDcuNDY5OTIzMzggQzAsMy4zNjgyMjk0OSAzLjUzMDU4ODk4LDAuMDEyMzEyNjA1IDcuODQ1NzAzNjUsMC4wMTIzMTI2MDUgTDUwLjc2OTIzMDgsMC4wMTIzMTI2MDUgTDUwLjc2OTIzMDgsNDcuMjI1MjAyNiBDNTAuNzY5MjMwOCw0Ny4yODgzNTQ2IDUwLjcxNDg1MjIsNDcuMzQwMDQzNyA1MC42NDg0MTQzLDQ3LjM0MDA0MzciIGlkPSJGaWxsLTUiIGZpbGw9IiMxMDYxRkUiPjwvcGF0aD4KICAgICAgICAgICAgICAgIDwvZz4KICAgICAgICAgICAgICAgIDxnIHRyYW5zZm9ybT0idHJhbnNsYXRlKDEyLjg4NDYxNSwgMTIuNTMzMzAwKSIgaWQ9Ikdyb3VwLTQiPjwvZz4KICAgICAgICAgICAgICAgIDxwYXRoIGQ9Ik0xOC4yNDE3NTgyLDI3LjcxMTg3MTQgTDI5Ljg0ODkwMTEsMjcuNzExODcxNCBMMjkuODQ4OTAxMSwyNS45MjYxNTcxIEwxOC4yNDE3NTgyLDI1LjkyNjE1NzEgTDE4LjI0MTc1ODIsMjcuNzExODcxNCBaIE0xOC4yNDE3NTgyLDIzLjI0NzU4NTcgTDI4LjA2MzE4NjgsMjMuMjQ3NTg1NyBMMjguMDYzMTg2OCwyMS40NjE4NzE0IEwxOC4yNDE3NTgyLDIxLjQ2MTg3MTQgTDE4LjI0MTc1ODIsMjMuMjQ3NTg1NyBaIiBpZD0iRmlsbC0xIiBmaWxsPSIjRkZGRkZGIj48L3BhdGg+CiAgICAgICAgICAgICAgICA8cGF0aCBkPSJNMTQuNjcwMzI5NywzMi4xNzYxNTcxIEwzNi4wOTg5MDExLDMyLjE3NjE1NzEgTDM2LjA5ODkwMTEsMTcuODkwNDQyOSBMMTQuNjcwMzI5NywxNy44OTA0NDI5IEwxNC42NzAzMjk3LDMyLjE3NjE1NzEgWiBNMTQuNjcwMzI5NywxNi4xMDQ3Mjg2IEwzNi4wOTg5MDExLDE2LjEwNDcyODYgTDM2LjA5ODkwMTEsMTQuMzE5MDE0MyBMMTQuNjcwMzI5NywxNC4zMTkwMTQzIEwxNC42NzAzMjk3LDE2LjEwNDcyODYgWiBNMzYuMDk4OTAxMSwxMi41MzMzIEwxNC42NzAzMjk3LDEyLjUzMzMgQzEzLjY4MzcyMjUsMTIuNTMzMyAxMi44ODQ2MTU0LDEzLjMzMjQwNzEgMTIuODg0NjE1NCwxNC4zMTkwMTQzIEwxMi44ODQ2MTU0LDMyLjE3NjE1NzEgQzEyLjg4NDYxNTQsMzMuMTYyNzY0MyAxMy42ODM3MjI1LDMzLjk2MTg3MTQgMTQuNjcwMzI5NywzMy45NjE4NzE0IEwzNi4wOTg5MDExLDMzLjk2MTg3MTQgQzM3LjA4NTUwODIsMzMuOTYxODcxNCAzNy44ODQ2MTU0LDMzLjE2Mjc2NDMgMzcuODg0NjE1NCwzMi4xNzYxNTcxIEwzNy44ODQ2MTU0LDE0LjMxOTAxNDMgQzM3Ljg4NDYxNTQsMTMuMzMyNDA3MSAzNy4wODU1MDgyLDEyLjUzMzMgMzYuMDk4OTAxMSwxMi41MzMzIEwzNi4wOTg5MDExLDEyLjUzMzMgWiIgaWQ9IkZpbGwtMiIgZmlsbD0iI0ZGRkZGRiI+PC9wYXRoPgogICAgICAgICAgICA8L2c+CiAgICAgICAgPC9nPgogICAgPC9nPgo8L3N2Zz4=;align=left;spacingLeft=58;spacingBottom=86;fontSize=14;fontFamily=IBM Plex Sans;fontSource=fonts%2FIBMPlexSans-Regular.woff;points=[[0,0,0,0,0],[0,0.25,0,0,0],[0,0.5,0,0,0],[0,0.75,0,0,0],[0,1,0,0,0],[0.25,0,0,0,0],[0.4,1,0,0,0],[0.5,0,0,0,0],[0.6,1,0,0,0],[0.75,0,0,0,0],[1,0,0,0,0],[1,0.25,0,0,0],[1,0.5,0,0,0],[1,0.75,0,0,0],[1,1,0,0,0]];" parent="qK7P-8Lu3oddX9ztJ0Ts-6" vertex="1">
          <mxGeometry width="212" height="135" as="geometry" />
        </mxCell>
        <mxCell id="qK7P-8Lu3oddX9ztJ0Ts-8" value="Artifactory&lt;br&gt;Edge" style="text;html=1;strokeColor=none;fillColor=none;align=center;verticalAlign=middle;whiteSpace=wrap;rounded=0;fontSize=14;fontFamily=IBM Plex Sans;fontSource=fonts%2FIBMPlexSans-Regular.woff;" parent="qK7P-8Lu3oddX9ztJ0Ts-6" vertex="1">
          <mxGeometry x="51.25" y="70" width="108.52" height="42" as="geometry" />
        </mxCell>
        <mxCell id="qK7P-8Lu3oddX9ztJ0Ts-32" value="VPC / ROKS" style="text;html=1;strokeColor=none;fillColor=none;align=center;verticalAlign=middle;whiteSpace=wrap;rounded=0;fontSize=14;fontFamily=IBM Plex Sans;fontSource=fonts%2FIBMPlexSans-Regular.woff;" parent="bQxnhAWywP4pUUYXjwK0-8" vertex="1">
          <mxGeometry x="85.73999999999978" y="680" width="108.52" height="42" as="geometry" />
        </mxCell>
        <mxCell id="qK7P-8Lu3oddX9ztJ0Ts-34" value="One Pipeline Regulated Instance" style="text;html=1;strokeColor=none;fillColor=none;align=center;verticalAlign=middle;whiteSpace=wrap;rounded=0;fontSize=14;fontFamily=IBM Plex Sans;fontSource=fonts%2FIBMPlexSans-Regular.woff;" parent="bQxnhAWywP4pUUYXjwK0-8" vertex="1">
          <mxGeometry x="71.73999999999978" y="950" width="108.52" height="42" as="geometry" />
        </mxCell>
        <mxCell id="qK7P-8Lu3oddX9ztJ0Ts-37" value="Cloud GHE" style="text;html=1;strokeColor=none;fillColor=none;align=center;verticalAlign=middle;whiteSpace=wrap;rounded=0;fontSize=14;fontFamily=IBM Plex Sans;fontSource=fonts%2FIBMPlexSans-Regular.woff;" parent="bQxnhAWywP4pUUYXjwK0-8" vertex="1">
          <mxGeometry x="331.7399999999998" y="1240" width="108.52" height="42" as="geometry" />
        </mxCell>
        <mxCell id="CTs-Wv3J004sUVuDb8Zz-25" style="edgeStyle=orthogonalEdgeStyle;rounded=0;orthogonalLoop=1;jettySize=auto;html=1;entryX=0.5;entryY=0;entryDx=0;entryDy=0;startArrow=oval;startFill=1;" parent="1" target="qK7P-8Lu3oddX9ztJ0Ts-15" edge="1">
          <mxGeometry relative="1" as="geometry">
            <mxPoint x="-7805" y="-6994" as="sourcePoint" />
            <mxPoint x="-7728" y="-6242" as="targetPoint" />
          </mxGeometry>
        </mxCell>
        <mxCell id="CTs-Wv3J004sUVuDb8Zz-21" style="edgeStyle=orthogonalEdgeStyle;rounded=0;orthogonalLoop=1;jettySize=auto;html=1;entryX=0.5;entryY=0;entryDx=0;entryDy=0;startArrow=oval;startFill=1;entryPerimeter=0;" parent="1" target="bQxnhAWywP4pUUYXjwK0-43" edge="1">
          <mxGeometry relative="1" as="geometry">
            <mxPoint x="-7481" y="-6960" as="sourcePoint" />
            <mxPoint x="-7480.805" y="-6860" as="targetPoint" />
          </mxGeometry>
        </mxCell>
        <mxCell id="lcNu0IvZOWlpeHzhZCPy-27" style="edgeStyle=orthogonalEdgeStyle;rounded=0;orthogonalLoop=1;jettySize=auto;html=1;entryX=0.5;entryY=0;entryDx=0;entryDy=0;startArrow=oval;startFill=1;endArrow=classic;endFill=1;" parent="1" target="bQxnhAWywP4pUUYXjwK0-35" edge="1">
          <mxGeometry relative="1" as="geometry">
            <mxPoint x="-6752" y="-6977" as="sourcePoint" />
            <mxPoint x="-6716" y="-6720" as="targetPoint" />
          </mxGeometry>
        </mxCell>
        <mxCell id="lcNu0IvZOWlpeHzhZCPy-29" style="edgeStyle=orthogonalEdgeStyle;rounded=0;jumpStyle=arc;orthogonalLoop=1;jettySize=auto;html=1;startArrow=classic;startFill=1;endArrow=none;endFill=0;exitX=0.5;exitY=1;exitDx=0;exitDy=0;" parent="1" source="qK7P-8Lu3oddX9ztJ0Ts-11" edge="1">
          <mxGeometry relative="1" as="geometry">
            <mxPoint x="-7140" y="-6310" as="targetPoint" />
            <mxPoint x="-7230" y="-6360" as="sourcePoint" />
            <Array as="points">
              <mxPoint x="-7255" y="-6310" />
            </Array>
          </mxGeometry>
        </mxCell>
        <mxCell id="V16bP-nAvZ314Hl0q1-V-10" style="edgeStyle=none;curved=1;rounded=0;orthogonalLoop=1;jettySize=auto;html=1;exitX=0.4999999999999999;exitY=1;exitDx=0;exitDy=0;exitPerimeter=0;entryX=0.5;entryY=0;entryDx=0;entryDy=0;endArrow=classic;startSize=6;endSize=6;sourcePerimeterSpacing=8;targetPerimeterSpacing=8;startArrow=oval;startFill=1;endFill=1;" parent="1" target="qK7P-8Lu3oddX9ztJ0Ts-17" edge="1">
          <mxGeometry relative="1" as="geometry">
            <mxPoint x="-6477.25" y="-6972" as="sourcePoint" />
            <mxPoint x="-6479.995" y="-6720" as="targetPoint" />
          </mxGeometry>
        </mxCell>
        <mxCell id="lcNu0IvZOWlpeHzhZCPy-12" style="edgeStyle=orthogonalEdgeStyle;rounded=0;orthogonalLoop=1;jettySize=auto;html=1;exitX=1;exitY=0.5;exitDx=0;exitDy=0;entryX=0;entryY=0.5;entryDx=0;entryDy=0;startArrow=classic;startFill=1;endArrow=oval;endFill=1;" parent="1" source="qK7P-8Lu3oddX9ztJ0Ts-1" target="waI4hvnf7LsabYLLWTcf-19" edge="1">
          <mxGeometry relative="1" as="geometry">
            <mxPoint x="-7085.46" y="-6175" as="sourcePoint" />
            <mxPoint x="-6833" y="-6176" as="targetPoint" />
          </mxGeometry>
        </mxCell>
        <mxCell id="bQxnhAWywP4pUUYXjwK0-1" value="Developer" style="shape=image;aspect=fixed;image=data:image/svg+xml,PHN2ZyBpZD0iTGF5ZXJfMSIgZGF0YS1uYW1lPSJMYXllciAxIiB4bWxucz0iaHR0cDovL3d3dy53My5vcmcvMjAwMC9zdmciIHZpZXdCb3g9IjAgMCA0OSA0OSI+PGRlZnM+PHN0eWxlPi5jbHMtMXtmaWxsOm5vbmU7fS5jbHMtMntmaWxsOiNmZmY7ZmlsbC1ydWxlOmV2ZW5vZGQ7fTwvc3R5bGU+PC9kZWZzPjxyZWN0IHg9IjAuNSIgeT0iMC41IiB3aWR0aD0iNDgiIGhlaWdodD0iNDgiIHJ4PSIyNCIvPjxyZWN0IGNsYXNzPSJjbHMtMSIgeD0iMTQuNSIgeT0iMTQuNSIgd2lkdGg9IjIwIiBoZWlnaHQ9IjIwIi8+PHBhdGggaWQ9IkZpbGwtMyIgY2xhc3M9ImNscy0yIiBkPSJNMzAuOCwzMy44N0gyOVYyOS41OUEyLjYzLDIuNjMsMCwwLDAsMjYuMywyN0gyMi43QTIuNjMsMi42MywwLDAsMCwyMCwyOS41OXY0LjI4SDE4LjJWMjkuNTlhNC40MSw0LjQxLDAsMCwxLDQuNS00LjI4aDMuNmE0LjQxLDQuNDEsMCwwLDEsNC41LDQuMjhaIi8+PHBhdGggaWQ9IkZpbGwtNSIgY2xhc3M9ImNscy0yIiBkPSJNMjQuNSwxNS4wNUE0LjM5LDQuMzksMCwwLDAsMjAsMTkuMzNhNC41MSw0LjUxLDAsMCwwLDksMCw0LjM5LDQuMzksMCwwLDAtNC41LTQuMjhtMCwxLjcxYTIuNTcsMi41NywwLDEsMS0yLjcsMi41NywyLjY0LDIuNjQsMCwwLDEsMi43LTIuNTciLz48L3N2Zz4=;fontFamily=IBM Plex Sans;fontSource=fonts%2FIBMPlexSans-Regular.woff;fontSize=14;labelPosition=center;verticalLabelPosition=bottom;align=center;verticalAlign=top;spacingTop=-7;" parent="1" vertex="1">
          <mxGeometry x="-7828" y="-7060" width="48" height="48" as="geometry" />
        </mxCell>
        <mxCell id="bQxnhAWywP4pUUYXjwK0-2" value="Service &#xa;Change &#xa;Manager" style="shape=image;aspect=fixed;image=data:image/svg+xml,PHN2ZyBpZD0iTGF5ZXJfMSIgZGF0YS1uYW1lPSJMYXllciAxIiB4bWxucz0iaHR0cDovL3d3dy53My5vcmcvMjAwMC9zdmciIHZpZXdCb3g9IjAgMCA0OSA0OSI+PGRlZnM+PHN0eWxlPi5jbHMtMXtmaWxsOm5vbmU7fS5jbHMtMntmaWxsOiNmZmY7ZmlsbC1ydWxlOmV2ZW5vZGQ7fTwvc3R5bGU+PC9kZWZzPjxyZWN0IHg9IjAuNSIgeT0iMC41IiB3aWR0aD0iNDgiIGhlaWdodD0iNDgiIHJ4PSIyNCIvPjxyZWN0IGNsYXNzPSJjbHMtMSIgeD0iMTQuNSIgeT0iMTQuNSIgd2lkdGg9IjIwIiBoZWlnaHQ9IjIwIi8+PHBhdGggaWQ9IkZpbGwtMyIgY2xhc3M9ImNscy0yIiBkPSJNMzAuOCwzMy44N0gyOVYyOS41OUEyLjYzLDIuNjMsMCwwLDAsMjYuMywyN0gyMi43QTIuNjMsMi42MywwLDAsMCwyMCwyOS41OXY0LjI4SDE4LjJWMjkuNTlhNC40MSw0LjQxLDAsMCwxLDQuNS00LjI4aDMuNmE0LjQxLDQuNDEsMCwwLDEsNC41LDQuMjhaIi8+PHBhdGggaWQ9IkZpbGwtNSIgY2xhc3M9ImNscy0yIiBkPSJNMjQuNSwxNS4wNUE0LjM5LDQuMzksMCwwLDAsMjAsMTkuMzNhNC41MSw0LjUxLDAsMCwwLDksMCw0LjM5LDQuMzksMCwwLDAtNC41LTQuMjhtMCwxLjcxYTIuNTcsMi41NywwLDEsMS0yLjcsMi41NywyLjY0LDIuNjQsMCwwLDEsMi43LTIuNTciLz48L3N2Zz4=;fontFamily=IBM Plex Sans;fontSource=fonts%2FIBMPlexSans-Regular.woff;fontSize=14;labelPosition=center;verticalLabelPosition=bottom;align=center;verticalAlign=top;spacingTop=-7;" parent="1" vertex="1">
          <mxGeometry x="-7504.8" y="-7060" width="48" height="48" as="geometry" />
        </mxCell>
        <mxCell id="bQxnhAWywP4pUUYXjwK0-3" value="Client &#xa;User" style="shape=image;aspect=fixed;image=data:image/svg+xml,PHN2ZyBpZD0iTGF5ZXJfMSIgZGF0YS1uYW1lPSJMYXllciAxIiB4bWxucz0iaHR0cDovL3d3dy53My5vcmcvMjAwMC9zdmciIHZpZXdCb3g9IjAgMCA0OSA0OSI+PGRlZnM+PHN0eWxlPi5jbHMtMXtmaWxsOm5vbmU7fS5jbHMtMntmaWxsOiNmZmY7ZmlsbC1ydWxlOmV2ZW5vZGQ7fTwvc3R5bGU+PC9kZWZzPjxyZWN0IHg9IjAuNSIgeT0iMC41IiB3aWR0aD0iNDgiIGhlaWdodD0iNDgiIHJ4PSIyNCIvPjxyZWN0IGNsYXNzPSJjbHMtMSIgeD0iMTQuNSIgeT0iMTQuNSIgd2lkdGg9IjIwIiBoZWlnaHQ9IjIwIi8+PHBhdGggaWQ9IkZpbGwtMyIgY2xhc3M9ImNscy0yIiBkPSJNMzAuOCwzMy44N0gyOVYyOS41OUEyLjYzLDIuNjMsMCwwLDAsMjYuMywyN0gyMi43QTIuNjMsMi42MywwLDAsMCwyMCwyOS41OXY0LjI4SDE4LjJWMjkuNTlhNC40MSw0LjQxLDAsMCwxLDQuNS00LjI4aDMuNmE0LjQxLDQuNDEsMCwwLDEsNC41LDQuMjhaIi8+PHBhdGggaWQ9IkZpbGwtNSIgY2xhc3M9ImNscy0yIiBkPSJNMjQuNSwxNS4wNUE0LjM5LDQuMzksMCwwLDAsMjAsMTkuMzNhNC41MSw0LjUxLDAsMCwwLDksMCw0LjM5LDQuMzksMCwwLDAtNC41LTQuMjhtMCwxLjcxYTIuNTcsMi41NywwLDEsMS0yLjcsMi41NywyLjY0LDIuNjQsMCwwLDEsMi43LTIuNTciLz48L3N2Zz4=;fontFamily=IBM Plex Sans;fontSource=fonts%2FIBMPlexSans-Regular.woff;fontSize=14;labelPosition=center;verticalLabelPosition=bottom;align=center;verticalAlign=top;spacingTop=-7;" parent="1" vertex="1">
          <mxGeometry x="-6776.25" y="-7060" width="48" height="48" as="geometry" />
        </mxCell>
        <mxCell id="bQxnhAWywP4pUUYXjwK0-27" style="edgeStyle=orthogonalEdgeStyle;rounded=0;orthogonalLoop=1;jettySize=auto;html=1;fontFamily=IBM Plex Sans;fontSource=fonts%2FIBMPlexSans-Regular.woff;fontSize=14;startArrow=oval;startFill=1;endArrow=classic;endFill=1;startSize=6;endSize=6;entryX=0.5;entryY=0;entryDx=0;entryDy=0;entryPerimeter=0;" parent="1" target="bQxnhAWywP4pUUYXjwK0-49" edge="1">
          <mxGeometry relative="1" as="geometry">
            <mxPoint x="-6246.795" y="-6870" as="targetPoint" />
            <mxPoint x="-6247" y="-6957" as="sourcePoint" />
          </mxGeometry>
        </mxCell>
        <mxCell id="bQxnhAWywP4pUUYXjwK0-6" value="Service &#xa;Change &#xa;Manager" style="shape=image;aspect=fixed;image=data:image/svg+xml,PHN2ZyBpZD0iTGF5ZXJfMSIgZGF0YS1uYW1lPSJMYXllciAxIiB4bWxucz0iaHR0cDovL3d3dy53My5vcmcvMjAwMC9zdmciIHZpZXdCb3g9IjAgMCA0OSA0OSI+PGRlZnM+PHN0eWxlPi5jbHMtMXtmaWxsOm5vbmU7fS5jbHMtMntmaWxsOiNmZmY7ZmlsbC1ydWxlOmV2ZW5vZGQ7fTwvc3R5bGU+PC9kZWZzPjxyZWN0IHg9IjAuNSIgeT0iMC41IiB3aWR0aD0iNDgiIGhlaWdodD0iNDgiIHJ4PSIyNCIvPjxyZWN0IGNsYXNzPSJjbHMtMSIgeD0iMTQuNSIgeT0iMTQuNSIgd2lkdGg9IjIwIiBoZWlnaHQ9IjIwIi8+PHBhdGggaWQ9IkZpbGwtMyIgY2xhc3M9ImNscy0yIiBkPSJNMzAuOCwzMy44N0gyOVYyOS41OUEyLjYzLDIuNjMsMCwwLDAsMjYuMywyN0gyMi43QTIuNjMsMi42MywwLDAsMCwyMCwyOS41OXY0LjI4SDE4LjJWMjkuNTlhNC40MSw0LjQxLDAsMCwxLDQuNS00LjI4aDMuNmE0LjQxLDQuNDEsMCwwLDEsNC41LDQuMjhaIi8+PHBhdGggaWQ9IkZpbGwtNSIgY2xhc3M9ImNscy0yIiBkPSJNMjQuNSwxNS4wNUE0LjM5LDQuMzksMCwwLDAsMjAsMTkuMzNhNC41MSw0LjUxLDAsMCwwLDksMCw0LjM5LDQuMzksMCwwLDAtNC41LTQuMjhtMCwxLjcxYTIuNTcsMi41NywwLDEsMS0yLjcsMi41NywyLjY0LDIuNjQsMCwwLDEsMi43LTIuNTciLz48L3N2Zz4=;fontFamily=IBM Plex Sans;fontSource=fonts%2FIBMPlexSans-Regular.woff;fontSize=14;labelPosition=center;verticalLabelPosition=bottom;align=center;verticalAlign=top;spacingTop=-7;" parent="1" vertex="1">
          <mxGeometry x="-6270.5" y="-7060" width="48" height="48" as="geometry" />
        </mxCell>
        <mxCell id="bQxnhAWywP4pUUYXjwK0-7" value="Client &#xa;User" style="shape=image;aspect=fixed;image=data:image/svg+xml,PHN2ZyBpZD0iTGF5ZXJfMSIgZGF0YS1uYW1lPSJMYXllciAxIiB4bWxucz0iaHR0cDovL3d3dy53My5vcmcvMjAwMC9zdmciIHZpZXdCb3g9IjAgMCA0OSA0OSI+PGRlZnM+PHN0eWxlPi5jbHMtMXtmaWxsOm5vbmU7fS5jbHMtMntmaWxsOiNmZmY7ZmlsbC1ydWxlOmV2ZW5vZGQ7fTwvc3R5bGU+PC9kZWZzPjxyZWN0IHg9IjAuNSIgeT0iMC41IiB3aWR0aD0iNDgiIGhlaWdodD0iNDgiIHJ4PSIyNCIvPjxyZWN0IGNsYXNzPSJjbHMtMSIgeD0iMTQuNSIgeT0iMTQuNSIgd2lkdGg9IjIwIiBoZWlnaHQ9IjIwIi8+PHBhdGggaWQ9IkZpbGwtMyIgY2xhc3M9ImNscy0yIiBkPSJNMzAuOCwzMy44N0gyOVYyOS41OUEyLjYzLDIuNjMsMCwwLDAsMjYuMywyN0gyMi43QTIuNjMsMi42MywwLDAsMCwyMCwyOS41OXY0LjI4SDE4LjJWMjkuNTlhNC40MSw0LjQxLDAsMCwxLDQuNS00LjI4aDMuNmE0LjQxLDQuNDEsMCwwLDEsNC41LDQuMjhaIi8+PHBhdGggaWQ9IkZpbGwtNSIgY2xhc3M9ImNscy0yIiBkPSJNMjQuNSwxNS4wNUE0LjM5LDQuMzksMCwwLDAsMjAsMTkuMzNhNC41MSw0LjUxLDAsMCwwLDksMCw0LjM5LDQuMzksMCwwLDAtNC41LTQuMjhtMCwxLjcxYTIuNTcsMi41NywwLDEsMS0yLjcsMi41NywyLjY0LDIuNjQsMCwwLDEsMi43LTIuNTciLz48L3N2Zz4=;fontFamily=IBM Plex Sans;fontSource=fonts%2FIBMPlexSans-Regular.woff;fontSize=14;labelPosition=center;verticalLabelPosition=bottom;align=center;verticalAlign=top;spacingTop=-7;" parent="1" vertex="1">
          <mxGeometry x="-6501.25" y="-7060" width="48" height="48" as="geometry" />
        </mxCell>
        <mxCell id="bQxnhAWywP4pUUYXjwK0-60" style="edgeStyle=orthogonalEdgeStyle;rounded=0;jumpStyle=arc;orthogonalLoop=1;jettySize=auto;html=1;exitX=0.6;exitY=0;exitDx=0;exitDy=0;exitPerimeter=0;entryX=0.5;entryY=0;entryDx=0;entryDy=0;entryPerimeter=0;fontFamily=IBM Plex Sans;fontSource=fonts%2FIBMPlexSans-Regular.woff;fontSize=9;startArrow=oval;startFill=1;endArrow=classic;endFill=1;startSize=6;endSize=6;" parent="1" source="qK7P-8Lu3oddX9ztJ0Ts-22" target="qK7P-8Lu3oddX9ztJ0Ts-23" edge="1">
          <mxGeometry relative="1" as="geometry">
            <Array as="points">
              <mxPoint x="-7470" y="-6310" />
              <mxPoint x="-6484" y="-6310" />
            </Array>
          </mxGeometry>
        </mxCell>
        <mxCell id="bQxnhAWywP4pUUYXjwK0-61" style="edgeStyle=orthogonalEdgeStyle;rounded=0;jumpStyle=arc;orthogonalLoop=1;jettySize=auto;html=1;exitX=0.6;exitY=0;exitDx=0;exitDy=0;exitPerimeter=0;entryX=0.6;entryY=0;entryDx=0;entryDy=0;fontFamily=IBM Plex Sans;fontSource=fonts%2FIBMPlexSans-Regular.woff;fontSize=9;startArrow=oval;startFill=1;endArrow=classic;endFill=1;startSize=6;endSize=6;entryPerimeter=0;" parent="1" source="qK7P-8Lu3oddX9ztJ0Ts-22" target="waI4hvnf7LsabYLLWTcf-19" edge="1">
          <mxGeometry relative="1" as="geometry">
            <Array as="points">
              <mxPoint x="-7470" y="-6310" />
              <mxPoint x="-6843" y="-6310" />
            </Array>
            <mxPoint x="-6761.5" y="-6200" as="targetPoint" />
          </mxGeometry>
        </mxCell>
        <mxCell id="CTs-Wv3J004sUVuDb8Zz-27" style="edgeStyle=orthogonalEdgeStyle;rounded=0;orthogonalLoop=1;jettySize=auto;html=1;exitX=0;exitY=0.5;exitDx=0;exitDy=0;endArrow=oval;endFill=1;startArrow=classic;startFill=1;entryX=1;entryY=0.5;entryDx=0;entryDy=0;exitPerimeter=0;" parent="1" source="qK7P-8Lu3oddX9ztJ0Ts-22" target="bQxnhAWywP4pUUYXjwK0-1" edge="1">
          <mxGeometry relative="1" as="geometry">
            <mxPoint x="-7644" y="-6875.215390309173" as="targetPoint" />
            <Array as="points">
              <mxPoint x="-7650" y="-6175" />
              <mxPoint x="-7650" y="-7036" />
            </Array>
            <mxPoint x="-7391" y="-6259.98" as="sourcePoint" />
          </mxGeometry>
        </mxCell>
        <mxCell id="bQxnhAWywP4pUUYXjwK0-44" value="" style="group;fontFamily=IBM Plex Sans;fontSource=fonts%2FIBMPlexSans-Regular.woff;fontSize=14;" parent="1" vertex="1" connectable="0">
          <mxGeometry x="-7580" y="-6900" width="198.40999999999997" height="130" as="geometry" />
        </mxCell>
        <mxCell id="bQxnhAWywP4pUUYXjwK0-43" value="ITSM&#xa;(Service)" style="shape=image;aspect=fixed;image=data:image/svg+xml,PD94bWwgdmVyc2lvbj0iMS4wIiBlbmNvZGluZz0iVVRGLTgiPz4KPHN2ZyB3aWR0aD0iMTQ1NnB4IiBoZWlnaHQ9Ijk1NHB4IiB2aWV3Qm94PSIwIDAgMTQ1NiA5NTQiIHZlcnNpb249IjEuMSIgeG1sbnM9Imh0dHA6Ly93d3cudzMub3JnLzIwMDAvc3ZnIiB4bWxuczp4bGluaz0iaHR0cDovL3d3dy53My5vcmcvMTk5OS94bGluayI+CiAgICA8dGl0bGU+SVRTTSBHcm91cDwvdGl0bGU+CiAgICA8ZyBpZD0iUGFnZS0xIiBzdHJva2U9Im5vbmUiIHN0cm9rZS13aWR0aD0iMSIgZmlsbD0ibm9uZSIgZmlsbC1ydWxlPSJldmVub2RkIj4KICAgICAgICA8ZyBpZD0iSVRTTS1Hcm91cCIgdHJhbnNmb3JtPSJ0cmFuc2xhdGUoMS41MDAwMDAsIDQuMDAwMDAwKSI+CiAgICAgICAgICAgIDxnIGlkPSJNYWdlbnRhLUdyb3VwIj4KICAgICAgICAgICAgICAgIDxwYXRoIGQ9Ik00Ni4zODkxMzYxLDk0NS4zNTYyMTQgQzIyLjY1OTg4MSw5NDUuMzU2MjE0IDMuMjQ1MzgyOTgsOTI1Ljk0MTMzNCAzLjI0NTM4Mjk4LDkwMi4yMTE2OTggTDMuMjQ1MzgyOTgsNDMuMzM2ODEzOSBDMy4yNDUzODI5OCwxOS42MDcxNzcgMjIuNjU5ODgxLDAuMTkyMjk3MjE3IDQ2LjM4OTEzNjEsMC4xOTIyOTcyMTcgTDE0MDYuODI4NzYsMC4xOTIyOTcyMTcgQzE0MzAuNTU4MDIsMC4xOTIyOTcyMTcgMTQ0OS45NzMyOCwxOS42MDcxNzcgMTQ0OS45NzMyOCw0My4zMzY4MTM5IEwxNDQ5Ljk3MzI4LDkwMi4yMTE2OTggQzE0NDkuOTczMjgsOTI1Ljk0MTMzNCAxNDMwLjU1ODAyLDk0NS4zNTYyMTQgMTQwNi44Mjg3Niw5NDUuMzU2MjE0IEw0Ni4zODkxMzYxLDk0NS4zNTYyMTQgWiIgaWQ9IkZpbGwtMSIgZmlsbD0iI0ZGRkZGRiI+PC9wYXRoPgogICAgICAgICAgICAgICAgPHBhdGggZD0iTTE0MDYuODI4NzYsOTQ1LjM1NjIxNCBMNDYuMzg5MTM2MSw5NDUuMzU2MjE0IEMyMi42NTk4ODEsOTQ1LjM1NjIxNCAzLjI0NTM4Mjk4LDkyNS45NDEzMzQgMy4yNDUzODI5OCw5MDIuMjExNjk4IEwzLjI0NTM4Mjk4LDQzLjMzNjgxMzkgQzMuMjQ1MzgyOTgsMTkuNjA3MTc3IDIyLjY1OTg4MSwwLjE5MjI5NzIxNyA0Ni4zODkxMzYxLDAuMTkyMjk3MjE3IEwxNDA2LjgyODc2LDAuMTkyMjk3MjE3IEMxNDMwLjU1ODAyLDAuMTkyMjk3MjE3IDE0NDkuOTczMjgsMTkuNjA3MTc3IDE0NDkuOTczMjgsNDMuMzM2ODEzOSBMMTQ0OS45NzMyOCw5MDIuMjExNjk4IEMxNDQ5Ljk3MzI4LDkyNS45NDEzMzQgMTQzMC41NTgwMiw5NDUuMzU2MjE0IDE0MDYuODI4NzYsOTQ1LjM1NjIxNCBaIiBpZD0iU3Ryb2tlLTMiIHN0cm9rZT0iIzAwOUQ5QSIgc3Ryb2tlLXdpZHRoPSI4Ij48L3BhdGg+CiAgICAgICAgICAgICAgICA8cGF0aCBkPSJNMS4wNzE2MDg3MiwzMzguODM1NDg0IEMwLjYxMTU5NjgwMiwzMzguODM1NDg0IDAuMjM1Mzk4OTc1LDMzOC40NjU2MzQgMC4yMzUzOTg5NzUsMzM4LjAxMzc2NCBMMC4yMzUzOTg5NzUsNTMuNTUzNTkzNCBDMC4yMzUzOTg5NzUsMjQuMjA0ODIzNSAyNC42NjA0NDg1LDAuMTkyMjk3MjE3IDU0LjUxMjk0MzQsMC4xOTIyOTcyMTcgTDM1MS40NjMxOTIsMC4xOTIyOTcyMTcgTDM1MS40NjMxOTIsMzM4LjAxMzc2NCBDMzUxLjQ2MzE5MiwzMzguNDY1NjM0IDM1MS4wODY5OTQsMzM4LjgzNTQ4NCAzNTAuNjI3MzY4LDMzOC44MzU0ODQgTDEuMDcxNjA4NzIsMzM4LjgzNTQ4NCBaIiBpZD0iRmlsbC01IiBmaWxsPSIjMDA5RDlBIj48L3BhdGg+CiAgICAgICAgICAgICAgICA8bGluZSB4MT0iMy4wNTQxNTQ3MiIgeTE9IjM0Mi4zODM3MjEiIHgyPSIxNDQ5LjA5NTAyIiB5Mj0iMzQyLjM4MzcyMSIgaWQ9IlBhdGgtMiIgc3Ryb2tlPSIjNjZFOEU2IiBzdHJva2Utd2lkdGg9IjEyIj48L2xpbmU+CiAgICAgICAgICAgIDwvZz4KICAgICAgICAgICAgPGcgaWQ9Ikdyb3VwLTYiIHRyYW5zZm9ybT0idHJhbnNsYXRlKDcyLjUwMDAwMCwgODguMDAwMDAwKSIgZmlsbD0iI0ZGRkZGRiI+CiAgICAgICAgICAgICAgICA8cGF0aCBkPSJNMTUyLjI5MTU4OCw2Mi43MDMyMzUgTDE1OS43NDY2NSw2NC4wNTc2OTUxIEMxNjUuNzg3NzEzLDY1LjAzODcyOTMgMTcxLjQ4MTU4OCw2Ny41MzI0NTQ5IDE3Ni4zMTA2NSw3MS4yOTgzNjAzIEMxODUuNDU3NDYzLDc4LjU4MzMzMDQgMTkwLjI2NzU4OCw5MC4wNDU2MDczIDE4OS4wNjgyMTMsMTAxLjY5Nzc2MiBMMjAxLjg3NjI3NSwxMDEuNjk3NzYyIEMyMDMuNDkyMjc1LDc3LjU3Njk3OTEgMTg2Ljc3Njc3NSw1Ni4wOTU0OTUgMTYzLjA1NDQsNTEuNzkxNjAzIEMxNTguMTY4NTI1LDI2LjM1NDMzNTggMTM4LjMxNTcxMyw2LjQ2MTQ5NDEzIDExMi45Mzk0NjMsMS41NzUzMTA5MyBDNzguNzA2Nzc1LC01LjA1Nzc0NjA1IDQ1LjU4NTA4NzUsMTcuMzk4NDQzMSAzOC45Njk1ODc1LDUxLjcyODMxMDUgQzM4Ljk2OTU4NzUsNTEuNzQ3Mjk4MyAzOC45NjMyNzUsNTEuNzcyNjE1MyAzOC45NTY5NjI1LDUxLjc5MTYwMyBDMTQuMjQ5ODM3NSw1Ni4yNjYzODQ4IC0yLjY4NjYsNzkuMjkyMjA2NyAwLjM0OTcxMjUsMTA0LjI4MDA5NyBDMy44MTUyNzUsMTI4LjQ4MzE2IDI0LjY2NTQ2MjUsMTQ2LjM0NDMxMSA0OS4wNTA2NSwxNDYuMDAyNTMyIEw4OC4zNjQ5LDE0Ni4wMDI1MzIgTDg4LjM2NDksMTMzLjM0NDAyNiBMNDguNTc3MjEyNSwxMzMuMzQ0MDI2IEMzMS41MjcxNSwxMzMuNjA5ODU1IDE2LjY4NjQ2MjUsMTIxLjY5MTg3MiAxMy4yMTQ1ODc1LDEwNC45NTA5OTggQzkuNjg1OSw4Ni4wMjY1MzE3IDIyLjEyNzgzNzUsNjcuODIzNjAwNSA0MC45OTU5LDY0LjI4NTU0ODIgQzQxLjA2NTMzNzUsNjQuMjcyODg5NyA0MS4xMzQ3NzUsNjQuMjYwMjMxMiA0MS4yMDQyMTI1LDY0LjI0NzU3MjYgTDQ5LjcxOTc3NSw2Mi43MDMyMzUgTDUxLjA3MDY1LDU1LjY3Nzc2NDMgQzU0Ljk1MjgzNzUsMzQuMDQ0Mzc4IDcxLjk5NjU4NzUsMTcuMjA4NTY1NSA5My42Mjk1MjUsMTMuNjMyNTM3NiBDOTkuOTY3Mjc1LDEyLjY5NTgwODIgMTA2LjQyNDk2MywxMi45NzQyOTUzIDExMi42NTU0LDE0LjQ1NTM0MDUgQzEzMi4yODcyNzUsMTkuMzM1MTk0NCAxNDcuMjQxNTg4LDM1LjMwMzg5OTQgMTUwLjg2NDk2Myw1NS4yNjAwMzM2IEwxNTIuMjkxNTg4LDYyLjcwMzIzNSBaIiBpZD0iRmlsbC0xIj48L3BhdGg+CiAgICAgICAgICAgICAgICA8cGF0aCBkPSJNMTUxLDE1MS44NTcxNDMgQzE0MC41ODQ1NzEsMTUxLjg1NzE0MyAxMzIuMTQyODU3LDE0My40MTU0MjkgMTMyLjE0Mjg1NywxMzMgQzEzMi4xNDI4NTcsMTIyLjU4NDU3MSAxNDAuNTg0NTcxLDExNC4xNDI4NTcgMTUxLDExNC4xNDI4NTcgQzE2MS40MTU0MjksMTE0LjE0Mjg1NyAxNjkuODU3MTQzLDEyMi41ODQ1NzEgMTY5Ljg1NzE0MywxMzMgQzE2OS44NDQ1NzEsMTQzLjQwOTE0MyAxNjEuNDA5MTQzLDE1MS44NDQ1NzEgMTUxLDE1MS44NTcxNDMgTDE1MSwxNTEuODU3MTQzIFogTTE5NSwxMzkuMjg1NzE0IEwxOTUsMTI2LjcxNDI4NiBMMTgxLjc5MzcxNCwxMjYuNzE0Mjg2IEMxODAuOTgyODU3LDEyMi43Nzk0MjkgMTc5LjQxNzcxNCwxMTkuMDM5NDI5IDE3Ny4xOTI1NzEsMTE1LjY5NTQyOSBMMTg2LjU1ODI4NiwxMDYuMzI5NzE0IEwxNzcuNjcwMjg2LDk3LjQ0MTcxNDMgTDE2OC4zMDQ1NzEsMTA2LjgwNzQyOSBDMTY0Ljk2MDU3MSwxMDQuNTgyMjg2IDE2MS4yMjA1NzEsMTAzLjAxNzE0MyAxNTcuMjg1NzE0LDEwMi4yMDYyODYgTDE1Ny4yODU3MTQsODkgTDE0NC43MTQyODYsODkgTDE0NC43MTQyODYsMTAyLjIwNjI4NiBDMTQwLjc3OTQyOSwxMDMuMDE3MTQzIDEzNy4wMzk0MjksMTA0LjU4MjI4NiAxMzMuNjk1NDI5LDEwNi44MDc0MjkgTDEyNC4zMjk3MTQsOTcuNDQxNzE0MyBMMTE1LjQ0MTcxNCwxMDYuMzI5NzE0IEwxMjQuODA3NDI5LDExNS42OTU0MjkgQzEyMi41ODIyODYsMTE5LjAzOTQyOSAxMjEuMDE3MTQzLDEyMi43Nzk0MjkgMTIwLjIwNjI4NiwxMjYuNzE0Mjg2IEwxMDcsMTI2LjcxNDI4NiBMMTA3LDEzOS4yODU3MTQgTDEyMC4yMDYyODYsMTM5LjI4NTcxNCBDMTIxLjAxNzE0MywxNDMuMjIwNTcxIDEyMi41ODIyODYsMTQ2Ljk2MDU3MSAxMjQuODA3NDI5LDE1MC4zMDQ1NzEgTDExNS40NDE3MTQsMTU5LjY3MDI4NiBMMTI0LjMyOTcxNCwxNjguNTU4Mjg2IEwxMzMuNjk1NDI5LDE1OS4xOTI1NzEgQzEzNy4wMzk0MjksMTYxLjQxNzcxNCAxNDAuNzc5NDI5LDE2Mi45ODI4NTcgMTQ0LjcxNDI4NiwxNjMuNzkzNzE0IEwxNDQuNzE0Mjg2LDE3NyBMMTU3LjI4NTcxNCwxNzcgTDE1Ny4yODU3MTQsMTYzLjc5MzcxNCBDMTYxLjIyMDU3MSwxNjIuOTgyODU3IDE2NC45NjA1NzEsMTYxLjQxNzcxNCAxNjguMzA0NTcxLDE1OS4xOTI1NzEgTDE3Ny42NzAyODYsMTY4LjU1ODI4NiBMMTg2LjU1ODI4NiwxNTkuNjcwMjg2IEwxNzcuMTkyNTcxLDE1MC4zMDQ1NzEgQzE3OS40MTc3MTQsMTQ2Ljk2MDU3MSAxODAuOTgyODU3LDE0My4yMjA1NzEgMTgxLjc5MzcxNCwxMzkuMjg1NzE0IEwxOTUsMTM5LjI4NTcxNCBaIiBpZD0iRmlsbC00Ij48L3BhdGg+CiAgICAgICAgICAgIDwvZz4KICAgICAgICA8L2c+CiAgICA8L2c+Cjwvc3ZnPg==;spacingBottom=89;spacingLeft=-33;points=[[0,0,0,0,0],[0,0.25,0,0,0],[0,0.5,0,0,0],[0,0.75,0,0,0],[0,1,0,0,0],[0.25,0,0,0,0],[0.45,1,0,0,0],[0.5,0,0,0,0],[0.55,1,0,0,0],[0.75,0,0,0,0],[1,0,0,0,0],[1,0.25,0,0,0],[1,0.5,0,0,0],[1,0.75,0,0,0]];fontSize=14;fontFamily=IBM Plex Sans;fontSource=fonts%2FIBMPlexSans-Regular.woff;" parent="bQxnhAWywP4pUUYXjwK0-44" vertex="1">
          <mxGeometry width="198.41" height="130" as="geometry" />
        </mxCell>
        <mxCell id="CTs-Wv3J004sUVuDb8Zz-10" value="IT Service Management &lt;br&gt;Change&lt;br&gt;ServiceNow Service" style="text;html=1;strokeColor=none;fillColor=none;align=center;verticalAlign=middle;whiteSpace=wrap;rounded=0;fontSize=14;fontFamily=IBM Plex Sans;fontSource=fonts%2FIBMPlexSans-Regular.woff;" parent="bQxnhAWywP4pUUYXjwK0-44" vertex="1">
          <mxGeometry x="21.19999999999999" y="52" width="160" height="70" as="geometry" />
        </mxCell>
        <mxCell id="waI4hvnf7LsabYLLWTcf-1" value="" style="group" parent="1" vertex="1" connectable="0">
          <mxGeometry x="-7361" y="-6720" width="204" height="135" as="geometry" />
        </mxCell>
        <mxCell id="bQxnhAWywP4pUUYXjwK0-66" value="Test Service&#xa;(Service)" style="shape=image;image=data:image/svg+xml,PD94bWwgdmVyc2lvbj0iMS4wIiBlbmNvZGluZz0iVVRGLTgiPz4KPHN2ZyB3aWR0aD0iMzgwN3B4IiBoZWlnaHQ9IjI0OTRweCIgdmlld0JveD0iMCAwIDM4MDcgMjQ5NCIgdmVyc2lvbj0iMS4xIiB4bWxucz0iaHR0cDovL3d3dy53My5vcmcvMjAwMC9zdmciIHhtbG5zOnhsaW5rPSJodHRwOi8vd3d3LnczLm9yZy8xOTk5L3hsaW5rIj4KICAgIDx0aXRsZT5TZXJ2aWNlcyBHcm91cCBNYWdlbnRhIENvcHk8L3RpdGxlPgogICAgPGcgaWQ9IlBhZ2UtMSIgc3Ryb2tlPSJub25lIiBzdHJva2Utd2lkdGg9IjEiIGZpbGw9Im5vbmUiIGZpbGwtcnVsZT0iZXZlbm9kZCI+CiAgICAgICAgPGcgaWQ9IlNlcnZpY2VzLUdyb3VwLU1hZ2VudGEtQ29weSIgdHJhbnNmb3JtPSJ0cmFuc2xhdGUoMC4wMDAwMDAsIDguNzE3MDAwKSI+CiAgICAgICAgICAgIDxnIGlkPSJNYWdlbnRhLUdyb3VwLUNvcHkiPjwvZz4KICAgICAgICAgICAgPHBhdGggZD0iTTM2ODUuMDIyOSwyNDc2LjI0OTcgTDEyMS41MTA5LDI0NzYuMjQ5NyBDNTkuMzU0OSwyNDc2LjI0OTcgOC41MDA5LDI0MjUuMzk0NyA4LjUwMDksMjM2My4yMzc3IEw4LjUwMDksMTEzLjUxNTcgQzguNTAwOSw1MS4zNTg3IDU5LjM1NDksMC41MDM3IDEyMS41MTA5LDAuNTAzNyBMMzY4NS4wMjI5LDAuNTAzNyBDMzc0Ny4xNzg5LDAuNTAzNyAzNzk4LjAzNDksNTEuMzU4NyAzNzk4LjAzNDksMTEzLjUxNTcgTDM3OTguMDM0OSwyMzYzLjIzNzcgQzM3OTguMDM0OSwyNDI1LjM5NDcgMzc0Ny4xNzg5LDI0NzYuMjQ5NyAzNjg1LjAyMjksMjQ3Ni4yNDk3IFoiIGlkPSJTdHJva2UtMyIgc3Ryb2tlPSIjRUQ1NDk2IiBzdHJva2Utd2lkdGg9IjE3IiBmaWxsPSIjRkZGRkZGIj48L3BhdGg+CiAgICAgICAgICAgIDxwYXRoIGQ9Ik05MTguNDI3MjU4LDg4Ny41Mzk4IEwyLjgwNjk1MzM0LDg4Ny41Mzk4IEMxLjYwMjAwNjA4LDg4Ny41Mzk4IDAuNjE2Niw4ODYuNTcxMDIxIDAuNjE2Niw4ODUuMzg3NDAxIEwwLjYxNjYsMTQwLjI3NzM1NSBDMC42MTY2LDYzLjQwMTY5NTcgNjQuNTk1MTUxNywwLjUwMzcgMTQyLjc5MDI2LDAuNTAzNyBMOTIwLjYxNjYsMC41MDM3IEw5MjAuNjE2Niw4ODUuMzg3NDAxIEM5MjAuNjE2Niw4ODYuNTcxMDIxIDkxOS42MzExOTQsODg3LjUzOTggOTE4LjQyNzI1OCw4ODcuNTM5OCIgaWQ9IkZpbGwtNSIgZmlsbD0iI0VENTQ5NiI+PC9wYXRoPgogICAgICAgICAgICA8bGluZSB4MT0iOCIgeTE9Ijg5Ni44MzM5OTEiIHgyPSIzNzk1LjczNDQiIHkyPSI4OTYuODMzOTkxIiBpZD0iUGF0aC0yLUNvcHkiIHN0cm9rZT0iI0ZGRDVFOCIgc3Ryb2tlLXdpZHRoPSIxMiI+PC9saW5lPgogICAgICAgICAgICA8cGF0aCBkPSJNNTE4LjE3NjA3OCwzNTEuODk1NjA3IEM1MzEuNTk1OTMyLDM1MS44OTU2MDcgNTM2LjY1OTA1OCwzNTIuNzk4MDM3IDU0MS42MTc5NDYsMzU1LjQ1MDA4IEM1NDUuNDk3NjU2LDM1Ny41MjQ5NzEgNTQ4LjU0MjQ3NSwzNjAuNTY5NzkgNTUwLjYxNzM2NywzNjQuNDQ5NSBDNTUzLjIyNTA5OSwzNjkuMzI1NTM2IDU1NC4xMzc1OTIsMzc0LjMwMTI0MiA1NTQuMTcxMDcsMzg3LjI5MzAyNCBMNTU0LjE3MTA3LDM4Ny4yOTMwMjQgTDU1NC4xNzEyMzMsNjIwLjQ5MDcwOSBDNTU0LjE0NDUxMSw2MzMuNDY2MzQ3IDU1My4yMjk4MjcsNjM4LjQ1MjM3MSA1NTAuNjE3MzY3LDY0My4zMzcyNDYgQzU0OC41NDcwNDMsNjQ3LjIwODQxNSA1NDUuNTExMDU4LDY1MC4yNDgzNjUgNTQxLjY0MzU1OCw2NTIuMzIyOTQ5IEw1NDEuNjQzNTU4LDY1Mi4zMjI5NDkgTDU0MC43NTQxMjcsNjUyLjc4NDQxNiBDNTM2LjA2MzI2LDY1NS4xMjg1IDUzMC44MDMyMDYsNjU1Ljg5MTEzOSA1MTguMTc2MDc4LDY1NS44OTExMzkgTDUxOC4xNzYwNzgsNjU1Ljg5MTEzOSBMMzM3Ljk5NTc2MSw2NTUuODkxMTM5IEMzMjUuMzU1MzQ4LDY1NS44OTExMzkgMzIwLjA5NzUxOCw2NTUuMTI2ODk0IDMxNS40MDI5MDcsNjUyLjc3NzAxMSBMMzE1LjQwMjkwNyw2NTIuNzc3MDExIEwzMTQuNTE0ODYsNjUyLjMxNTc0NCBDMzEwLjY1Mzc1Nyw2NTAuMjQxMzI5IDMwNy42MjI0MDEsNjQ3LjIwMzkzNiAzMDUuNTU0NDcyLDY0My4zMzcyNDYgQzMwMi45NDY3NCw2MzguNDYxMjExIDMwMi4wMzQyNDcsNjMzLjQ4NTUwNCAzMDIuMDAwNzY5LDYyMC40OTM3MjIgTDMwMi4wMDA3NjksNjIwLjQ5MzcyMiBMMzAyLjAwMDYwNiwzODcuMjk2MDM3IEMzMDIuMDI3MzI4LDM3NC4zMjAzOTkgMzAyLjk0MjAxMywzNjkuMzM0Mzc1IDMwNS41NTQ0NzIsMzY0LjQ0OTUgQzMwNy42MjkzNjQsMzYwLjU2OTc5IDMxMC42NzQxODMsMzU3LjUyNDk3MSAzMTQuNTUzODkzLDM1NS40NTAwOCBDMzE0Ljk2Njc2MSwzNTUuMjI5Mjc1IDMxNS4zNzkwMTMsMzU1LjAxNzQxMSAzMTUuNzk3NDUsMzU0LjgxNTggQzMyMC42NzIyODMsMzUyLjU2MDAwMyAzMjYuMDcwMTU1LDM1MS44OTU2MDcgMzM3Ljk5NTc2MSwzNTEuODk1NjA3IEwzMzcuOTk1NzYxLDM1MS44OTU2MDcgWiIgaWQ9IlJlY3RhbmdsZSIgc3Ryb2tlPSIjRkZGRkZGIiBzdHJva2Utd2lkdGg9IjI4Ij48L3BhdGg+CiAgICAgICAgPC9nPgogICAgPC9nPgo8L3N2Zz4=;align=left;fontFamily=IBM Plex Sans;fontSource=fonts%2FIBMPlexSans-Regular.woff;fontSize=14;spacingBottom=87;spacingRight=4;spacingLeft=54;" parent="waI4hvnf7LsabYLLWTcf-1" vertex="1">
          <mxGeometry width="212" height="134" as="geometry" />
        </mxCell>
        <mxCell id="lcNu0IvZOWlpeHzhZCPy-3" value="Service Published in&amp;nbsp;&lt;br&gt;IBM Cloud Global Catalog" style="text;html=1;strokeColor=none;fillColor=none;align=center;verticalAlign=middle;whiteSpace=wrap;rounded=0;fontSize=14;fontFamily=IBM Plex Sans;fontSource=fonts%2FIBMPlexSans-Regular.woff;" parent="waI4hvnf7LsabYLLWTcf-1" vertex="1">
          <mxGeometry x="26.322580645162212" y="53.18181818181818" width="161.98511166253104" height="71.59090909090908" as="geometry" />
        </mxCell>
        <mxCell id="waI4hvnf7LsabYLLWTcf-3" value="" style="group" parent="1" vertex="1" connectable="0">
          <mxGeometry x="-7113" y="-6720" width="214.74" height="132" as="geometry" />
        </mxCell>
        <mxCell id="waI4hvnf7LsabYLLWTcf-2" value="PreProd Service&#xa;(Service)" style="shape=image;aspect=fixed;image=data:image/svg+xml,PD94bWwgdmVyc2lvbj0iMS4wIiBlbmNvZGluZz0iVVRGLTgiPz4KPHN2ZyB3aWR0aD0iMzgwN3B4IiBoZWlnaHQ9IjI0OTRweCIgdmlld0JveD0iMCAwIDM4MDcgMjQ5NCIgdmVyc2lvbj0iMS4xIiB4bWxucz0iaHR0cDovL3d3dy53My5vcmcvMjAwMC9zdmciIHhtbG5zOnhsaW5rPSJodHRwOi8vd3d3LnczLm9yZy8xOTk5L3hsaW5rIj4KICAgIDx0aXRsZT5Hcm91cCAxMDk8L3RpdGxlPgogICAgPGcgaWQ9IlBhZ2UtMSIgc3Ryb2tlPSJub25lIiBzdHJva2Utd2lkdGg9IjEiIGZpbGw9Im5vbmUiIGZpbGwtcnVsZT0iZXZlbm9kZCI+CiAgICAgICAgPGcgaWQ9Ikdyb3VwLTEwOSIgdHJhbnNmb3JtPSJ0cmFuc2xhdGUoMC4wMDAwMDAsIDguNzE3MDAwKSI+CiAgICAgICAgICAgIDxnIGlkPSJNYWdlbnRhLUdyb3VwLUNvcHkiPjwvZz4KICAgICAgICAgICAgPHBhdGggZD0iTTM2ODUuMDIyOSwyNDc2LjI0OTcgTDEyMS41MTA5LDI0NzYuMjQ5NyBDNTkuMzU0OSwyNDc2LjI0OTcgOC41MDA5LDI0MjUuMzk0NyA4LjUwMDksMjM2My4yMzc3IEw4LjUwMDksMTEzLjUxNTcgQzguNTAwOSw1MS4zNTg3IDU5LjM1NDksMC41MDM3IDEyMS41MTA5LDAuNTAzNyBMMzY4NS4wMjI5LDAuNTAzNyBDMzc0Ny4xNzg5LDAuNTAzNyAzNzk4LjAzNDksNTEuMzU4NyAzNzk4LjAzNDksMTEzLjUxNTcgTDM3OTguMDM0OSwyMzYzLjIzNzcgQzM3OTguMDM0OSwyNDI1LjM5NDcgMzc0Ny4xNzg5LDI0NzYuMjQ5NyAzNjg1LjAyMjksMjQ3Ni4yNDk3IFoiIGlkPSJTdHJva2UtMyIgc3Ryb2tlPSIjRUQ1NDk2IiBzdHJva2Utd2lkdGg9IjE3IiBmaWxsPSIjRkZGRkZGIj48L3BhdGg+CiAgICAgICAgICAgIDxwYXRoIGQ9Ik0yLjgwNjk1MzM0LDg4Ny41Mzk4IEMxLjYwMjAwNjA4LDg4Ny41Mzk4IDAuNjE2Niw4ODYuNTcxMDIxIDAuNjE2Niw4ODUuMzg3NDAxIEwwLjYxNjYsMTQwLjI3NzM1NSBDMC42MTY2LDYzLjQwMTY5NTcgNjQuNTk1MTUxNywwLjUwMzcgMTQyLjc5MDI2LDAuNTAzNyBMOTIwLjYxNjYsMC41MDM3IEw5MjAuNjE2Niw4ODUuMzg3NDAxIEM5MjAuNjE2Niw4ODYuNTcxMDIxIDkxOS42MzExOTQsODg3LjUzOTggOTE4LjQyNzI1OCw4ODcuNTM5OCBMMi44MDY5NTMzNCw4ODcuNTM5OCBaIiBpZD0iRmlsbC01IiBmaWxsPSIjRUQ1NDk2Ij48L3BhdGg+CiAgICAgICAgICAgIDxsaW5lIHgxPSI4IiB5MT0iODk2LjgzMzk5MSIgeDI9IjM3OTUuNzM0NCIgeTI9Ijg5Ni44MzM5OTEiIGlkPSJQYXRoLTItQ29weSIgc3Ryb2tlPSIjRkZENUU4IiBzdHJva2Utd2lkdGg9IjEyIj48L2xpbmU+CiAgICAgICAgICAgIDxwYXRoIGQ9Ik02NDAuODkzMjIsNDE3LjQzMDc1MiBMNjEwLjIwNjg1Myw0MTcuNDMwNzUyIEw2MTAuMjA2ODUzLDI5NC42ODUyODQgTDM4MC4wNTkxMDEsMjk0LjY4NTI4NCBMMzgwLjA1OTEwMSwyNjMuOTk4OTE3IEw2MTAuMjA2ODUzLDI2My45OTg5MTcgQzYyNy4xNDY0MDQsMjY0LjAxODM2NCA2NDAuODczNzczLDI3Ny43NDU3MzQgNjQwLjg5MzIyLDI5NC42ODUyODQgTDY0MC44OTMyMiw0MTcuNDMwNzUyIFoiIGlkPSJQYXRoIiBzdHJva2U9IiNGRkZGRkYiIGZpbGw9IiNGRkZGRkYiIGZpbGwtcnVsZT0ibm9uemVybyI+PC9wYXRoPgogICAgICAgICAgICA8cGF0aCBkPSJNNTE4LjE3NjA3OCwzNTEuODk1NjA3IEM1MzEuNTk1OTMyLDM1MS44OTU2MDcgNTM2LjY1OTA1OCwzNTIuNzk4MDM3IDU0MS42MTc5NDYsMzU1LjQ1MDA4IEM1NDUuNDk3NjU2LDM1Ny41MjQ5NzEgNTQ4LjU0MjQ3NSwzNjAuNTY5NzkgNTUwLjYxNzM2NywzNjQuNDQ5NSBDNTUzLjIyNTA5OSwzNjkuMzI1NTM2IDU1NC4xMzc1OTIsMzc0LjMwMTI0MiA1NTQuMTcxMDcsMzg3LjI5MzAyNCBMNTU0LjE3MTA3LDM4Ny4yOTMwMjQgTDU1NC4xNzEyMzMsNjIwLjQ5MDcwOSBDNTU0LjE0NDUxMSw2MzMuNDY2MzQ3IDU1My4yMjk4MjcsNjM4LjQ1MjM3MSA1NTAuNjE3MzY3LDY0My4zMzcyNDYgQzU0OC41NDcwNDMsNjQ3LjIwODQxNSA1NDUuNTExMDU4LDY1MC4yNDgzNjUgNTQxLjY0MzU1OCw2NTIuMzIyOTQ5IEw1NDEuNjQzNTU4LDY1Mi4zMjI5NDkgTDU0MC43NTQxMjcsNjUyLjc4NDQxNiBDNTM2LjA2MzI2LDY1NS4xMjg1IDUzMC44MDMyMDYsNjU1Ljg5MTEzOSA1MTguMTc2MDc4LDY1NS44OTExMzkgTDUxOC4xNzYwNzgsNjU1Ljg5MTEzOSBMMzM3Ljk5NTc2MSw2NTUuODkxMTM5IEMzMjUuMzU1MzQ4LDY1NS44OTExMzkgMzIwLjA5NzUxOCw2NTUuMTI2ODk0IDMxNS40MDI5MDcsNjUyLjc3NzAxMSBMMzE1LjQwMjkwNyw2NTIuNzc3MDExIEwzMTQuNTE0ODYsNjUyLjMxNTc0NCBDMzEwLjY1Mzc1Nyw2NTAuMjQxMzI5IDMwNy42MjI0MDEsNjQ3LjIwMzkzNiAzMDUuNTU0NDcyLDY0My4zMzcyNDYgQzMwMi45NDY3NCw2MzguNDYxMjExIDMwMi4wMzQyNDcsNjMzLjQ4NTUwNCAzMDIuMDAwNzY5LDYyMC40OTM3MjIgTDMwMi4wMDA3NjksNjIwLjQ5MzcyMiBMMzAyLjAwMDYwNiwzODcuMjk2MDM3IEMzMDIuMDI3MzI4LDM3NC4zMjAzOTkgMzAyLjk0MjAxMywzNjkuMzM0Mzc1IDMwNS41NTQ0NzIsMzY0LjQ0OTUgQzMwNy42MjkzNjQsMzYwLjU2OTc5IDMxMC42NzQxODMsMzU3LjUyNDk3MSAzMTQuNTUzODkzLDM1NS40NTAwOCBDMzE0Ljk2Njc2MSwzNTUuMjI5Mjc1IDMxNS4zNzkwMTMsMzU1LjAxNzQxMSAzMTUuNzk3NDUsMzU0LjgxNTggQzMyMC42NzIyODMsMzUyLjU2MDAwMyAzMjYuMDcwMTU1LDM1MS44OTU2MDcgMzM3Ljk5NTc2MSwzNTEuODk1NjA3IEwzMzcuOTk1NzYxLDM1MS44OTU2MDcgWiIgaWQ9IlJlY3RhbmdsZSIgc3Ryb2tlPSIjRkZGRkZGIiBzdHJva2Utd2lkdGg9IjI4Ij48L3BhdGg+CiAgICAgICAgPC9nPgogICAgPC9nPgo8L3N2Zz4=;align=left;spacingBottom=87;spacingLeft=54;fontFamily=IBM Plex Sans;fontSource=fonts%2FIBMPlexSans-Regular.woff;fontSize=14;" parent="waI4hvnf7LsabYLLWTcf-3" vertex="1">
          <mxGeometry width="212" height="138.94" as="geometry" />
        </mxCell>
        <mxCell id="bQxnhAWywP4pUUYXjwK0-33" value="Service Published in&amp;nbsp;&lt;br&gt;IBM Cloud Global Catalog" style="text;html=1;strokeColor=none;fillColor=none;align=center;verticalAlign=middle;whiteSpace=wrap;rounded=0;fontSize=14;fontFamily=IBM Plex Sans;fontSource=fonts%2FIBMPlexSans-Regular.woff;" parent="waI4hvnf7LsabYLLWTcf-3" vertex="1">
          <mxGeometry x="26" y="60" width="160" height="70" as="geometry" />
        </mxCell>
        <mxCell id="waI4hvnf7LsabYLLWTcf-19" value="Continuous Delivery&#xa;(Internal Service)" style="shape=image;aspect=fixed;image=data:image/svg+xml,PD94bWwgdmVyc2lvbj0iMS4wIiBlbmNvZGluZz0iVVRGLTgiPz4KPHN2ZyB3aWR0aD0iMjEycHgiIGhlaWdodD0iMTM1cHgiIHZpZXdCb3g9IjAgMCAyMTIgMTM1IiB2ZXJzaW9uPSIxLjEiIHhtbG5zPSJodHRwOi8vd3d3LnczLm9yZy8yMDAwL3N2ZyIgeG1sbnM6eGxpbms9Imh0dHA6Ly93d3cudzMub3JnLzE5OTkveGxpbmsiPgogICAgPHRpdGxlPkdyb3VwIDExMTwvdGl0bGU+CiAgICA8ZyBpZD0iUGFnZS0xIiBzdHJva2U9Im5vbmUiIHN0cm9rZS13aWR0aD0iMSIgZmlsbD0ibm9uZSIgZmlsbC1ydWxlPSJldmVub2RkIj4KICAgICAgICA8ZyBpZD0iR3JvdXAtMTExIiB0cmFuc2Zvcm09InRyYW5zbGF0ZSgxLjAwMDAwMCwgMS45NjY3MDApIj4KICAgICAgICAgICAgPGcgaWQ9Ikdyb3VwLTEwOC1Db3B5Ij4KICAgICAgICAgICAgICAgIDxnIGlkPSJNYWdlbnRhLUdyb3VwLUNvcHkiIHRyYW5zZm9ybT0idHJhbnNsYXRlKDAuMDAwMDAwLCAwLjAxMjMxMykiPjwvZz4KICAgICAgICAgICAgICAgIDxwYXRoIGQ9Ik0yMDMuNzQ4ODIxLDEzMS42NDI1NjUgTDYuNjM1NjgzMzYsMTMxLjY0MjU2NSBDMy4xOTc1NjgzMSwxMzEuNjQyNTY1IDAuMzg0NjE1Mzg1LDEyOC45Mzg3MSAwLjM4NDYxNTM4NSwxMjUuNjMzOTUyIEwwLjM4NDYxNTM4NSw2LjAyMDkyNDk4IEMwLjM4NDYxNTM4NSwyLjcxNjE2NjkxIDMuMTk3NTY4MzEsMC4wMTIzMTI2MDUgNi42MzU2ODMzNiwwLjAxMjMxMjYwNSBMMjAzLjc0ODgyMSwwLjAxMjMxMjYwNSBDMjA3LjE4NjkzNiwwLjAxMjMxMjYwNSAyMTAsMi43MTYxNjY5MSAyMTAsNi4wMjA5MjQ5OCBMMjEwLDEyNS42MzM5NTIgQzIxMCwxMjguOTM4NzEgMjA3LjE4NjkzNiwxMzEuNjQyNTY1IDIwMy43NDg4MjEsMTMxLjY0MjU2NSBaIiBpZD0iU3Ryb2tlLTMiIHN0cm9rZT0iI0VENTQ5NiIgZmlsbD0iI0ZGRkZGRiI+PC9wYXRoPgogICAgICAgICAgICAgICAgPGxpbmUgeDE9IjEuNzMwNzY5MjMiIHkxPSI0Ny41MjQ5MTc2IiB4Mj0iMjA4LjY1Mzg0NiIgeTI9IjQ3LjUyNDkxNzYiIGlkPSJQYXRoLTItQ29weSIgc3Ryb2tlPSIjRkZENUU4IiBzdHJva2Utd2lkdGg9IjIiPjwvbGluZT4KICAgICAgICAgICAgICAgIDxwYXRoIGQ9Ik01MC42NDg0MTQzLDQ3LjM0MDA0MzcgTDAuMTIwODcyMzQyLDQ3LjM0MDA0MzcgQzAuMDU0Mzc4NTk2MSw0Ny4zNDAwNDM3IDAsNDcuMjg4MzU0NiAwLDQ3LjIyNTIwMjYgTDAsNy40Njk5MjMzOCBDMCwzLjM2ODIyOTQ5IDMuNTMwNTg4OTgsMC4wMTIzMTI2MDUgNy44NDU3MDM2NSwwLjAxMjMxMjYwNSBMNTAuNzY5MjMwOCwwLjAxMjMxMjYwNSBMNTAuNzY5MjMwOCw0Ny4yMjUyMDI2IEM1MC43NjkyMzA4LDQ3LjI4ODM1NDYgNTAuNzE0ODUyMiw0Ny4zNDAwNDM3IDUwLjY0ODQxNDMsNDcuMzQwMDQzNyIgaWQ9IkZpbGwtNSIgZmlsbD0iI0VENTQ5NiI+PC9wYXRoPgogICAgICAgICAgICA8L2c+CiAgICAgICAgICAgIDxnIGlkPSJHcm91cC02Ni1Db3B5LTIiIHRyYW5zZm9ybT0idHJhbnNsYXRlKDEwLjE0NjU3NiwgMTEuODU5NzA4KSIgZmlsbD0iI0ZGRkZGRiIgZmlsbC1ydWxlPSJub256ZXJvIj4KICAgICAgICAgICAgICAgIDxwb2x5Z29uIGlkPSJSZWN0YW5nbGUiIHBvaW50cz0iNS44NTM0MjM3NyAxNy4xMjE3NTE3IDEyLjY1MTMyMDEgMTEuMTczNTkyNCAxMy44NTM0MjM4IDEyLjIyNTQzMzIgNy4wNTU1Mjc0NiAxOC4xNzM1OTI0Ij48L3BvbHlnb24+CiAgICAgICAgICAgICAgICA8cGF0aCBkPSJNMTMuMTc1NTA2LDIyLjE3MzU5MjQgQzEzLjA3MTQ3NjEsMjIuMTczODMyMiAxMi45NjgzNDUxLDIyLjE1NTE2ODEgMTIuODcxNTk3NCwyMi4xMTg1OTAyIEMxMi41OTc2NzM2LDIyLjAxNDEzMzEgMTIuNDAzMzA4MiwyMS43NzcyMjY3IDEyLjM2MjM0NTMsMjEuNDk3ODc3NCBMMTEuNTQwOTcxLDE1Ljk5Nzg5MDIgTDEzLjE4MzcxOTcsMTUuNzc3ODkwNyBMMTMuNzk5NzUwNSwxOS45MTg1OTUzIEwxNi40NjEwMDM0LDE3Ljg2Nzg4NTggTDE2LjQ2MTAwMzQsMTEuOTU5MzI4MSBDMTYuNDU5NzQxMiwxMS43NTA0ODM0IDE2LjU0NTQ1MTgsMTEuNTQ5NzUxIDE2LjY5OTIwMiwxMS40MDE0NzIzIEwyMC4wNDIxOTU3LDguMjAzNjIyNTUgQzIxLjQzMzU0NzcsNi44ODE3MDc5MiAyMi4yMTQzNTA0LDUuMDgyMzUyNTEgMjIuMjEwNjI0MSwzLjIwNjQ5MTI5IEwyMi4yMTA2MjQxLDEuNzQ1MDY2MTIgTDIwLjY4Mjg2NzcsMS43NDUwNjYxMiBDMTguNzIxODY0OSwxLjc0MTUwMTU5IDE2Ljg0MDg0MDQsMi40ODg0MDM4MyAxNS40NTg5MjY3LDMuODE5MzQ3MDEgTDEyLjExNTkzMyw3LjAxNzE5NjczIEMxMS45NjA5MjQyLDcuMTY0MjcxNTEgMTEuNzUxMDgxLDcuMjQ2MjYwOCAxMS41MzI3NTcyLDcuMjQ1MDUzMzQgTDUuMzU2MDIxOTIsNy4yNDUwNTMzNCBMMy4yMTIyMzQ4MSw5LjgwNjQ3NTk3IEw3LjU0MDg3Nzc1LDEwLjM5NTc2MDMgTDcuMzEwODkyOTMsMTEuOTY3MTg1MiBMMS41NjEyNzIzMiwxMS4xODE0NzI4IEMxLjI2OTI0MzkyLDExLjE0MjI4ODQgMS4wMjE1ODQ4MSwxMC45NTYzNjE5IDAuOTEyMzg2NTYyLDEwLjY5NDMzMTEgQzAuODAxODA0Nzc1LDEwLjQzMDM5NTMgMC44NDg5MjQ0NjcsMTAuMTI5OTAyNyAxLjAzNTU5MjcyLDkuOTA4NjE4NTkgTDQuMzIxMDkwMjEsNS45ODAwNTYyOCBDNC40NzQzODgxNSw1Ljc4OTUyNjc3IDQuNzEwNDQxNjQsNS42NzY2MjQ0MyA0Ljk2MTc2MjIyLDUuNjczNjI4NDIgTDExLjE5NTk5MzcsNS42NzM2Mjg0MiBMMTQuMjkyNTc1MSwyLjcwMzYzNTMyIEMxNS45ODM0NzM2LDEuMDc3MDYwNTMgMTguMjg0ODYwNSwwLjE2NTkxMzYzNyAyMC42ODI4Njc3LDAuMTczNTkyNDM3IEwyMi4yMTA2MjQxLDAuMTczNTkyNDM3IEMyMy4xMTc4ODkxLDAuMTczNTkyNDM3IDIzLjg1MzQyMzgsMC44NzcxOTIwOTUgMjMuODUzNDIzOCwxLjc0NTA2NjEyIEwyMy44NTM0MjM4LDMuMjA2NDkxMjkgQzIzLjg2MTQ1MTEsNS41MDAzODMzNiAyMi45MDg5NDkxLDcuNzAxODUwMDkgMjEuMjA4NTQ3Myw5LjMxOTMzNDI0IEwxOC4xMDM3NTIyLDEyLjI4MTQ3MDIgTDE4LjEwMzc1MjIsMTguMjQ1MDI3OCBDMTguMTAyNiwxOC40ODQwOTgxIDE3Ljk4NzcyMjcsMTguNzA5NjYwOSAxNy43OTE2Mjk5LDE4Ljg1Nzg4MzUgTDEzLjY4NDc1ODEsMjIuMDAwNzMzNCBDMTMuNTQwMjQ2MSwyMi4xMTE2NDUgMTMuMzYwNzc4NiwyMi4xNzI1NjIxIDEzLjE3NTUwNiwyMi4xNzM1OTI0IFoiIGlkPSJQYXRoIj48L3BhdGg+CiAgICAgICAgICAgIDwvZz4KICAgICAgICA8L2c+CiAgICA8L2c+Cjwvc3ZnPg==;spacingLeft=54;spacingBottom=87;align=left;points=[[0,0.25,0,0,0],[0,0.5,0,0,0],[0,0.75,0,0,0],[0,1,0,0,0],[0.25,1,0,0,0],[0.4,0,0,0,0],[0.5,1,0,0,0],[0.6,0,0,0,0],[0.75,1,0,0,0],[1,0.25,0,0,0],[1,0.5,0,0,0],[1,0.75,0,0,0],[1,1,0,0,0]];fontFamily=IBM Plex Sans;fontSource=fonts%2FIBMPlexSans-Regular.woff;fontSize=14;imageBackground=default;" parent="1" vertex="1">
          <mxGeometry x="-6970" y="-6242" width="212" height="135" as="geometry" />
        </mxCell>
        <mxCell id="waI4hvnf7LsabYLLWTcf-20" value="Public Package Repository&#xa;(External Service)" style="shape=image;aspect=fixed;image=data:image/svg+xml,PD94bWwgdmVyc2lvbj0iMS4wIiBlbmNvZGluZz0iVVRGLTgiPz4KPHN2ZyB3aWR0aD0iMjEycHgiIGhlaWdodD0iMTM0cHgiIHZpZXdCb3g9IjAgMCAyMTIgMTM0IiB2ZXJzaW9uPSIxLjEiIHhtbG5zPSJodHRwOi8vd3d3LnczLm9yZy8yMDAwL3N2ZyIgeG1sbnM6eGxpbms9Imh0dHA6Ly93d3cudzMub3JnLzE5OTkveGxpbmsiPgogICAgPHRpdGxlPlB1YmxpYyBQYWNrYWdlIFJlcG9zaXRvcnk8L3RpdGxlPgogICAgPGcgaWQ9IlBhZ2UtMSIgc3Ryb2tlPSJub25lIiBzdHJva2Utd2lkdGg9IjEiIGZpbGw9Im5vbmUiIGZpbGwtcnVsZT0iZXZlbm9kZCI+CiAgICAgICAgPGcgaWQ9InYyLTQ4eDQ4IiB0cmFuc2Zvcm09InRyYW5zbGF0ZSgtMzEzLjAwMDAwMCwgLTEwNi4wMDAwMDApIj4KICAgICAgICAgICAgPGcgaWQ9IlB1YmxpYy1QYWNrYWdlLVJlcG9zaXRvcnkiIHRyYW5zZm9ybT0idHJhbnNsYXRlKDMxNC4wMDAwMDAsIDEwNi45NjY3MDApIj4KICAgICAgICAgICAgICAgIDxnPjwvZz4KICAgICAgICAgICAgICAgIDxwYXRoIGQ9Ik0yMDMuNzQ4ODIxLDEzMS42NDI1NjUgTDYuNjM1NjgzMzYsMTMxLjY0MjU2NSBDMy4xOTc1NjgzMSwxMzEuNjQyNTY1IDAuMzg0NjE1Mzg1LDEyOC45Mzg3MSAwLjM4NDYxNTM4NSwxMjUuNjMzOTUyIEwwLjM4NDYxNTM4NSw2LjAyMDkyNDk4IEMwLjM4NDYxNTM4NSwyLjcxNjE2NjkxIDMuMTk3NTY4MzEsMC4wMTIzMTI2MDUgNi42MzU2ODMzNiwwLjAxMjMxMjYwNSBMMjAzLjc0ODgyMSwwLjAxMjMxMjYwNSBDMjA3LjE4NjkzNiwwLjAxMjMxMjYwNSAyMTAsMi43MTYxNjY5MSAyMTAsNi4wMjA5MjQ5OCBMMjEwLDEyNS42MzM5NTIgQzIxMCwxMjguOTM4NzEgMjA3LjE4NjkzNiwxMzEuNjQyNTY1IDIwMy43NDg4MjEsMTMxLjY0MjU2NSBaIiBpZD0iU3Ryb2tlLTMiIHN0cm9rZT0iIzEwNjFGRSIgZmlsbD0iI0ZGRkZGRiI+PC9wYXRoPgogICAgICAgICAgICAgICAgPGxpbmUgeDE9IjEiIHkxPSI0Ny4wMzMzIiB4Mj0iMjA5LjUxNzIwOSIgeTI9IjQ3LjAzMzMiIGlkPSJQYXRoLTItQ29weSIgc3Ryb2tlPSIjRDRFMEY4IiBzdHJva2Utd2lkdGg9IjIiPjwvbGluZT4KICAgICAgICAgICAgICAgIDxwYXRoIGQ9Ik01MC42NDg0MTQzLDQ3LjM0MDA0MzcgTDAuMTIwODcyMzQyLDQ3LjM0MDA0MzcgQzAuMDU0Mzc4NTk2MSw0Ny4zNDAwNDM3IDAsNDcuMjg4MzU0NiAwLDQ3LjIyNTIwMjYgTDAsNy40Njk5MjMzOCBDMCwzLjM2ODIyOTQ5IDMuNTMwNTg4OTgsMC4wMTIzMTI2MDUgNy44NDU3MDM2NSwwLjAxMjMxMjYwNSBMNTAuNzY5MjMwOCwwLjAxMjMxMjYwNSBMNTAuNzY5MjMwOCw0Ny4yMjUyMDI2IEM1MC43NjkyMzA4LDQ3LjI4ODM1NDYgNTAuNzE0ODUyMiw0Ny4zNDAwNDM3IDUwLjY0ODQxNDMsNDcuMzQwMDQzNyIgaWQ9IkZpbGwtNSIgZmlsbD0iIzEwNjFGRSI+PC9wYXRoPgogICAgICAgICAgICAgICAgPHBhdGggZD0iTTM1LjIxNDI4NTcsMzEuNjc2MTU3MSBMMzEuNjQyODU3MSwzMS42NzYxNTcxIEwzMS42NDI4NTcxLDMwLjc4MzMgQzMxLjY0Mjg1NzEsMjkuMzAzODM1NyAzMC40NDM3NSwyOC4xMDQ3Mjg2IDI4Ljk2NDI4NTcsMjguMTA0NzI4NiBMMjMuNjA3MTQyOSwyOC4xMDQ3Mjg2IEMyMi4xMjc2Nzg2LDI4LjEwNDcyODYgMjAuOTI4NTcxNCwyOS4zMDM4MzU3IDIwLjkyODU3MTQsMzAuNzgzMyBMMjAuOTI4NTcxNCwzMS42NzYxNTcxIEwxMy43ODU3MTQzLDMxLjY3NjE1NzEgTDEzLjc4NTcxNDMsMTMuODE5MDE0MyBMMjAuMTg3NSwxMy44MTkwMTQzIEwyMy4yNDEwNzE0LDE2Ljg2MzY1NzEgTDIzLjc1ODkyODYsMTcuMzkwNDQyOSBMMzUuMjE0Mjg1NywxNy4zOTA0NDI5IEwzNS4yMTQyODU3LDMxLjY3NjE1NzEgWiBNMjkuODU3MTQyOSwzMS42NzYxNTcxIEwyMi43MTQyODU3LDMxLjY3NjE1NzEgTDIyLjcxNDI4NTcsMzAuNzgzMyBDMjIuNzE0Mjg1NywzMC4yOTA0NDI5IDIzLjExNDI4NTcsMjkuODkwNDQyOSAyMy42MDcxNDI5LDI5Ljg5MDQ0MjkgTDI4Ljk2NDI4NTcsMjkuODkwNDQyOSBDMjkuNDU3MTQyOSwyOS44OTA0NDI5IDI5Ljg1NzE0MjksMzAuMjkwNDQyOSAyOS44NTcxNDI5LDMwLjc4MzMgTDI5Ljg1NzE0MjksMzEuNjc2MTU3MSBaIE0zNS4yMTQyODU3LDE1LjYwNDcyODYgTDI0LjUsMTUuNjA0NzI4NiBMMjEuNDU1MzU3MSwxMi41NjAwODU3IEMyMS4xMTk2NDI5LDEyLjIyMjU4NTcgMjAuNjYzMzkyOSwxMi4wMzMzIDIwLjE4NzUsMTIuMDMzMyBMMTMuNzg1NzE0MywxMi4wMzMzIEMxMi43OTkxMDcxLDEyLjAzMzMgMTIsMTIuODMyNDA3MSAxMiwxMy44MTkwMTQzIEwxMiwzMS42NzYxNTcxIEMxMiwzMi42NjI3NjQzIDEyLjc5OTEwNzEsMzMuNDYxODcxNCAxMy43ODU3MTQzLDMzLjQ2MTg3MTQgTDM1LjIxNDI4NTcsMzMuNDYxODcxNCBDMzYuMjAwODkyOSwzMy40NjE4NzE0IDM3LDMyLjY2Mjc2NDMgMzcsMzEuNjc2MTU3MSBMMzcsMTcuMzkwNDQyOSBDMzcsMTYuNDAzODM1NyAzNi4yMDA4OTI5LDE1LjYwNDcyODYgMzUuMjE0Mjg1NywxNS42MDQ3Mjg2IEwzNS4yMTQyODU3LDE1LjYwNDcyODYgWiIgaWQ9IkZpbGwtMSIgZmlsbD0iI0ZGRkZGRiI+PC9wYXRoPgogICAgICAgICAgICAgICAgPHBhdGggZD0iTTI2LjI4NTcxNDMsMjEuODU0NzI4NiBDMjcuMjcyMzIxNCwyMS44NTQ3Mjg2IDI4LjA3MTQyODYsMjIuNjUzODM1NyAyOC4wNzE0Mjg2LDIzLjY0MDQ0MjkgQzI4LjA3MTQyODYsMjQuNjI3MDUgMjcuMjcyMzIxNCwyNS40MjYxNTcxIDI2LjI4NTcxNDMsMjUuNDI2MTU3MSBDMjUuMjk5MTA3MSwyNS40MjYxNTcxIDI0LjUsMjQuNjI3MDUgMjQuNSwyMy42NDA0NDI5IEMyNC41LDIyLjY1MzgzNTcgMjUuMjk5MTA3MSwyMS44NTQ3Mjg2IDI2LjI4NTcxNDMsMjEuODU0NzI4NiBNMjIuNzE0Mjg1NywyMy42NDA0NDI5IEMyMi43MTQyODU3LDI1LjYxMjc2NDMgMjQuMzEzMzkyOSwyNy4yMTE4NzE0IDI2LjI4NTcxNDMsMjcuMjExODcxNCBDMjguMjU4MDM1NywyNy4yMTE4NzE0IDI5Ljg1NzE0MjksMjUuNjEyNzY0MyAyOS44NTcxNDI5LDIzLjY0MDQ0MjkgQzI5Ljg1NzE0MjksMjEuNjY4MTIxNCAyOC4yNTgwMzU3LDIwLjA2OTAxNDMgMjYuMjg1NzE0MywyMC4wNjkwMTQzIEMyNC4zMTMzOTI5LDIwLjA2OTAxNDMgMjIuNzE0Mjg1NywyMS42NjgxMjE0IDIyLjcxNDI4NTcsMjMuNjQwNDQyOSIgaWQ9IkZpbGwtMyIgZmlsbD0iI0ZGRkZGRiI+PC9wYXRoPgogICAgICAgICAgICA8L2c+CiAgICAgICAgPC9nPgogICAgPC9nPgo8L3N2Zz4=;align=left;spacingLeft=58;spacingBottom=92;fontSize=14;fontFamily=IBM Plex Sans;fontSource=fonts%2FIBMPlexSans-Regular.woff;" parent="1" vertex="1">
          <mxGeometry x="-7474" y="-5950" width="230" height="145.38" as="geometry" />
        </mxCell>
        <mxCell id="qK7P-8Lu3oddX9ztJ0Ts-2" value="" style="group" parent="1" vertex="1" connectable="0">
          <mxGeometry x="-7283" y="-6242" width="212" height="135" as="geometry" />
        </mxCell>
        <mxCell id="qK7P-8Lu3oddX9ztJ0Ts-1" value="Artifact Repository&#xa;(Internal Service)" style="shape=image;aspect=fixed;image=data:image/svg+xml,PD94bWwgdmVyc2lvbj0iMS4wIiBlbmNvZGluZz0iVVRGLTgiPz4KPHN2ZyB3aWR0aD0iMjEycHgiIGhlaWdodD0iMTM1cHgiIHZpZXdCb3g9IjAgMCAyMTIgMTM1IiB2ZXJzaW9uPSIxLjEiIHhtbG5zPSJodHRwOi8vd3d3LnczLm9yZy8yMDAwL3N2ZyIgeG1sbnM6eGxpbms9Imh0dHA6Ly93d3cudzMub3JnLzE5OTkveGxpbmsiPgogICAgPHRpdGxlPkFydGlmYWN0IFJlcG9zaXRvcnkgQ29weTwvdGl0bGU+CiAgICA8ZyBpZD0iUGFnZS0xIiBzdHJva2U9Im5vbmUiIHN0cm9rZS13aWR0aD0iMSIgZmlsbD0ibm9uZSIgZmlsbC1ydWxlPSJldmVub2RkIj4KICAgICAgICA8ZyBpZD0idjItNDh4NDgiIHRyYW5zZm9ybT0idHJhbnNsYXRlKC0zMTMuMDAwMDAwLCAtMjYxLjAwMDAwMCkiPgogICAgICAgICAgICA8ZyBpZD0iQXJ0aWZhY3QtUmVwb3NpdG9yeS1Db3B5IiB0cmFuc2Zvcm09InRyYW5zbGF0ZSgzMTQuMDAwMDAwLCAyNjIuOTY2NzAwKSI+CiAgICAgICAgICAgICAgICA8ZyBpZD0iQXJ0aWZhY3QtUmVwb3NpdG9yeSI+CiAgICAgICAgICAgICAgICAgICAgPHBhdGggZD0iTTIwMy43NDg4MjEsMTMxLjY0MjU2NSBMNi42MzU2ODMzNiwxMzEuNjQyNTY1IEMzLjE5NzU2ODMxLDEzMS42NDI1NjUgMC4zODQ2MTUzODUsMTI4LjkzODcxIDAuMzg0NjE1Mzg1LDEyNS42MzM5NTIgTDAuMzg0NjE1Mzg1LDYuMDIwOTI0OTggQzAuMzg0NjE1Mzg1LDIuNzE2MTY2OTEgMy4xOTc1NjgzMSwwLjAxMjMxMjYwNSA2LjYzNTY4MzM2LDAuMDEyMzEyNjA1IEwyMDMuNzQ4ODIxLDAuMDEyMzEyNjA1IEMyMDcuMTg2OTM2LDAuMDEyMzEyNjA1IDIxMCwyLjcxNjE2NjkxIDIxMCw2LjAyMDkyNDk4IEwyMTAsMTI1LjYzMzk1MiBDMjEwLDEyOC45Mzg3MSAyMDcuMTg2OTM2LDEzMS42NDI1NjUgMjAzLjc0ODgyMSwxMzEuNjQyNTY1IFoiIGlkPSJTdHJva2UtMyIgc3Ryb2tlPSIjMTA2MUZFIiBmaWxsPSIjRkZGRkZGIj48L3BhdGg+CiAgICAgICAgICAgICAgICAgICAgPGxpbmUgeDE9IjEuNzMwNzY5MjMiIHkxPSI0Ny41MjQ5MTc2IiB4Mj0iMjA4LjY1Mzg0NiIgeTI9IjQ3LjUyNDkxNzYiIGlkPSJQYXRoLTItQ29weSIgc3Ryb2tlPSIjRDRFMEY4IiBzdHJva2Utd2lkdGg9IjIiPjwvbGluZT4KICAgICAgICAgICAgICAgICAgICA8cGF0aCBkPSJNNTAuNjQ4NDE0Myw0Ny4zNDAwNDM3IEwwLjEyMDg3MjM0Miw0Ny4zNDAwNDM3IEMwLjA1NDM3ODU5NjEsNDcuMzQwMDQzNyAwLDQ3LjI4ODM1NDYgMCw0Ny4yMjUyMDI2IEwwLDcuNDY5OTIzMzggQzAsMy4zNjgyMjk0OSAzLjUzMDU4ODk4LDAuMDEyMzEyNjA1IDcuODQ1NzAzNjUsMC4wMTIzMTI2MDUgTDUwLjc2OTIzMDgsMC4wMTIzMTI2MDUgTDUwLjc2OTIzMDgsNDcuMjI1MjAyNiBDNTAuNzY5MjMwOCw0Ny4yODgzNTQ2IDUwLjcxNDg1MjIsNDcuMzQwMDQzNyA1MC42NDg0MTQzLDQ3LjM0MDA0MzciIGlkPSJGaWxsLTUiIGZpbGw9IiMxMDYxRkUiPjwvcGF0aD4KICAgICAgICAgICAgICAgIDwvZz4KICAgICAgICAgICAgICAgIDxnIHRyYW5zZm9ybT0idHJhbnNsYXRlKDEyLjg4NDYxNSwgMTIuNTMzMzAwKSIgaWQ9Ikdyb3VwLTQiPjwvZz4KICAgICAgICAgICAgICAgIDxwYXRoIGQ9Ik0xOC4yNDE3NTgyLDI3LjcxMTg3MTQgTDI5Ljg0ODkwMTEsMjcuNzExODcxNCBMMjkuODQ4OTAxMSwyNS45MjYxNTcxIEwxOC4yNDE3NTgyLDI1LjkyNjE1NzEgTDE4LjI0MTc1ODIsMjcuNzExODcxNCBaIE0xOC4yNDE3NTgyLDIzLjI0NzU4NTcgTDI4LjA2MzE4NjgsMjMuMjQ3NTg1NyBMMjguMDYzMTg2OCwyMS40NjE4NzE0IEwxOC4yNDE3NTgyLDIxLjQ2MTg3MTQgTDE4LjI0MTc1ODIsMjMuMjQ3NTg1NyBaIiBpZD0iRmlsbC0xIiBmaWxsPSIjRkZGRkZGIj48L3BhdGg+CiAgICAgICAgICAgICAgICA8cGF0aCBkPSJNMTQuNjcwMzI5NywzMi4xNzYxNTcxIEwzNi4wOTg5MDExLDMyLjE3NjE1NzEgTDM2LjA5ODkwMTEsMTcuODkwNDQyOSBMMTQuNjcwMzI5NywxNy44OTA0NDI5IEwxNC42NzAzMjk3LDMyLjE3NjE1NzEgWiBNMTQuNjcwMzI5NywxNi4xMDQ3Mjg2IEwzNi4wOTg5MDExLDE2LjEwNDcyODYgTDM2LjA5ODkwMTEsMTQuMzE5MDE0MyBMMTQuNjcwMzI5NywxNC4zMTkwMTQzIEwxNC42NzAzMjk3LDE2LjEwNDcyODYgWiBNMzYuMDk4OTAxMSwxMi41MzMzIEwxNC42NzAzMjk3LDEyLjUzMzMgQzEzLjY4MzcyMjUsMTIuNTMzMyAxMi44ODQ2MTU0LDEzLjMzMjQwNzEgMTIuODg0NjE1NCwxNC4zMTkwMTQzIEwxMi44ODQ2MTU0LDMyLjE3NjE1NzEgQzEyLjg4NDYxNTQsMzMuMTYyNzY0MyAxMy42ODM3MjI1LDMzLjk2MTg3MTQgMTQuNjcwMzI5NywzMy45NjE4NzE0IEwzNi4wOTg5MDExLDMzLjk2MTg3MTQgQzM3LjA4NTUwODIsMzMuOTYxODcxNCAzNy44ODQ2MTU0LDMzLjE2Mjc2NDMgMzcuODg0NjE1NCwzMi4xNzYxNTcxIEwzNy44ODQ2MTU0LDE0LjMxOTAxNDMgQzM3Ljg4NDYxNTQsMTMuMzMyNDA3MSAzNy4wODU1MDgyLDEyLjUzMzMgMzYuMDk4OTAxMSwxMi41MzMzIEwzNi4wOTg5MDExLDEyLjUzMzMgWiIgaWQ9IkZpbGwtMiIgZmlsbD0iI0ZGRkZGRiI+PC9wYXRoPgogICAgICAgICAgICA8L2c+CiAgICAgICAgPC9nPgogICAgPC9nPgo8L3N2Zz4=;align=left;spacingLeft=58;spacingBottom=92;fontSize=14;fontFamily=IBM Plex Sans;fontSource=fonts%2FIBMPlexSans-Regular.woff;points=[[0,0,0,0,0],[0,0.25,0,0,0],[0,0.5,0,0,0],[0,0.75,0,0,0],[0,1,0,0,0],[0.25,0,0,0,0],[0.4,1,0,0,0],[0.5,0,0,0,0],[0.6,1,0,0,0],[0.75,0,0,0,0],[1,0,0,0,0],[1,0.25,0,0,0],[1,0.5,0,0,0],[1,0.75,0,0,0],[1,1,0,0,0]];" parent="qK7P-8Lu3oddX9ztJ0Ts-2" vertex="1">
          <mxGeometry width="212" height="135" as="geometry" />
        </mxCell>
        <mxCell id="bQxnhAWywP4pUUYXjwK0-46" value="Artifactory" style="text;html=1;strokeColor=none;fillColor=none;align=center;verticalAlign=middle;whiteSpace=wrap;rounded=0;fontSize=14;fontFamily=IBM Plex Sans;fontSource=fonts%2FIBMPlexSans-Regular.woff;" parent="qK7P-8Lu3oddX9ztJ0Ts-2" vertex="1">
          <mxGeometry x="51.25" y="70" width="108.52" height="42" as="geometry" />
        </mxCell>
        <mxCell id="qK7P-8Lu3oddX9ztJ0Ts-4" value="Public Package Registry&#xa;(External Service)" style="shape=image;aspect=fixed;image=data:image/svg+xml,PD94bWwgdmVyc2lvbj0iMS4wIiBlbmNvZGluZz0iVVRGLTgiPz4KPHN2ZyB3aWR0aD0iMjEycHgiIGhlaWdodD0iMTM1cHgiIHZpZXdCb3g9IjAgMCAyMTIgMTM1IiB2ZXJzaW9uPSIxLjEiIHhtbG5zPSJodHRwOi8vd3d3LnczLm9yZy8yMDAwL3N2ZyIgeG1sbnM6eGxpbms9Imh0dHA6Ly93d3cudzMub3JnLzE5OTkveGxpbmsiPgogICAgPHRpdGxlPlB1YmxpYyBQYWNrYWdlIFJlZ2lzdGFyeTwvdGl0bGU+CiAgICA8ZyBpZD0iUGFnZS0xIiBzdHJva2U9Im5vbmUiIHN0cm9rZS13aWR0aD0iMSIgZmlsbD0ibm9uZSIgZmlsbC1ydWxlPSJldmVub2RkIj4KICAgICAgICA8ZyBpZD0idjItNDh4NDgiIHRyYW5zZm9ybT0idHJhbnNsYXRlKC0zMTMuMDAwMDAwLCAtNDE3LjAwMDAwMCkiPgogICAgICAgICAgICA8ZyBpZD0iUHVibGljLVBhY2thZ2UtUmVnaXN0YXJ5IiB0cmFuc2Zvcm09InRyYW5zbGF0ZSgzMTQuMDAwMDAwLCA0MTguOTY2NzAwKSI+CiAgICAgICAgICAgICAgICA8ZyBpZD0iR3JvdXAtMTExLUNvcHktOSI+CiAgICAgICAgICAgICAgICAgICAgPHBhdGggZD0iTTIwMy43NDg4MjEsMTMxLjY0MjU2NSBMNi42MzU2ODMzNiwxMzEuNjQyNTY1IEMzLjE5NzU2ODMxLDEzMS42NDI1NjUgMC4zODQ2MTUzODUsMTI4LjkzODcxIDAuMzg0NjE1Mzg1LDEyNS42MzM5NTIgTDAuMzg0NjE1Mzg1LDYuMDIwOTI0OTggQzAuMzg0NjE1Mzg1LDIuNzE2MTY2OTEgMy4xOTc1NjgzMSwwLjAxMjMxMjYwNSA2LjYzNTY4MzM2LDAuMDEyMzEyNjA1IEwyMDMuNzQ4ODIxLDAuMDEyMzEyNjA1IEMyMDcuMTg2OTM2LDAuMDEyMzEyNjA1IDIxMCwyLjcxNjE2NjkxIDIxMCw2LjAyMDkyNDk4IEwyMTAsMTI1LjYzMzk1MiBDMjEwLDEyOC45Mzg3MSAyMDcuMTg2OTM2LDEzMS42NDI1NjUgMjAzLjc0ODgyMSwxMzEuNjQyNTY1IFoiIGlkPSJTdHJva2UtMyIgc3Ryb2tlPSIjMTA2MUZFIiBmaWxsPSIjRkZGRkZGIj48L3BhdGg+CiAgICAgICAgICAgICAgICAgICAgPGxpbmUgeDE9IjEuNzMwNzY5MjMiIHkxPSI0Ny41MjQ5MTc2IiB4Mj0iMjA4LjY1Mzg0NiIgeTI9IjQ3LjUyNDkxNzYiIGlkPSJQYXRoLTItQ29weSIgc3Ryb2tlPSIjRDRFMEY4IiBzdHJva2Utd2lkdGg9IjIiPjwvbGluZT4KICAgICAgICAgICAgICAgICAgICA8cGF0aCBkPSJNNTAuNjQ4NDE0Myw0Ny4zNDAwNDM3IEwwLjEyMDg3MjM0Miw0Ny4zNDAwNDM3IEMwLjA1NDM3ODU5NjEsNDcuMzQwMDQzNyAwLDQ3LjI4ODM1NDYgMCw0Ny4yMjUyMDI2IEwwLDcuNDY5OTIzMzggQzAsMy4zNjgyMjk0OSAzLjUzMDU4ODk4LDAuMDEyMzEyNjA1IDcuODQ1NzAzNjUsMC4wMTIzMTI2MDUgTDUwLjc2OTIzMDgsMC4wMTIzMTI2MDUgTDUwLjc2OTIzMDgsNDcuMjI1MjAyNiBDNTAuNzY5MjMwOCw0Ny4yODgzNTQ2IDUwLjcxNDg1MjIsNDcuMzQwMDQzNyA1MC42NDg0MTQzLDQ3LjM0MDA0MzciIGlkPSJGaWxsLTUiIGZpbGw9IiMxMDYxRkUiPjwvcGF0aD4KICAgICAgICAgICAgICAgIDwvZz4KICAgICAgICAgICAgICAgIDxwYXRoIGQ9Ik0zMi44MTcxMDE4LDM0LjUxMDkzMjEgTDE2LjE2NTE5MTEsMzQuNTEwOTMyMSBDMTUuMjQ1NTMxNCwzNC41MTA5MzIxIDE0LjUsMzMuNzc1Mzk5OSAxNC41LDMyLjg2ODA3NDkgTDE0LjUsMjMuMDEwOTMyMSBDMTQuNSwyMi4xMDM2MDcxIDE1LjI0NTUzMTQsMjEuMzY4MDc0OSAxNi4xNjUxOTExLDIxLjM2ODA3NDkgTDE4LjY2Mjk3NzcsMjEuMzY4MDc0OSBMMTguNjYyOTc3NywyMy4wMTA5MzIxIEwxNi4xNjUxOTExLDIzLjAxMDkzMjEgTDE2LjE2NTE5MTEsMzIuODY4MDc0OSBMMzIuODE3MTAxOCwzMi44NjgwNzQ5IEwzMi44MTcxMDE4LDIzLjAxMDkzMjEgTDMwLjMxOTMxNTEsMjMuMDEwOTMyMSBMMzAuMzE5MzE1MSwyMS4zNjgwNzQ5IEwzMi44MTcxMDE4LDIxLjM2ODA3NDkgQzMzLjczNjc2MTQsMjEuMzY4MDc0OSAzNC40ODIyOTI4LDIyLjEwMzYwNzEgMzQuNDgyMjkyOCwyMy4wMTA5MzIxIEwzNC40ODIyOTI4LDMyLjg2ODA3NDkgQzM0LjQ4MjI5MjgsMzMuNzc1Mzk5OSAzMy43MzY3NjE0LDM0LjUxMDkzMjEgMzIuODE3MTAxOCwzNC41MTA5MzIxIFoiIGlkPSJQYXRoIiBmaWxsPSIjRkZGRkZGIiBmaWxsLXJ1bGU9Im5vbnplcm8iPjwvcGF0aD4KICAgICAgICAgICAgICAgIDxyZWN0IGlkPSJSZWN0YW5nbGUiIGZpbGw9IiNGRkZGRkYiIGZpbGwtcnVsZT0ibm9uemVybyIgeD0iMjEuOTkzMzU5OCIgeT0iMjYuMjk2NjQ2MyIgd2lkdGg9IjQuOTk1NTczMjEiIGhlaWdodD0iMS42NDI4NTcxNCI+PC9yZWN0PgogICAgICAgICAgICAgICAgPHBvbHlnb24gaWQ9IlBhdGgiIGZpbGw9IiNGRkZGRkYiIGZpbGwtcnVsZT0ibm9uemVybyIgcG9pbnRzPSIyOC4zMTI3NTk5IDE2LjkyNDE0NjMgMjUuMzIzNzQxOSAxOS44NjQ4NjA2IDI1LjMyMzc0MTkgMTEuNTEwOTMyMSAyMy42NTg1NTA5IDExLjUxMDkzMjEgMjMuNjU4NTUwOSAxOS44NjQ4NjA2IDIwLjY2OTUzMjkgMTYuOTI0MTQ2MyAxOS40OTU1NzMyIDE4LjA4MjM2MDYgMjQuNDkxMTQ2NCAyMy4wMTA5MzIxIDI5LjQ4NjcxOTYgMTguMDgyMzYwNiI+PC9wb2x5Z29uPgogICAgICAgICAgICA8L2c+CiAgICAgICAgPC9nPgogICAgPC9nPgo8L3N2Zz4=;fontFamily=IBM Plex Sans;fontSource=fonts%2FIBMPlexSans-Regular.woff;fontSize=14;align=left;spacingLeft=58;spacingBottom=92;" parent="1" vertex="1">
          <mxGeometry x="-7119.81" y="-5950" width="226.13" height="144" as="geometry" />
        </mxCell>
        <mxCell id="qK7P-8Lu3oddX9ztJ0Ts-11" value="Dev/Test Environment&#xa;(Environment)" style="shape=image;aspect=fixed;image=data:image/svg+xml,PD94bWwgdmVyc2lvbj0iMS4wIiBlbmNvZGluZz0iVVRGLTgiPz4KPHN2ZyB3aWR0aD0iMjEycHgiIGhlaWdodD0iMTM1cHgiIHZpZXdCb3g9IjAgMCAyMTIgMTM1IiB2ZXJzaW9uPSIxLjEiIHhtbG5zPSJodHRwOi8vd3d3LnczLm9yZy8yMDAwL3N2ZyIgeG1sbnM6eGxpbms9Imh0dHA6Ly93d3cudzMub3JnLzE5OTkveGxpbmsiPgogICAgPHRpdGxlPkdyb3VwIDg8L3RpdGxlPgogICAgPGRlZnM+CiAgICAgICAgPHBvbHlnb24gaWQ9InBhdGgtMSIgcG9pbnRzPSIwLjAwMDExMTEyNDgzOCAwIDI0IDAgMjQgMjggMC4wMDAxMTExMjQ4MzggMjgiPjwvcG9seWdvbj4KICAgIDwvZGVmcz4KICAgIDxnIGlkPSJQYWdlLTEiIHN0cm9rZT0ibm9uZSIgc3Ryb2tlLXdpZHRoPSIxIiBmaWxsPSJub25lIiBmaWxsLXJ1bGU9ImV2ZW5vZGQiPgogICAgICAgIDxnIGlkPSJ2Mi00OHg0OCIgdHJhbnNmb3JtPSJ0cmFuc2xhdGUoLTYzLjAwMDAwMCwgLTcyNC4wMDAwMDApIj4KICAgICAgICAgICAgPGcgaWQ9Ikdyb3VwLTgiIHRyYW5zZm9ybT0idHJhbnNsYXRlKDY0LjAwMDAwMCwgNzI1Ljk2NjcwMCkiPgogICAgICAgICAgICAgICAgPGcgaWQ9Ikdyb3VwLTEwOC1Db3B5Ij4KICAgICAgICAgICAgICAgICAgICA8ZyBpZD0iTWFnZW50YS1Hcm91cC1Db3B5IiB0cmFuc2Zvcm09InRyYW5zbGF0ZSgwLjAwMDAwMCwgMC4wMTIzMTMpIj48L2c+CiAgICAgICAgICAgICAgICAgICAgPHBhdGggZD0iTTIwMy43NDg4MjEsMTMxLjY0MjU2NSBMNi42MzU2ODMzNiwxMzEuNjQyNTY1IEMzLjE5NzU2ODMxLDEzMS42NDI1NjUgMC4zODQ2MTUzODUsMTI4LjkzODcxIDAuMzg0NjE1Mzg1LDEyNS42MzM5NTIgTDAuMzg0NjE1Mzg1LDYuMDIwOTI0OTggQzAuMzg0NjE1Mzg1LDIuNzE2MTY2OTEgMy4xOTc1NjgzMSwwLjAxMjMxMjYwNSA2LjYzNTY4MzM2LDAuMDEyMzEyNjA1IEwyMDMuNzQ4ODIxLDAuMDEyMzEyNjA1IEMyMDcuMTg2OTM2LDAuMDEyMzEyNjA1IDIxMCwyLjcxNjE2NjkxIDIxMCw2LjAyMDkyNDk4IEwyMTAsMTI1LjYzMzk1MiBDMjEwLDEyOC45Mzg3MSAyMDcuMTg2OTM2LDEzMS42NDI1NjUgMjAzLjc0ODgyMSwxMzEuNjQyNTY1IFoiIGlkPSJTdHJva2UtMyIgc3Ryb2tlPSIjRUQ1NDk2IiBmaWxsPSIjRkZGRkZGIj48L3BhdGg+CiAgICAgICAgICAgICAgICAgICAgPGxpbmUgeDE9IjAuOTU3Mjc0NzQxIiB5MT0iNDcuNTI0OTE3NiIgeDI9IjIwOS41MzkzNDIiIHkyPSI0Ny41MjQ5MTc2IiBpZD0iUGF0aC0yLUNvcHkiIHN0cm9rZT0iI0ZGRDVFOCIgc3Ryb2tlLXdpZHRoPSIyIj48L2xpbmU+CiAgICAgICAgICAgICAgICAgICAgPHBhdGggZD0iTTUwLjY0ODQxNDMsNDcuMzQwMDQzNyBMMC4xMjA4NzIzNDIsNDcuMzQwMDQzNyBDMC4wNTQzNzg1OTYxLDQ3LjM0MDA0MzcgMCw0Ny4yODgzNTQ2IDAsNDcuMjI1MjAyNiBMMCw3LjQ2OTkyMzM4IEMwLDMuMzY4MjI5NDkgMy41MzA1ODg5OCwwLjAxMjMxMjYwNSA3Ljg0NTcwMzY1LDAuMDEyMzEyNjA1IEw1MC43NjkyMzA4LDAuMDEyMzEyNjA1IEw1MC43NjkyMzA4LDQ3LjIyNTIwMjYgQzUwLjc2OTIzMDgsNDcuMjg4MzU0NiA1MC43MTQ4NTIyLDQ3LjM0MDA0MzcgNTAuNjQ4NDE0Myw0Ny4zNDAwNDM3IiBpZD0iRmlsbC01IiBmaWxsPSIjRUQ1NDk2Ij48L3BhdGg+CiAgICAgICAgICAgICAgICA8L2c+CiAgICAgICAgICAgICAgICA8ZyBpZD0iR3JvdXAtMyIgdHJhbnNmb3JtPSJ0cmFuc2xhdGUoMTIuMTQ2Nzk3LCA5LjE3NjE3OCkiPgogICAgICAgICAgICAgICAgICAgIDxtYXNrIGlkPSJtYXNrLTIiIGZpbGw9IndoaXRlIj4KICAgICAgICAgICAgICAgICAgICAgICAgPHVzZSB4bGluazpocmVmPSIjcGF0aC0xIj48L3VzZT4KICAgICAgICAgICAgICAgICAgICA8L21hc2s+CiAgICAgICAgICAgICAgICAgICAgPGcgaWQ9IkNsaXAtMiI+PC9nPgogICAgICAgICAgICAgICAgICAgIDxwYXRoIGQ9Ik0xOS45ODE3LDI2IEw0LjAxODcsMjYgQzIuOTAzNywyNiAxLjk5OTcsMjUuMDk1IDIuMDAwNjk5MTcsMjMuOTggQzIuMDAwNjk5MTcsMjMuNTU0IDIuMTM1NywyMy4xMzkgMi4zODU3LDIyLjc5NCBMNS44NzI3LDE4IEwxOC4xMjc3LDE4IEwyMS42MTQ3LDIyLjc5NCBDMjIuMjY5NywyMy42OTYgMjIuMDY5NywyNC45NTkgMjEuMTY3NywyNS42MTQgQzIwLjgyMjcsMjUuODY1IDIwLjQwNzcsMjYgMTkuOTgxNywyNiBMMTkuOTgxNywyNiBaIE0xMC4wMDA3LDEyLjMyNSBMMTAuMDAwNywyIEwxNC4wMDA3LDIgTDE0LjAwMDcsMTIuMzI1IEwxNi42NzI3LDE2IEw3LjMyNzcsMTYgTDEwLjAwMDcsMTIuMzI1IFogTTIzLjIzMTcsMjEuNjE4IEwxNi4wMDA3LDExLjY3NSBMMTYuMDAwNywyIEwxOC4wMDA3LDIgTDE4LjAwMDcsMCBMNi4wMDA3LDAgTDYuMDAwNywyIEw4LjAwMDcsMiBMOC4wMDA3LDExLjY3NSBMMC43Njg3LDIxLjYxOCBDLTAuNTM2MywyMy40MTMgLTAuMTM5MywyNS45MjYgMS42NTQ3LDI3LjIzMSBDMi4zNDE3LDI3LjczMSAzLjE2OTcsMjggNC4wMTg3LDI4IEwxOS45ODE3LDI4IEMyMi4yMDA3LDI4IDIzLjk5OTcsMjYuMjAxIDI0LjAwMDcsMjMuOTgyIEMyNC4wMDA3LDIzLjEzMyAyMy43MzE3LDIyLjMwNSAyMy4yMzE3LDIxLjYxOCBMMjMuMjMxNywyMS42MTggWiIgaWQ9IkZpbGwtMSIgZmlsbD0iI0ZGRkZGRiIgbWFzaz0idXJsKCNtYXNrLTIpIj48L3BhdGg+CiAgICAgICAgICAgICAgICA8L2c+CiAgICAgICAgICAgIDwvZz4KICAgICAgICA8L2c+CiAgICA8L2c+Cjwvc3ZnPg==;fontFamily=IBM Plex Sans;fontSource=fonts%2FIBMPlexSans-Regular.woff;fontSize=14;align=left;spacingLeft=58;spacingBottom=92;" parent="1" vertex="1">
          <mxGeometry x="-7361" y="-6510" width="212" height="135" as="geometry" />
        </mxCell>
        <mxCell id="qK7P-8Lu3oddX9ztJ0Ts-13" value="PreProd Environment&#xa;(Environment)" style="shape=image;aspect=fixed;image=data:image/svg+xml,PD94bWwgdmVyc2lvbj0iMS4wIiBlbmNvZGluZz0iVVRGLTgiPz4KPHN2ZyB3aWR0aD0iMjEycHgiIGhlaWdodD0iMTM1cHgiIHZpZXdCb3g9IjAgMCAyMTIgMTM1IiB2ZXJzaW9uPSIxLjEiIHhtbG5zPSJodHRwOi8vd3d3LnczLm9yZy8yMDAwL3N2ZyIgeG1sbnM6eGxpbms9Imh0dHA6Ly93d3cudzMub3JnLzE5OTkveGxpbmsiPgogICAgPHRpdGxlPlByZVByb2QgRW52aXJvbm1lbnQ8L3RpdGxlPgogICAgPGRlZnM+CiAgICAgICAgPHBvbHlnb24gaWQ9InBhdGgtMSIgcG9pbnRzPSIwIDAuNzAxMzc2OTIzIDEwLjI5ODUzODUgMC43MDEzNzY5MjMgMTAuMjk4NTM4NSAxMSAwIDExIj48L3BvbHlnb24+CiAgICAgICAgPHBvbHlnb24gaWQ9InBhdGgtMyIgcG9pbnRzPSItMC4wMDA0Njc5MzgyMjkgLTAuMDAxMzQ0Njc1MTUgMjQgLTAuMDAxMzQ0Njc1MTUgMjQgMjQuMDAwMjU3MSAtMC4wMDA0Njc5MzgyMjkgMjQuMDAwMjU3MSI+PC9wb2x5Z29uPgogICAgICAgIDxwb2x5Z29uIGlkPSJwYXRoLTUiIHBvaW50cz0iMC4zMzgxMjMwNzcgMC4wMDAyMTE1Mzg0NjIgMTEgMC4wMDAyMTE1Mzg0NjIgMTEgMTAuNjM4NjkyMyAwLjMzODEyMzA3NyAxMC42Mzg2OTIzIj48L3BvbHlnb24+CiAgICA8L2RlZnM+CiAgICA8ZyBpZD0iUGFnZS0xIiBzdHJva2U9Im5vbmUiIHN0cm9rZS13aWR0aD0iMSIgZmlsbD0ibm9uZSIgZmlsbC1ydWxlPSJldmVub2RkIj4KICAgICAgICA8ZyBpZD0idjItNDh4NDgiIHRyYW5zZm9ybT0idHJhbnNsYXRlKC02My4wMDAwMDAsIC01NjguMDAwMDAwKSI+CiAgICAgICAgICAgIDxnIGlkPSJQcmVQcm9kLUVudmlyb25tZW50IiB0cmFuc2Zvcm09InRyYW5zbGF0ZSg2NC4wMDAwMDAsIDU2OS45NjY3MDApIj4KICAgICAgICAgICAgICAgIDxnIGlkPSJHcm91cC0xMDgtQ29weSI+CiAgICAgICAgICAgICAgICAgICAgPGcgaWQ9Ik1hZ2VudGEtR3JvdXAtQ29weSIgdHJhbnNmb3JtPSJ0cmFuc2xhdGUoMC4wMDAwMDAsIDAuMDEyMzEzKSI+PC9nPgogICAgICAgICAgICAgICAgICAgIDxwYXRoIGQ9Ik0yMDMuNzQ4ODIxLDEzMS42NDI1NjUgTDYuNjM1NjgzMzYsMTMxLjY0MjU2NSBDMy4xOTc1NjgzMSwxMzEuNjQyNTY1IDAuMzg0NjE1Mzg1LDEyOC45Mzg3MSAwLjM4NDYxNTM4NSwxMjUuNjMzOTUyIEwwLjM4NDYxNTM4NSw2LjAyMDkyNDk4IEMwLjM4NDYxNTM4NSwyLjcxNjE2NjkxIDMuMTk3NTY4MzEsMC4wMTIzMTI2MDUgNi42MzU2ODMzNiwwLjAxMjMxMjYwNSBMMjAzLjc0ODgyMSwwLjAxMjMxMjYwNSBDMjA3LjE4NjkzNiwwLjAxMjMxMjYwNSAyMTAsMi43MTYxNjY5MSAyMTAsNi4wMjA5MjQ5OCBMMjEwLDEyNS42MzM5NTIgQzIxMCwxMjguOTM4NzEgMjA3LjE4NjkzNiwxMzEuNjQyNTY1IDIwMy43NDg4MjEsMTMxLjY0MjU2NSBaIiBpZD0iU3Ryb2tlLTMiIHN0cm9rZT0iI0VENTQ5NiIgZmlsbD0iI0ZGRkZGRiI+PC9wYXRoPgogICAgICAgICAgICAgICAgICAgIDxsaW5lIHgxPSIwLjkxMzU1ODUzIiB5MT0iNDcuNTI0OTE3NiIgeDI9IjIwOS41MzA1MDUiIHkyPSI0Ny41MjQ5MTc2IiBpZD0iUGF0aC0yLUNvcHkiIHN0cm9rZT0iI0ZGRDVFOCIgc3Ryb2tlLXdpZHRoPSIyIj48L2xpbmU+CiAgICAgICAgICAgICAgICAgICAgPHBhdGggZD0iTTUwLjY0ODQxNDMsNDcuMzQwMDQzNyBMMC4xMjA4NzIzNDIsNDcuMzQwMDQzNyBDMC4wNTQzNzg1OTYxLDQ3LjM0MDA0MzcgMCw0Ny4yODgzNTQ2IDAsNDcuMjI1MjAyNiBMMCw3LjQ2OTkyMzM4IEMwLDMuMzY4MjI5NDkgMy41MzA1ODg5OCwwLjAxMjMxMjYwNSA3Ljg0NTcwMzY1LDAuMDEyMzEyNjA1IEw1MC43NjkyMzA4LDAuMDEyMzEyNjA1IEw1MC43NjkyMzA4LDQ3LjIyNTIwMjYgQzUwLjc2OTIzMDgsNDcuMjg4MzU0NiA1MC43MTQ4NTIyLDQ3LjM0MDA0MzcgNTAuNjQ4NDE0Myw0Ny4zNDAwNDM3IiBpZD0iRmlsbC01IiBmaWxsPSIjRUQ1NDk2Ij48L3BhdGg+CiAgICAgICAgICAgICAgICA8L2c+CiAgICAgICAgICAgICAgICA8ZyBpZD0iR3JvdXAtMTAiIHRyYW5zZm9ybT0idHJhbnNsYXRlKDExLjE0Njc5NywgMTEuNTAwMDAwKSI+CiAgICAgICAgICAgICAgICAgICAgPGcgaWQ9Ikdyb3VwLTMiIHRyYW5zZm9ybT0idHJhbnNsYXRlKDAuMDAwMDAwLCAxNC4wMDAwMDApIj4KICAgICAgICAgICAgICAgICAgICAgICAgPG1hc2sgaWQ9Im1hc2stMiIgZmlsbD0id2hpdGUiPgogICAgICAgICAgICAgICAgICAgICAgICAgICAgPHVzZSB4bGluazpocmVmPSIjcGF0aC0xIj48L3VzZT4KICAgICAgICAgICAgICAgICAgICAgICAgPC9tYXNrPgogICAgICAgICAgICAgICAgICAgICAgICA8ZyBpZD0iQ2xpcC0yIj48L2c+CiAgICAgICAgICAgICAgICAgICAgICAgIDxwYXRoIGQ9Ik0zLjM4NDYxNTM4LDguOTU3MyBMMi4wNDI2MTUzOCw3LjYxNTMgTDQuMjMwNzY5MjMsNS40MjcxNDYxNSBMNS41NzI3NjkyMyw2Ljc2OTE0NjE1IEwzLjM4NDYxNTM4LDguOTU3MyBaIE02LjY5NjQ2MTU0LDUuNDk5OTE1MzggTDEwLjI5ODUzODUsMS44OTc4Mzg0NiBMOS4xMDIwNzY5MiwwLjcwMTM3NjkyMyBMNS40OTk5OTk1OSw0LjMwMzQ1Mzg1IEw0LjgyOSwzLjYzMjQ1Mzg1IEM0LjQ5OSwzLjMwMjQ1Mzg1IDMuOTYzMzg0NjIsMy4zMDE2MDc2OSAzLjYzMzM4NDYyLDMuNjMxNjA3NjkgTDMuNjMyNTM4NDYsMy42MzI0NTM4NSBMMC4yNDc5MjMwNzcsNy4wMTcwNjkyMyBDLTAuMDgyMDc2OTIzMSw3LjM0NzA2OTIzIC0wLjA4MjkyMzA3NjksNy44ODI2ODQ2MiAwLjI0NzA3NjkyMyw4LjIxMjY4NDYyIEMwLjI0NzkyMzA3Nyw4LjIxMzUzMDc3IDAuMjQ3OTIzMDc3LDguMjEzNTMwNzcgMC4yNDc5MjMwNzcsOC4yMTM1MzA3NyBMMi43ODYzODQ2MiwxMC43NTE5OTIzIEMzLjExNjM4NDYyLDExLjA4MjgzODUgMy42NTIsMTEuMDgyODM4NSAzLjk4Mjg0NjE1LDEwLjc1MjgzODUgQzMuOTgyODQ2MTUsMTAuNzUxOTkyMyAzLjk4Mjg0NjE1LDEwLjc1MTk5MjMgMy45ODI4NDYxNSwxMC43NTE5OTIzIEw3LjM2NzQ2MTU0LDcuMzY3Mzc2OTIgQzcuNjk3NDYxNTQsNy4wMzczNzY5MiA3LjY5ODMwNzY5LDYuNTAxNzYxNTQgNy4zNjgzMDc2OSw2LjE3MTc2MTU0IEM3LjM2NzQ2MTU0LDYuMTcxNzYxNTQgNy4zNjc0NjE1NCw2LjE3MDkxNTM4IDcuMzY3NDYxNTQsNi4xNzA5MTUzOCBMNi42OTY0NjE1NCw1LjQ5OTkxNTM4IFoiIGlkPSJGaWxsLTEiIGZpbGw9IiNGRkZGRkYiIG1hc2s9InVybCgjbWFzay0yKSI+PC9wYXRoPgogICAgICAgICAgICAgICAgICAgIDwvZz4KICAgICAgICAgICAgICAgICAgICA8ZyBpZD0iR3JvdXAtNiIgdHJhbnNmb3JtPSJ0cmFuc2xhdGUoMS4wMDAwMDAsIDAuMDAwMDAwKSI+CiAgICAgICAgICAgICAgICAgICAgICAgIDxtYXNrIGlkPSJtYXNrLTQiIGZpbGw9IndoaXRlIj4KICAgICAgICAgICAgICAgICAgICAgICAgICAgIDx1c2UgeGxpbms6aHJlZj0iI3BhdGgtMyI+PC91c2U+CiAgICAgICAgICAgICAgICAgICAgICAgIDwvbWFzaz4KICAgICAgICAgICAgICAgICAgICAgICAgPGcgaWQ9IkNsaXAtNSI+PC9nPgogICAgICAgICAgICAgICAgICAgICAgICA8cGF0aCBkPSJNNi45MTA3MTQyOSw4LjEyMjU0Mjg2IEwxNS44NzcyODU3LDE3LjA4OTExNDMgTDE1LjY3MjQyODYsMTcuNjExOTcxNCBDMTQuOTczLDE5LjM1ODgyODYgMTUuODIzMjg1NywyMS4zNDIyNTcxIDE3LjU3MSwyMi4wNDA4Mjg2IEMxNy45MTMsMjIuMTc3OTcxNCAxOC4yNzQ3MTQzLDIyLjI1ODU0MjkgMTguNjQzMjg1NywyMi4yNzkxMTQzIEwxNy44OTU4NTcxLDIxLjUzMjU0MjkgQzE2Ljg5MjE0MjksMjAuNTI4ODI4NiAxNi44OTIxNDI5LDE4LjkwMTExNDMgMTcuODk1ODU3MSwxNy44OTY1NDI5IEwxNy44OTU4NTcxLDE3Ljg5NTY4NTcgQzE4LjkxNDE0MjksMTYuOTI0NTQyOSAyMC41MTUyODU3LDE2LjkyNDU0MjkgMjEuNTMyNzE0MywxNy44OTY1NDI5IEwyMi4yNzkyODU3LDE4LjY0MzExNDMgQzIyLjE3MjE0MjksMTYuNzYzNCAyMC41NjI0Mjg2LDE1LjMyNjgyODYgMTguNjgyNzE0MywxNS40MzM5NzE0IEMxOC4zMTUsMTUuNDU0NTQyOSAxNy45NTMyODU3LDE1LjUzNTExNDMgMTcuNjExMjg1NywxNS42NzIyNTcxIEwxNy4wODkyODU3LDE1Ljg3NjI1NzEgTDguMTIzNTcxNDMsNi45MTA1NDI4NiBMOC4zMjg0Mjg1Nyw2LjM4ODU0Mjg2IEM5LjAyNyw0LjY0MDgyODU3IDguMTc3NTcxNDMsMi42NTgyNTcxNCA2LjQyOTg1NzE0LDEuOTU4ODI4NTcgQzYuMDg3ODU3MTQsMS44MjI1NDI4NiA1LjcyNTI4NTcxLDEuNzQxOTcxNDMgNS4zNTc1NzE0MywxLjcyMTQgTDYuMTA0MTQyODYsMi40Njc5NzE0MyBDNy4xMDc4NTcxNCwzLjQ3MTY4NTcxIDcuMTA4NzE0MjksNS4wOTk0IDYuMTA0MTQyODYsNi4xMDMxMTQyOSBDNi4xMDQxNDI4Niw2LjEwMzExNDI5IDYuMTA0MTQyODYsNi4xMDM5NzE0MyA2LjEwNDE0Mjg2LDYuMTAzOTcxNDMgQzUuMDg1ODU3MTQsNy4wNzUxMTQyOSAzLjQ4NDcxNDI5LDcuMDc1MTE0MjkgMi40NjcyODU3MSw2LjEwMzk3MTQzIEwxLjcyMDcxNDI5LDUuMzU3NCBDMS44Mjc4NTcxNCw3LjIzNjI1NzE0IDMuNDM2NzE0MjksOC42NzI4Mjg1NyA1LjMxNTU3MTQzLDguNTY1Njg1NzEgQzUuNjgzMjg1NzEsOC41NDUxMTQyOSA2LjA0NTg1NzE0LDguNDY0NTQyODYgNi4zODg3MTQyOSw4LjMyNzQgTDYuOTEwNzE0MjksOC4xMjI1NDI4NiBaIE0xOC44NTc1NzE0LDI0LjAwMDI1NzEgQzE2LjAxNzg1NzEsMjMuOTk2ODI4NiAxMy43MTcyODU3LDIxLjY5NjI1NzEgMTMuNzEzODU3MSwxOC44NTc0IEMxMy43MTQ3MTQzLDE4LjQwOTExNDMgMTMuNzc1NTcxNCwxNy45NjM0IDEzLjg5NDcxNDMsMTcuNTMxNCBMNi40Njg0Mjg1NywxMC4xMDUxMTQzIEM2LjAzNjQyODU3LDEwLjIyNDI1NzEgNS41OTA3MTQyOSwxMC4yODUxMTQzIDUuMTQyNDI4NTcsMTAuMjg1OTcxNCBDMi4zMTM4NTcxNCwxMC4yOTcxMTQzIDAuMDExNTcxNDI4Niw4LjAxMzY4NTcxIC0wLjAwMDQ2NzkzODIyOSw1LjE4NDI1NzE0IEMtMC4wMDMsNC41Mjk0IDAuMTIwNDI4NTcxLDMuODc5Njg1NzEgMC4zNjIxNDI4NTcsMy4yNzExMTQyOSBMMC44NDA0Mjg1NzEsMi4wNTIyNTcxNCBMMy42NzkyODU3MSw0Ljg5MTk3MTQzIEM0LjAxODcxNDI5LDUuMjE1MTE0MjkgNC41NTI3MTQyOSw1LjIxNTExNDI5IDQuODkxMjg1NzEsNC44OTE5NzE0MyBDNS4yMjY0Mjg1Nyw0LjU1NzY4NTcxIDUuMjI2NDI4NTcsNC4wMTUxMTQyOSA0Ljg5MjE0Mjg2LDMuNjgwODI4NTcgQzQuODkyMTQyODYsMy42Nzk5NzE0MyA0Ljg5MTI4NTcxLDMuNjc5OTcxNDMgNC44OTEyODU3MSwzLjY3OTk3MTQzIEwyLjA1MTU3MTQzLDAuODM5NCBMMy4yNzEyODU3MSwwLjM2MTk3MTQyOSBDNS45MDEsLTAuNjgyODg1NzE0IDguODc5NTcxNDMsMC42MDI4Mjg1NzEgOS45MjQ0Mjg1NywzLjIzMjU0Mjg2IEMxMC4xNjUyODU3LDMuODQwMjU3MTQgMTAuMjg3ODU3MSw0LjQ4OTExNDI5IDEwLjI4NjE0MjksNS4xNDMxMTQyOSBDMTAuMjg1Mjg1Nyw1LjU5MDU0Mjg2IDEwLjIyNDQyODYsNi4wMzcxMTQyOSAxMC4xMDUyODU3LDYuNDY5MTE0MjkgTDE3LjUzMTU3MTQsMTMuODk0NTQyOSBDMTcuOTYzNTcxNCwxMy43NzU0IDE4LjQwOTI4NTcsMTMuNzE0NTQyOSAxOC44NTc1NzE0LDEzLjcxNDU0MjkgQzIxLjY4NjE0MjksMTMuNzAyNTQyOSAyMy45ODg0Mjg2LDE1Ljk4NTk3MTQgMjQuMDAwNDY3OSwxOC44MTU0IEMyNC4wMDMsMTkuNDcwMjU3MSAyMy44Nzk1NzE0LDIwLjExOTk3MTQgMjMuNjM3ODU3MSwyMC43Mjg1NDI5IEwyMy4xNjA0Mjg2LDIxLjk0NzQgTDIwLjMyMDcxNDMsMTkuMTA4NTQyOSBDMTkuOTgxMjg1NywxOC43ODQ1NDI5IDE5LjQ0NzI4NTcsMTguNzg0NTQyOSAxOS4xMDg3MTQzLDE5LjEwODU0MjkgQzE4Ljc3MzU3MTQsMTkuNDQxOTcxNCAxOC43NzM1NzE0LDE5Ljk4NDU0MjkgMTkuMTA3LDIwLjMxOTY4NTcgQzE5LjEwNzg1NzEsMjAuMzE5Njg1NyAxOS4xMDc4NTcxLDIwLjMxOTY4NTcgMTkuMTA3ODU3MSwyMC4zMjA1NDI5IEwyMS45NDc1NzE0LDIzLjE2MDI1NzEgTDIwLjcyODcxNDMsMjMuNjM4NTQyOSBDMjAuMTMzLDIzLjg3NTExNDMgMTkuNDk3ODU3MSwyMy45OTc2ODU3IDE4Ljg1NzU3MTQsMjQuMDAwMjU3MSBMMTguODU3NTcxNCwyNC4wMDAyNTcxIFoiIGlkPSJGaWxsLTQiIGZpbGw9IiNGRkZGRkYiIG1hc2s9InVybCgjbWFzay00KSI+PC9wYXRoPgogICAgICAgICAgICAgICAgICAgIDwvZz4KICAgICAgICAgICAgICAgICAgICA8ZyBpZD0iR3JvdXAtOSIgdHJhbnNmb3JtPSJ0cmFuc2xhdGUoMTQuMDAwMDAwLCAwLjAwMDAwMCkiPgogICAgICAgICAgICAgICAgICAgICAgICA8bWFzayBpZD0ibWFzay02IiBmaWxsPSJ3aGl0ZSI+CiAgICAgICAgICAgICAgICAgICAgICAgICAgICA8dXNlIHhsaW5rOmhyZWY9IiNwYXRoLTUiPjwvdXNlPgogICAgICAgICAgICAgICAgICAgICAgICA8L21hc2s+CiAgICAgICAgICAgICAgICAgICAgICAgIDxnIGlkPSJDbGlwLTgiPjwvZz4KICAgICAgICAgICAgICAgICAgICAgICAgPHBhdGggZD0iTTEwLjI1NzU4NDYsMC43MTkyMzA3NjkgQzkuMjUzMiwtMC4yMzk0NjE1MzggNy42NzI1ODQ2MiwtMC4yMzk0NjE1MzggNi42NjgyLDAuNzE5MjMwNzY5IEwwLjMzODEyMzA3Nyw3LjA0ODQ2MTU0IEwxLjUzNDU4NDYyLDguMjQ0OTIzMDggTDcuODYzODE1MzgsMS45MTU2OTIzMSBDOC4xOTg4OTIzMSwxLjU5NTg0NjE1IDguNzI2MDQ2MTUsMS41OTU4NDYxNSA5LjA2MTEyMzA4LDEuOTE1NjkyMzEgQzkuMzkwMjc2OTIsMi4yNDY1Mzg0NiA5LjM5MDI3NjkyLDIuNzgxMzA3NjkgOS4wNjExMjMwOCwzLjExMyBMMi43MzE4OTIzMSw5LjQ0MjIzMDc3IEwzLjkyODM1Mzg1LDEwLjYzODY5MjMgTDEwLjI1NzU4NDYsNC4zMDk0NjE1NCBDMTEuMjQ3NTg0NiwzLjMxNzc2OTIzIDExLjI0NzU4NDYsMS43MTA5MjMwOCAxMC4yNTc1ODQ2LDAuNzE5MjMwNzY5IiBpZD0iRmlsbC03IiBmaWxsPSIjRkZGRkZGIiBtYXNrPSJ1cmwoI21hc2stNikiPjwvcGF0aD4KICAgICAgICAgICAgICAgICAgICA8L2c+CiAgICAgICAgICAgICAgICA8L2c+CiAgICAgICAgICAgIDwvZz4KICAgICAgICA8L2c+CiAgICA8L2c+Cjwvc3ZnPg==;spacingLeft=58;spacingBottom=91;fontFamily=IBM Plex Sans;fontSource=fonts%2FIBMPlexSans-Regular.woff;fontSize=14;align=left;" parent="1" vertex="1">
          <mxGeometry x="-7112.63" y="-6510" width="212" height="135" as="geometry" />
        </mxCell>
        <mxCell id="qK7P-8Lu3oddX9ztJ0Ts-15" value="Source Repository&#xa;(Internal Service)" style="shape=image;aspect=fixed;image=data:image/svg+xml,PD94bWwgdmVyc2lvbj0iMS4wIiBlbmNvZGluZz0iVVRGLTgiPz4KPHN2ZyB3aWR0aD0iMjEycHgiIGhlaWdodD0iMTM1cHgiIHZpZXdCb3g9IjAgMCAyMTIgMTM1IiB2ZXJzaW9uPSIxLjEiIHhtbG5zPSJodHRwOi8vd3d3LnczLm9yZy8yMDAwL3N2ZyIgeG1sbnM6eGxpbms9Imh0dHA6Ly93d3cudzMub3JnLzE5OTkveGxpbmsiPgogICAgPHRpdGxlPlNvdXJjZSBSZXBvc2l0b3J5PC90aXRsZT4KICAgIDxnIGlkPSJQYWdlLTEiIHN0cm9rZT0ibm9uZSIgc3Ryb2tlLXdpZHRoPSIxIiBmaWxsPSJub25lIiBmaWxsLXJ1bGU9ImV2ZW5vZGQiPgogICAgICAgIDxnIGlkPSJ2Mi00OHg0OCIgdHJhbnNmb3JtPSJ0cmFuc2xhdGUoLTMxMy4wMDAwMDAsIC01NzMuMDAwMDAwKSI+CiAgICAgICAgICAgIDxnIGlkPSJTb3VyY2UtUmVwb3NpdG9yeSIgdHJhbnNmb3JtPSJ0cmFuc2xhdGUoMzE0LjAwMDAwMCwgNTc0Ljk2NjcwMCkiPgogICAgICAgICAgICAgICAgPGcgaWQ9Ikdyb3VwLTExMS1Db3B5LTEzIj4KICAgICAgICAgICAgICAgICAgICA8cGF0aCBkPSJNMjAzLjc0ODgyMSwxMzEuNjQyNTY1IEw2LjYzNTY4MzM2LDEzMS42NDI1NjUgQzMuMTk3NTY4MzEsMTMxLjY0MjU2NSAwLjM4NDYxNTM4NSwxMjguOTM4NzEgMC4zODQ2MTUzODUsMTI1LjYzMzk1MiBMMC4zODQ2MTUzODUsNi4wMjA5MjQ5OCBDMC4zODQ2MTUzODUsMi43MTYxNjY5MSAzLjE5NzU2ODMxLDAuMDEyMzEyNjA1IDYuNjM1NjgzMzYsMC4wMTIzMTI2MDUgTDIwMy43NDg4MjEsMC4wMTIzMTI2MDUgQzIwNy4xODY5MzYsMC4wMTIzMTI2MDUgMjEwLDIuNzE2MTY2OTEgMjEwLDYuMDIwOTI0OTggTDIxMCwxMjUuNjMzOTUyIEMyMTAsMTI4LjkzODcxIDIwNy4xODY5MzYsMTMxLjY0MjU2NSAyMDMuNzQ4ODIxLDEzMS42NDI1NjUgWiIgaWQ9IlN0cm9rZS0zIiBzdHJva2U9IiMxMDYxRkUiIGZpbGw9IiNGRkZGRkYiPjwvcGF0aD4KICAgICAgICAgICAgICAgICAgICA8bGluZSB4MT0iMC45NTQ4ODIyMTUiIHkxPSI0Ny41MjQ5MTc2IiB4Mj0iMjA5LjQxNjE5OSIgeTI9IjQ3LjUyNDkxNzYiIGlkPSJQYXRoLTItQ29weSIgc3Ryb2tlPSIjRDRFMEY4IiBzdHJva2Utd2lkdGg9IjIiPjwvbGluZT4KICAgICAgICAgICAgICAgICAgICA8cGF0aCBkPSJNNTAuNjQ4NDE0Myw0Ny4zNDAwNDM3IEwwLjEyMDg3MjM0Miw0Ny4zNDAwNDM3IEMwLjA1NDM3ODU5NjEsNDcuMzQwMDQzNyAwLDQ3LjI4ODM1NDYgMCw0Ny4yMjUyMDI2IEwwLDcuNDY5OTIzMzggQzAsMy4zNjgyMjk0OSAzLjUzMDU4ODk4LDAuMDEyMzEyNjA1IDcuODQ1NzAzNjUsMC4wMTIzMTI2MDUgTDUwLjc2OTIzMDgsMC4wMTIzMTI2MDUgTDUwLjc2OTIzMDgsNDcuMjI1MjAyNiBDNTAuNzY5MjMwOCw0Ny4yODgzNTQ2IDUwLjcxNDg1MjIsNDcuMzQwMDQzNyA1MC42NDg0MTQzLDQ3LjM0MDA0MzciIGlkPSJGaWxsLTUiIGZpbGw9IiMxMDYxRkUiPjwvcGF0aD4KICAgICAgICAgICAgICAgIDwvZz4KICAgICAgICAgICAgICAgIDxnIGlkPSJHcm91cCIgdHJhbnNmb3JtPSJ0cmFuc2xhdGUoMTAuODg0NjE1LCAxMC4wMDAwMDApIiBzdHJva2U9IiNGRkZGRkYiPgogICAgICAgICAgICAgICAgICAgIDxyZWN0IGlkPSJSZWN0YW5nbGUiIHg9IjAuNSIgeT0iMC41IiB3aWR0aD0iNy42NzYwNTYzNCIgaGVpZ2h0PSI3LjU3NzQ2NDc5Ij48L3JlY3Q+CiAgICAgICAgICAgICAgICAgICAgPHJlY3QgaWQ9IlJlY3RhbmdsZS1Db3B5LTkiIHg9IjAuNSIgeT0iMTAuMjAwNjUxNyIgd2lkdGg9IjcuNjc2MDU2MzQiIGhlaWdodD0iNy41Nzc0NjQ3OSI+PC9yZWN0PgogICAgICAgICAgICAgICAgICAgIDxyZWN0IGlkPSJSZWN0YW5nbGUtQ29weS0xMiIgeD0iMC41IiB5PSIxOS45MDEzMDMzIiB3aWR0aD0iNy42NzYwNTYzNCIgaGVpZ2h0PSI3LjU3NzQ2NDc5Ij48L3JlY3Q+CiAgICAgICAgICAgICAgICAgICAgPHJlY3QgaWQ9IlJlY3RhbmdsZS1Db3B5LTciIHg9IjEwLjQzMzQ1NDQiIHk9IjAuNSIgd2lkdGg9IjcuNjc2MDU2MzQiIGhlaWdodD0iNy41Nzc0NjQ3OSI+PC9yZWN0PgogICAgICAgICAgICAgICAgICAgIDxyZWN0IGlkPSJSZWN0YW5nbGUtQ29weS0xMCIgeD0iMTAuNDMzNDU0NCIgeT0iMTAuMjAwNjUxNyIgd2lkdGg9IjcuNjc2MDU2MzQiIGhlaWdodD0iNy41Nzc0NjQ3OSI+PC9yZWN0PgogICAgICAgICAgICAgICAgICAgIDxyZWN0IGlkPSJSZWN0YW5nbGUtQ29weS0xMyIgeD0iMTAuNDMzNDU0NCIgeT0iMTkuOTAxMzAzMyIgd2lkdGg9IjcuNjc2MDU2MzQiIGhlaWdodD0iNy41Nzc0NjQ3OSI+PC9yZWN0PgogICAgICAgICAgICAgICAgICAgIDxyZWN0IGlkPSJSZWN0YW5nbGUtQ29weS04IiB4PSIyMC4yNTk1NDU1IiB5PSIwLjUiIHdpZHRoPSI3LjY3NjA1NjM0IiBoZWlnaHQ9IjcuNTc3NDY0NzkiPjwvcmVjdD4KICAgICAgICAgICAgICAgICAgICA8cmVjdCBpZD0iUmVjdGFuZ2xlLUNvcHktMTEiIHg9IjIwLjI1OTU0NTUiIHk9IjEwLjIwMDY1MTciIHdpZHRoPSI3LjY3NjA1NjM0IiBoZWlnaHQ9IjcuNTc3NDY0NzkiPjwvcmVjdD4KICAgICAgICAgICAgICAgICAgICA8cmVjdCBpZD0iUmVjdGFuZ2xlLUNvcHktMTQiIHg9IjIwLjI1OTU0NTUiIHk9IjE5LjkwMTMwMzMiIHdpZHRoPSI3LjY3NjA1NjM0IiBoZWlnaHQ9IjcuNTc3NDY0NzkiPjwvcmVjdD4KICAgICAgICAgICAgICAgIDwvZz4KICAgICAgICAgICAgPC9nPgogICAgICAgIDwvZz4KICAgIDwvZz4KPC9zdmc+;align=left;fontFamily=IBM Plex Sans;fontSource=fonts%2FIBMPlexSans-Regular.woff;fontSize=14;spacingLeft=58;spacingBottom=92;imageBackground=#1192E8;" parent="1" vertex="1">
          <mxGeometry x="-7910" y="-6242" width="212" height="135" as="geometry" />
        </mxCell>
        <mxCell id="qK7P-8Lu3oddX9ztJ0Ts-19" value="Prod Environment&#xa;(Environment)" style="shape=image;aspect=fixed;image=data:image/svg+xml,PD94bWwgdmVyc2lvbj0iMS4wIiBlbmNvZGluZz0iVVRGLTgiPz4KPHN2ZyB3aWR0aD0iMjEycHgiIGhlaWdodD0iMTM0cHgiIHZpZXdCb3g9IjAgMCAyMTIgMTM0IiB2ZXJzaW9uPSIxLjEiIHhtbG5zPSJodHRwOi8vd3d3LnczLm9yZy8yMDAwL3N2ZyIgeG1sbnM6eGxpbms9Imh0dHA6Ly93d3cudzMub3JnLzE5OTkveGxpbmsiPgogICAgPHRpdGxlPlByb2QgRW5udmlyb25tZW50PC90aXRsZT4KICAgIDxnIGlkPSJQYWdlLTEiIHN0cm9rZT0ibm9uZSIgc3Ryb2tlLXdpZHRoPSIxIiBmaWxsPSJub25lIiBmaWxsLXJ1bGU9ImV2ZW5vZGQiPgogICAgICAgIDxnIGlkPSJ2Mi00OHg0OCIgdHJhbnNmb3JtPSJ0cmFuc2xhdGUoLTYzLjAwMDAwMCwgLTg4MC4wMDAwMDApIj4KICAgICAgICAgICAgPGcgaWQ9IlByb2QtRW5udmlyb25tZW50IiB0cmFuc2Zvcm09InRyYW5zbGF0ZSg2NC4wMDAwMDAsIDg4MC45NzkwMTMpIj4KICAgICAgICAgICAgICAgIDxnIGlkPSJNYWdlbnRhLUdyb3VwLUNvcHkiIHRyYW5zZm9ybT0idHJhbnNsYXRlKDcuMDAwMDAwLCAxMi4wMDAwMDApIj48L2c+CiAgICAgICAgICAgICAgICA8ZyBpZD0iTWFnZW50YS1Hcm91cC1Db3B5IiB0cmFuc2Zvcm09InRyYW5zbGF0ZSgtMC4wMDAwMDAsIC0wLjAwMDAwMCkiPjwvZz4KICAgICAgICAgICAgICAgIDxwYXRoIGQ9Ik0yMDMuNzQ4ODIxLDEzMS42MzAyNTIgTDYuNjM1NjgzMzYsMTMxLjYzMDI1MiBDMy4xOTc1NjgzMSwxMzEuNjMwMjUyIDAuMzg0NjE1Mzg1LDEyOC45MjYzOTggMC4zODQ2MTUzODUsMTI1LjYyMTY0IEwwLjM4NDYxNTM4NSw2LjAwODYxMjM3IEMwLjM4NDYxNTM4NSwyLjcwMzg1NDMgMy4xOTc1NjgzMSwtNy4xMDU0MjczNmUtMTQgNi42MzU2ODMzNiwtNy4xMDU0MjczNmUtMTQgTDIwMy43NDg4MjEsLTcuMTA1NDI3MzZlLTE0IEMyMDcuMTg2OTM2LC03LjEwNTQyNzM2ZS0xNCAyMTAsMi43MDM4NTQzIDIxMCw2LjAwODYxMjM3IEwyMTAsMTI1LjYyMTY0IEMyMTAsMTI4LjkyNjM5OCAyMDcuMTg2OTM2LDEzMS42MzAyNTIgMjAzLjc0ODgyMSwxMzEuNjMwMjUyIFoiIGlkPSJTdHJva2UtMyIgc3Ryb2tlPSIjRUQ1NDk2IiBmaWxsPSIjRkZGRkZGIj48L3BhdGg+CiAgICAgICAgICAgICAgICA8bGluZSB4MT0iMC44NTk4NTM0NTUiIHkxPSI0Ny41MTI2MDUiIHgyPSIyMDkuNDg2MDEzIiB5Mj0iNDcuNTEyNjA1IiBpZD0iUGF0aC0yLUNvcHkiIHN0cm9rZT0iI0ZGRDVFOCIgc3Ryb2tlLXdpZHRoPSIyIj48L2xpbmU+CiAgICAgICAgICAgICAgICA8cGF0aCBkPSJNMC4xMjA4NzIzNDEsNDcuMzI3NzMxMSBDMC4wNTQzNzg1OTYxLDQ3LjMyNzczMTEgLTEuNDU2NjEyNjFlLTEzLDQ3LjI3NjA0MiAtMS40NTY2MTI2MWUtMTMsNDcuMjEyODkgTC0xLjQ1NjYxMjYxZS0xMyw3LjQ1NzYxMDc3IEMtMS40NTY2MTI2MWUtMTMsMy4zNTU5MTY4OSAzLjUzMDU4ODk4LC04LjUyNjUxMjgzZS0xNCA3Ljg0NTcwMzY1LC04LjUyNjUxMjgzZS0xNCBMNTAuNzY5MjMwOCwtOC41MjY1MTI4M2UtMTQgTDUwLjc2OTIzMDgsNDcuMjEyODkgQzUwLjc2OTIzMDgsNDcuMjc2MDQyIDUwLjcxNDg1MjIsNDcuMzI3NzMxMSA1MC42NDg0MTQzLDQ3LjMyNzczMTEgTDAuMTIwODcyMzQxLDQ3LjMyNzczMTEgWiIgaWQ9IkZpbGwtNSIgZmlsbD0iI0VENTQ5NiI+PC9wYXRoPgogICAgICAgICAgICAgICAgPHBhdGggZD0iTTEzLjM4NDYxNTQsMjIuNjYzODY1NSBMMTMuMzg0NjE1NCwxOS42NjM4NjU1IEMxMy4zODQ2MTU0LDE5LjExMTg2NTUgMTMuODMyNjE1NCwxOC42NjM4NjU1IDE0LjM4NDYxNTQsMTguNjYzODY1NSBMMzYuMzg0NjE1NCwxOC42NjM4NjU1IEMzNi45MzY2MTU0LDE4LjY2Mzg2NTUgMzcuMzg0NjE1NCwxOS4xMTE4NjU1IDM3LjM4NDYxNTQsMTkuNjYzODY1NSBMMzcuMzg0NjE1NCwyMi42NjM4NjU1IEwxMy4zODQ2MTU0LDIyLjY2Mzg2NTUgWiBNMjMuMzg0NjE1NCwyNy42NjM4NjU1IEwyNy4zODQ2MTU0LDI3LjY2Mzg2NTUgTDI3LjM4NDYxNTQsMjQuNjYzODY1NSBMMjMuMzg0NjE1NCwyNC42NjM4NjU1IEwyMy4zODQ2MTU0LDI3LjY2Mzg2NTUgWiBNMzcuMzg0NjE1NCwzMy42NjM4NjU1IEwxMy4zODQ2MTU0LDMzLjY2Mzg2NTUgTDEzLjM4NDYxNTQsMjQuNjYzODY1NSBMMjEuMzg0NjE1NCwyNC42NjM4NjU1IEwyMS4zODQ2MTU0LDI5LjY2Mzg2NTUgTDI5LjM4NDYxNTQsMjkuNjYzODY1NSBMMjkuMzg0NjE1NCwyNC42NjM4NjU1IEwzNy4zODQ2MTU0LDI0LjY2Mzg2NTUgTDM3LjM4NDYxNTQsMzMuNjYzODY1NSBaIE0xOS4zODQ2MTU0LDE2LjY2Mzg2NTUgTDMxLjM4NDYxNTQsMTYuNjYzODY1NSBMMzEuMzg0NjE1NCwxMy42NjM4NjU1IEwxOS4zODQ2MTU0LDEzLjY2Mzg2NTUgTDE5LjM4NDYxNTQsMTYuNjYzODY1NSBaIE0zNi4zODQ2MTU0LDE2LjY2Mzg2NTUgTDMzLjM4NDYxNTQsMTYuNjYzODY1NSBMMzMuMzg0NjE1NCwxMy42NjM4NjU1IEMzMy4zODQ2MTU0LDEyLjU1ODg2NTUgMzIuNDg5NjE1NCwxMS42NjM4NjU1IDMxLjM4NDYxNTQsMTEuNjYzODY1NSBMMTkuMzg0NjE1NCwxMS42NjM4NjU1IEMxOC4yNzk2MTU0LDExLjY2Mzg2NTUgMTcuMzg0NjE1NCwxMi41NTg4NjU1IDE3LjM4NDYxNTQsMTMuNjYzODY1NSBMMTcuMzg0NjE1NCwxNi42NjM4NjU1IEwxNC4zODQ2MTU0LDE2LjY2Mzg2NTUgQzEyLjcyNzYxNTQsMTYuNjYzODY1NSAxMS4zODQ2MTU0LDE4LjAwNjg2NTUgMTEuMzg0NjE1NCwxOS42NjM4NjU1IEwxMS4zODQ2MTU0LDMzLjY2Mzg2NTUgQzExLjM4NDYxNTQsMzQuNzY4ODY1NSAxMi4yNzk2MTU0LDM1LjY2Mzg2NTUgMTMuMzg0NjE1NCwzNS42NjM4NjU1IEwzNy4zODQ2MTU0LDM1LjY2Mzg2NTUgQzM4LjQ4OTYxNTQsMzUuNjYzODY1NSAzOS4zODQ2MTU0LDM0Ljc2ODg2NTUgMzkuMzg0NjE1NCwzMy42NjM4NjU1IEwzOS4zODQ2MTU0LDE5LjY2Mzg2NTUgQzM5LjM4NDYxNTQsMTguMDA2ODY1NSAzOC4wNDE2MTU0LDE2LjY2Mzg2NTUgMzYuMzg0NjE1NCwxNi42NjM4NjU1IEwzNi4zODQ2MTU0LDE2LjY2Mzg2NTUgWiIgaWQ9IkZpbGwtMSIgZmlsbD0iI0ZGRkZGRiI+PC9wYXRoPgogICAgICAgICAgICA8L2c+CiAgICAgICAgPC9nPgogICAgPC9nPgo8L3N2Zz4=;fontFamily=IBM Plex Sans;fontSource=fonts%2FIBMPlexSans-Regular.woff;fontSize=14;align=left;spacingLeft=58;spacingBottom=92;" parent="1" vertex="1">
          <mxGeometry x="-6858" y="-6510" width="212" height="134" as="geometry" />
        </mxCell>
        <mxCell id="qK7P-8Lu3oddX9ztJ0Ts-21" value="" style="group" parent="1" vertex="1" connectable="0">
          <mxGeometry x="-6858" y="-6720" width="212" height="134" as="geometry" />
        </mxCell>
        <mxCell id="bQxnhAWywP4pUUYXjwK0-35" value="Production Service&#xa;(Service)" style="shape=image;image=data:image/svg+xml,PD94bWwgdmVyc2lvbj0iMS4wIiBlbmNvZGluZz0iVVRGLTgiPz4KPHN2ZyB3aWR0aD0iMzgwN3B4IiBoZWlnaHQ9IjI0OTRweCIgdmlld0JveD0iMCAwIDM4MDcgMjQ5NCIgdmVyc2lvbj0iMS4xIiB4bWxucz0iaHR0cDovL3d3dy53My5vcmcvMjAwMC9zdmciIHhtbG5zOnhsaW5rPSJodHRwOi8vd3d3LnczLm9yZy8xOTk5L3hsaW5rIj4KICAgIDwhLS0gR2VuZXJhdG9yOiBTa2V0Y2ggNTMgKDcyNTIwKSAtIGh0dHBzOi8vc2tldGNoYXBwLmNvbSAtLT4KICAgIDx0aXRsZT5TZXJ2aWNlcyBHcm91cCBNYWdlbnRhPC90aXRsZT4KICAgIDxkZXNjPkNyZWF0ZWQgd2l0aCBTa2V0Y2guPC9kZXNjPgogICAgPGcgaWQ9IlBhZ2UtMSIgc3Ryb2tlPSJub25lIiBzdHJva2Utd2lkdGg9IjEiIGZpbGw9Im5vbmUiIGZpbGwtcnVsZT0iZXZlbm9kZCI+CiAgICAgICAgPGcgaWQ9IlNlcnZpY2VzLUdyb3VwLU1hZ2VudGEiIHRyYW5zZm9ybT0idHJhbnNsYXRlKDAuMDAwMDAwLCA4LjcxNzAwMCkiPgogICAgICAgICAgICA8ZyBpZD0iTWFnZW50YS1Hcm91cC1Db3B5Ij48L2c+CiAgICAgICAgICAgIDxwYXRoIGQ9Ik0zNjg1LjAyMjksMjQ3Ni4yNDk3IEwxMjEuNTEwOSwyNDc2LjI0OTcgQzU5LjM1NDksMjQ3Ni4yNDk3IDguNTAwOSwyNDI1LjM5NDcgOC41MDA5LDIzNjMuMjM3NyBMOC41MDA5LDExMy41MTU3IEM4LjUwMDksNTEuMzU4NyA1OS4zNTQ5LDAuNTAzNyAxMjEuNTEwOSwwLjUwMzcgTDM2ODUuMDIyOSwwLjUwMzcgQzM3NDcuMTc4OSwwLjUwMzcgMzc5OC4wMzQ5LDUxLjM1ODcgMzc5OC4wMzQ5LDExMy41MTU3IEwzNzk4LjAzNDksMjM2My4yMzc3IEMzNzk4LjAzNDksMjQyNS4zOTQ3IDM3NDcuMTc4OSwyNDc2LjI0OTcgMzY4NS4wMjI5LDI0NzYuMjQ5NyBaIiBpZD0iU3Ryb2tlLTMiIHN0cm9rZT0iI0VENTQ5NiIgc3Ryb2tlLXdpZHRoPSIxNyIgZmlsbD0iI0ZGRkZGRiI+PC9wYXRoPgogICAgICAgICAgICA8cGF0aCBkPSJNOTE4LjQyNzI1OCw4ODcuNTM5OCBMMi44MDY5NTMzNCw4ODcuNTM5OCBDMS42MDIwMDYwOCw4ODcuNTM5OCAwLjYxNjYsODg2LjU3MTAyMSAwLjYxNjYsODg1LjM4NzQwMSBMMC42MTY2LDE0MC4yNzczNTUgQzAuNjE2Niw2My40MDE2OTU3IDY0LjU5NTE1MTcsMC41MDM3IDE0Mi43OTAyNiwwLjUwMzcgTDkyMC42MTY2LDAuNTAzNyBMOTIwLjYxNjYsODg1LjM4NzQwMSBDOTIwLjYxNjYsODg2LjU3MTAyMSA5MTkuNjMxMTk0LDg4Ny41Mzk4IDkxOC40MjcyNTgsODg3LjUzOTgiIGlkPSJGaWxsLTUiIGZpbGw9IiNFRDU0OTYiPjwvcGF0aD4KICAgICAgICAgICAgPHBhdGggZD0iTTgsODk2LjgzMzk5MSBMMzc5NS43MzQ0LDg5Ni44MzM5OTEiIGlkPSJQYXRoLTItQ29weSIgc3Ryb2tlPSIjRkZENUU4IiBzdHJva2Utd2lkdGg9IjEyIj48L3BhdGg+CiAgICAgICAgICAgIDxwYXRoIGQ9Ik03MTcuNjA5MTM3LDM0MC43MTQ4MzUgTDY4Ni45MjI3NzEsMzQwLjcxNDgzNSBMNjg2LjkyMjc3MSwyMTcuOTY5MzY3IEw0NTYuNzc1MDE4LDIxNy45NjkzNjcgTDQ1Ni43NzUwMTgsMTg3LjI4MyBMNjg2LjkyMjc3MSwxODcuMjgzIEM3MDMuODYyMzIxLDE4Ny4zMDI0NDcgNzE3LjU4OTY5MSwyMDEuMDI5ODE2IDcxNy42MDkxMzcsMjE3Ljk2OTM2NyBMNzE3LjYwOTEzNywzNDAuNzE0ODM1IFoiIGlkPSJQYXRoIiBzdHJva2U9IiNGRkZGRkYiIGZpbGw9IiNGRkZGRkYiIGZpbGwtcnVsZT0ibm9uemVybyI+PC9wYXRoPgogICAgICAgICAgICA8cGF0aCBkPSJNNjQwLjg5MzIyLDQxNy40MzA3NTIgTDYxMC4yMDY4NTMsNDE3LjQzMDc1MiBMNjEwLjIwNjg1MywyOTQuNjg1Mjg0IEwzODAuMDU5MTAxLDI5NC42ODUyODQgTDM4MC4wNTkxMDEsMjYzLjk5ODkxNyBMNjEwLjIwNjg1MywyNjMuOTk4OTE3IEM2MjcuMTQ2NDA0LDI2NC4wMTgzNjQgNjQwLjg3Mzc3MywyNzcuNzQ1NzM0IDY0MC44OTMyMiwyOTQuNjg1Mjg0IEw2NDAuODkzMjIsNDE3LjQzMDc1MiBaIiBpZD0iUGF0aCIgc3Ryb2tlPSIjRkZGRkZGIiBmaWxsPSIjRkZGRkZGIiBmaWxsLXJ1bGU9Im5vbnplcm8iPjwvcGF0aD4KICAgICAgICAgICAgPHBhdGggZD0iTTMzNy45OTU3NjEsMzUxLjg5NTYwNyBDMzI0LjI1OTM0MywzNTEuODk1NjA3IDMxOS40NzEzMDIsMzUyLjgyMDIyMSAzMTQuNTUzODkzLDM1NS40NTAwOCBDMzEwLjYzODA5NiwzNTcuNTQ0MjcxIDMwNy42NDg2NjQsMzYwLjUzMzcwMyAzMDUuNTU0NDcyLDM2NC40NDk1IEMzMDIuOTI0NjEzLDM2OS4zNjY5MDkgMzAyLDM3NC4xNTQ5NSAzMDIsMzg3Ljg5MTM2OSBMMzAyLDYxOS44OTUzNzggQzMwMiw2MzMuNjMxNzk2IDMwMi45MjQ2MTMsNjM4LjQxOTgzOCAzMDUuNTU0NDcyLDY0My4zMzcyNDYgQzMwNy42NDg2NjQsNjQ3LjI1MzA0MyAzMTAuNjM4MDk2LDY1MC4yNDI0NzYgMzE0LjU1Mzg5Myw2NTIuMzM2NjY3IEMzMTkuNDcxMzAyLDY1NC45NjY1MjYgMzI0LjI1OTM0Myw2NTUuODkxMTM5IDMzNy45OTU3NjEsNjU1Ljg5MTEzOSBMNTE4LjE3NjA3OCw2NTUuODkxMTM5IEM1MzEuOTEyNDk2LDY1NS44OTExMzkgNTM2LjcwMDUzOCw2NTQuOTY2NTI2IDU0MS42MTc5NDYsNjUyLjMzNjY2NyBDNTQ1LjUzMzc0Myw2NTAuMjQyNDc2IDU0OC41MjMxNzYsNjQ3LjI1MzA0MyA1NTAuNjE3MzY3LDY0My4zMzcyNDYgQzU1My4yNDcyMjYsNjM4LjQxOTgzOCA1NTQuMTcxODM5LDYzMy42MzE3OTYgNTU0LjE3MTgzOSw2MTkuODk1Mzc4IEw1NTQuMTcxODM5LDM4Ny44OTEzNjkgQzU1NC4xNzE4MzksMzc0LjE1NDk1IDU1My4yNDcyMjYsMzY5LjM2NjkwOSA1NTAuNjE3MzY3LDM2NC40NDk1IEM1NDguNTIzMTc2LDM2MC41MzM3MDMgNTQ1LjUzMzc0MywzNTcuNTQ0MjcxIDU0MS42MTc5NDYsMzU1LjQ1MDA4IEM1MzYuNzAwNTM4LDM1Mi44MjAyMjEgNTMxLjkxMjQ5NiwzNTEuODk1NjA3IDUxOC4xNzYwNzgsMzUxLjg5NTYwNyBMMzM3Ljk5NTc2MSwzNTEuODk1NjA3IFoiIGlkPSJSZWN0YW5nbGUiIHN0cm9rZT0iI0ZGRkZGRiIgc3Ryb2tlLXdpZHRoPSIyOCI+PC9wYXRoPgogICAgICAgIDwvZz4KICAgIDwvZz4KPC9zdmc+;spacingBottom=90;fontFamily=IBM Plex Sans;fontSource=fonts%2FIBMPlexSans-Regular.woff;fontSize=14;spacingLeft=55;align=left;" parent="qK7P-8Lu3oddX9ztJ0Ts-21" vertex="1">
          <mxGeometry width="212" height="134" as="geometry" />
        </mxCell>
        <mxCell id="bQxnhAWywP4pUUYXjwK0-36" value="Service Published in&amp;nbsp;&lt;br&gt;IBM Cloud Global Catalog" style="text;html=1;strokeColor=none;fillColor=none;align=center;verticalAlign=middle;whiteSpace=wrap;rounded=0;fontSize=14;fontFamily=IBM Plex Sans;fontSource=fonts%2FIBMPlexSans-Regular.woff;" parent="qK7P-8Lu3oddX9ztJ0Ts-21" vertex="1">
          <mxGeometry x="26" y="59.55555555555566" width="160" height="69.48148148148148" as="geometry" />
        </mxCell>
        <mxCell id="qK7P-8Lu3oddX9ztJ0Ts-22" value="Continuous Integration&#xa;(Internal Service)" style="shape=image;aspect=fixed;image=data:image/svg+xml,PD94bWwgdmVyc2lvbj0iMS4wIiBlbmNvZGluZz0iVVRGLTgiPz4KPHN2ZyB3aWR0aD0iMjEycHgiIGhlaWdodD0iMTM1cHgiIHZpZXdCb3g9IjAgMCAyMTIgMTM1IiB2ZXJzaW9uPSIxLjEiIHhtbG5zPSJodHRwOi8vd3d3LnczLm9yZy8yMDAwL3N2ZyIgeG1sbnM6eGxpbms9Imh0dHA6Ly93d3cudzMub3JnLzE5OTkveGxpbmsiPgogICAgPHRpdGxlPkNvbnRpbnVvdXMgSW50ZWdyYXRpb248L3RpdGxlPgogICAgPGcgaWQ9IlBhZ2UtMSIgc3Ryb2tlPSJub25lIiBzdHJva2Utd2lkdGg9IjEiIGZpbGw9Im5vbmUiIGZpbGwtcnVsZT0iZXZlbm9kZCI+CiAgICAgICAgPGcgaWQ9InYyLTQ4eDQ4IiB0cmFuc2Zvcm09InRyYW5zbGF0ZSgtNjMuMDAwMDAwLCAtMTAzNS4wMDAwMDApIj4KICAgICAgICAgICAgPGcgaWQ9IkNvbnRpbnVvdXMtSW50ZWdyYXRpb24iIHRyYW5zZm9ybT0idHJhbnNsYXRlKDY0LjAwMDAwMCwgMTAzNi45NjY3MDApIj4KICAgICAgICAgICAgICAgIDxnIGlkPSJHcm91cC0xMDgtQ29weSI+CiAgICAgICAgICAgICAgICAgICAgPGcgaWQ9Ik1hZ2VudGEtR3JvdXAtQ29weSIgdHJhbnNmb3JtPSJ0cmFuc2xhdGUoMC4wMDAwMDAsIDAuMDEyMzEzKSI+PC9nPgogICAgICAgICAgICAgICAgICAgIDxwYXRoIGQ9Ik0yMDMuNzQ4ODIxLDEzMS42NDI1NjUgTDYuNjM1NjgzMzYsMTMxLjY0MjU2NSBDMy4xOTc1NjgzMSwxMzEuNjQyNTY1IDAuMzg0NjE1Mzg1LDEyOC45Mzg3MSAwLjM4NDYxNTM4NSwxMjUuNjMzOTUyIEwwLjM4NDYxNTM4NSw2LjAyMDkyNDk4IEMwLjM4NDYxNTM4NSwyLjcxNjE2NjkxIDMuMTk3NTY4MzEsMC4wMTIzMTI2MDUgNi42MzU2ODMzNiwwLjAxMjMxMjYwNSBMMjAzLjc0ODgyMSwwLjAxMjMxMjYwNSBDMjA3LjE4NjkzNiwwLjAxMjMxMjYwNSAyMTAsMi43MTYxNjY5MSAyMTAsNi4wMjA5MjQ5OCBMMjEwLDEyNS42MzM5NTIgQzIxMCwxMjguOTM4NzEgMjA3LjE4NjkzNiwxMzEuNjQyNTY1IDIwMy43NDg4MjEsMTMxLjY0MjU2NSBaIiBpZD0iU3Ryb2tlLTMiIHN0cm9rZT0iI0VENTQ5NiIgZmlsbD0iI0ZGRkZGRiI+PC9wYXRoPgogICAgICAgICAgICAgICAgICAgIDxsaW5lIHgxPSIxLjczMDc2OTIzIiB5MT0iNDcuNTI0OTE3NiIgeDI9IjIwOC42NTM4NDYiIHkyPSI0Ny41MjQ5MTc2IiBpZD0iUGF0aC0yLUNvcHkiIHN0cm9rZT0iI0ZGRDVFOCIgc3Ryb2tlLXdpZHRoPSIyIj48L2xpbmU+CiAgICAgICAgICAgICAgICAgICAgPHBhdGggZD0iTTUwLjY0ODQxNDMsNDcuMzQwMDQzNyBMMC4xMjA4NzIzNDIsNDcuMzQwMDQzNyBDMC4wNTQzNzg1OTYxLDQ3LjM0MDA0MzcgMCw0Ny4yODgzNTQ2IDAsNDcuMjI1MjAyNiBMMCw3LjQ2OTkyMzM4IEMwLDMuMzY4MjI5NDkgMy41MzA1ODg5OCwwLjAxMjMxMjYwNSA3Ljg0NTcwMzY1LDAuMDEyMzEyNjA1IEw1MC43NjkyMzA4LDAuMDEyMzEyNjA1IEw1MC43NjkyMzA4LDQ3LjIyNTIwMjYgQzUwLjc2OTIzMDgsNDcuMjg4MzU0NiA1MC43MTQ4NTIyLDQ3LjM0MDA0MzcgNTAuNjQ4NDE0Myw0Ny4zNDAwNDM3IiBpZD0iRmlsbC01IiBmaWxsPSIjRUQ1NDk2Ij48L3BhdGg+CiAgICAgICAgICAgICAgICA8L2c+CiAgICAgICAgICAgICAgICA8ZyBpZD0iZXhhbS1tb2RlLTIiIHRyYW5zZm9ybT0idHJhbnNsYXRlKDEwLjY0NjU3NiwgMTEuMzcyMDIwKSIgZmlsbD0iI0ZGRkZGRiIgZmlsbC1ydWxlPSJub256ZXJvIj4KICAgICAgICAgICAgICAgICAgICA8ZyBpZD0iZXhhbS1tb2RlIiB0cmFuc2Zvcm09InRyYW5zbGF0ZSgtMC4wMDAwMDAsIC0wLjAwMDAwMCkiPgogICAgICAgICAgICAgICAgICAgICAgICA8cGF0aCBkPSJNMjEuNzA3ODAzNywxOC4xNTI5MjY2IEwyMS43MDc4MDM3LDIwLjc0NjIwMTkgTDYuMDc4MTg1MDUsMjAuNzQ2MjAxOSBMNi4wNzgxODUwNSwxMi44MTk0MjM5IEw5LjE5NTQyNTY2LDE1LjkxNDA2NTcgTDEwLjQxOTc0NTgsMTQuNjk1MjI2MyBMNS4yMDk4NzI5LDkuNTA4Njc1ODUgTDAsMTQuNjk1MjI2MyBMMS4yMjQzMjAxMywxNS45MTQwNjU3IEw0LjM0MTU2MDc1LDEyLjgxOTQyMzkgTDQuMzQxNTYwNzUsMjAuNzQ2MjAxOSBDNC4zNDE1NjA3NSwyMS43MDEwMTk0IDUuMTE5MDczOTMsMjIuNDc1MDUyIDYuMDc4MTg1MDUsMjIuNDc1MDUyIEwyMS43MDc4MDM3LDIyLjQ3NTA1MiBDMjIuNjY2OTE0OSwyMi40NzUwNTIgMjMuNDQ0NDI4LDIxLjcwMTAxOTQgMjMuNDQ0NDI4LDIwLjc0NjIwMTkgTDIzLjQ0NDQyOCwxOC4xNTI5MjY2IEwyMS43MDc4MDM3LDE4LjE1MjkyNjYgWiIgaWQ9IlBhdGgiPjwvcGF0aD4KICAgICAgICAgICAgICAgICAgICAgICAgPHBhdGggZD0iTTIzLjQ0NDQyOCw0LjMyMjEyNTM5IEwyMy40NDQ0MjgsMTIuMjQ4OTAzMyBMMjYuNTYxNjY4Nyw5LjE1NDI2MTU3IEwyNy43ODU5ODg4LDEwLjM3MzEwMDkgTDIyLjU3NjExNTksMTUuNTU5NjUxNCBMMTcuMzY2MjQzLDEwLjM3MzEwMDkgTDE4LjU5MDU2MzEsOS4xNTQyNjE1NyBMMjEuNzA3ODAzNywxMi4yNDg5MDMzIEwyMS43MDc4MDM3LDQuMzIyMTI1MzkgTDExLjI4ODA1NzksNC4zMjIxMjUzOSBMMTEuMjg4MDU3OSwyLjU5MzI3NTIzIEwyMS43MDc4MDM3LDIuNTkzMjc1MjMgQzIyLjY2NjkxNDksMi41OTMyNzUyMyAyMy40NDQ0MjgsMy4zNjczMDc4MSAyMy40NDQ0MjgsNC4zMjIxMjUzOSBaIiBpZD0iUGF0aCI+PC9wYXRoPgogICAgICAgICAgICAgICAgICAgICAgICA8cGF0aCBkPSJNNi45NDY0OTcyLDYuOTE1NDAwNjIgTDMuNDczMjQ4Niw2LjkxNTQwMDYyIEMyLjUxNDEzNzQ4LDYuOTE1NDAwNjIgMS43MzY2MjQzLDYuMTQxMzY4MDQgMS43MzY2MjQzLDUuMTg2NTUwNDYgTDEuNzM2NjI0MywxLjcyODg1MDE1IEMxLjczNjYyNDMsMC43NzQwMzI1NzkgMi41MTQxMzc0OCwwIDMuNDczMjQ4NiwwIEw2Ljk0NjQ5NzIsMCBDNy45MDU2MDgzMSwwIDguNjgzMTIxNDksMC43NzQwMzI1NzkgOC42ODMxMjE0OSwxLjcyODg1MDE1IEw4LjY4MzEyMTQ5LDUuMTg2NTUwNDYgQzguNjgzMTIxNDksNi4xNDEzNjgwNCA3LjkwNTYwODMxLDYuOTE1NDAwNjIgNi45NDY0OTcyLDYuOTE1NDAwNjIgWiBNMy40NzMyNDg2LDEuNzI4ODUwMTUgTDMuNDczMjQ4Niw1LjE4NjU1MDQ2IEw2Ljk0NjQ5NzIsNS4xODY1NTA0NiBMNi45NDY0OTcyLDEuNzI4ODUwMTUgTDMuNDczMjQ4NiwxLjcyODg1MDE1IFoiIGlkPSJTaGFwZSI+PC9wYXRoPgogICAgICAgICAgICAgICAgICAgIDwvZz4KICAgICAgICAgICAgICAgIDwvZz4KICAgICAgICAgICAgPC9nPgogICAgICAgIDwvZz4KICAgIDwvZz4KPC9zdmc+;align=left;fontSize=14;fontFamily=IBM Plex Sans;fontSource=fonts%2FIBMPlexSans-Regular.woff;spacingLeft=54;spacingBottom=92;points=[[0,0.5,0,0,0],[0,0.75,0,0,0],[0.25,1,0,0,0],[0.5,0,0,0,0],[0.5,1,0,0,0],[0.6,0,0,0,0],[0.75,1,0,0,0],[1,0.25,0,0,0],[1,0.5,0,0,0],[1,0.75,0,0,0],[1,1,0,0,0]];" parent="1" vertex="1">
          <mxGeometry x="-7597" y="-6242" width="212" height="135" as="geometry" />
        </mxCell>
        <mxCell id="CTs-Wv3J004sUVuDb8Zz-28" style="edgeStyle=orthogonalEdgeStyle;rounded=0;orthogonalLoop=1;jettySize=auto;html=1;endArrow=classic;endFill=1;startArrow=oval;startFill=1;exitX=0;exitY=0.75;exitDx=0;exitDy=0;entryX=1;entryY=0.75;entryDx=0;entryDy=0;exitPerimeter=0;" parent="1" source="qK7P-8Lu3oddX9ztJ0Ts-22" target="qK7P-8Lu3oddX9ztJ0Ts-15" edge="1">
          <mxGeometry relative="1" as="geometry">
            <mxPoint x="-7403" y="-6185.98" as="sourcePoint" />
            <mxPoint x="-7622" y="-6174.5" as="targetPoint" />
          </mxGeometry>
        </mxCell>
        <mxCell id="qK7P-8Lu3oddX9ztJ0Ts-27" value="Travis CI" style="text;html=1;strokeColor=none;fillColor=none;align=center;verticalAlign=middle;whiteSpace=wrap;rounded=0;fontSize=14;fontFamily=IBM Plex Sans;fontSource=fonts%2FIBMPlexSans-Regular.woff;" parent="1" vertex="1">
          <mxGeometry x="-7545.26" y="-6170" width="108.52" height="42" as="geometry" />
        </mxCell>
        <mxCell id="qK7P-8Lu3oddX9ztJ0Ts-28" value="GitHub Enterprise" style="text;html=1;strokeColor=none;fillColor=none;align=center;verticalAlign=middle;whiteSpace=wrap;rounded=0;fontSize=14;fontFamily=IBM Plex Sans;fontSource=fonts%2FIBMPlexSans-Regular.woff;" parent="1" vertex="1">
          <mxGeometry x="-7858.26" y="-6170" width="108.52" height="42" as="geometry" />
        </mxCell>
        <mxCell id="qK7P-8Lu3oddX9ztJ0Ts-29" value="VPC / ROKS / IKS" style="text;html=1;strokeColor=none;fillColor=none;align=center;verticalAlign=middle;whiteSpace=wrap;rounded=0;fontSize=14;fontFamily=IBM Plex Sans;fontSource=fonts%2FIBMPlexSans-Regular.woff;" parent="1" vertex="1">
          <mxGeometry x="-7309.26" y="-6440" width="108.52" height="42" as="geometry" />
        </mxCell>
        <mxCell id="qK7P-8Lu3oddX9ztJ0Ts-30" value="VPC / ROKS / IKS" style="text;html=1;strokeColor=none;fillColor=none;align=center;verticalAlign=middle;whiteSpace=wrap;rounded=0;fontSize=14;fontFamily=IBM Plex Sans;fontSource=fonts%2FIBMPlexSans-Regular.woff;" parent="1" vertex="1">
          <mxGeometry x="-7059.89" y="-6440" width="108.52" height="42" as="geometry" />
        </mxCell>
        <mxCell id="qK7P-8Lu3oddX9ztJ0Ts-31" value="VPC / ROKS / IKS" style="text;html=1;strokeColor=none;fillColor=none;align=center;verticalAlign=middle;whiteSpace=wrap;rounded=0;fontSize=14;fontFamily=IBM Plex Sans;fontSource=fonts%2FIBMPlexSans-Regular.woff;" parent="1" vertex="1">
          <mxGeometry x="-6806.26" y="-6440" width="108.52" height="42" as="geometry" />
        </mxCell>
        <mxCell id="qK7P-8Lu3oddX9ztJ0Ts-33" value="One Pipeline" style="text;html=1;strokeColor=none;fillColor=none;align=center;verticalAlign=middle;whiteSpace=wrap;rounded=0;fontSize=14;fontFamily=IBM Plex Sans;fontSource=fonts%2FIBMPlexSans-Regular.woff;" parent="1" vertex="1">
          <mxGeometry x="-6918.26" y="-6170" width="108.52" height="42" as="geometry" />
        </mxCell>
        <mxCell id="qK7P-8Lu3oddX9ztJ0Ts-35" value="ICR" style="text;html=1;strokeColor=none;fillColor=none;align=center;verticalAlign=middle;whiteSpace=wrap;rounded=0;fontSize=14;fontFamily=IBM Plex Sans;fontSource=fonts%2FIBMPlexSans-Regular.woff;" parent="1" vertex="1">
          <mxGeometry x="-7413.26" y="-5870" width="108.52" height="42" as="geometry" />
        </mxCell>
        <mxCell id="qK7P-8Lu3oddX9ztJ0Ts-36" value="RedHat Package Mirror" style="text;html=1;strokeColor=none;fillColor=none;align=center;verticalAlign=middle;whiteSpace=wrap;rounded=0;fontSize=14;fontFamily=IBM Plex Sans;fontSource=fonts%2FIBMPlexSans-Regular.woff;" parent="1" vertex="1">
          <mxGeometry x="-7061.01" y="-5870" width="108.52" height="42" as="geometry" />
        </mxCell>
        <mxCell id="lcNu0IvZOWlpeHzhZCPy-20" style="edgeStyle=orthogonalEdgeStyle;rounded=0;orthogonalLoop=1;jettySize=auto;html=1;exitX=0.5;exitY=1;exitDx=0;exitDy=0;entryX=0.5;entryY=0;entryDx=0;entryDy=0;startArrow=oval;startFill=1;endArrow=classic;endFill=1;jumpStyle=arc;" parent="1" source="waI4hvnf7LsabYLLWTcf-2" target="qK7P-8Lu3oddX9ztJ0Ts-13" edge="1">
          <mxGeometry relative="1" as="geometry">
            <mxPoint x="-6972.25" y="-6588" as="sourcePoint" />
            <mxPoint x="-6972.75" y="-6461.02" as="targetPoint" />
          </mxGeometry>
        </mxCell>
        <mxCell id="lcNu0IvZOWlpeHzhZCPy-4" style="edgeStyle=orthogonalEdgeStyle;rounded=0;orthogonalLoop=1;jettySize=auto;html=1;entryX=0.5;entryY=0;entryDx=0;entryDy=0;startArrow=oval;startFill=1;endArrow=classic;endFill=1;jumpStyle=arc;" parent="1" source="bQxnhAWywP4pUUYXjwK0-66" target="qK7P-8Lu3oddX9ztJ0Ts-11" edge="1">
          <mxGeometry relative="1" as="geometry">
            <mxPoint x="-7221.139999999999" y="-6588" as="sourcePoint" />
            <mxPoint x="-7221" y="-6461.02" as="targetPoint" />
          </mxGeometry>
        </mxCell>
        <mxCell id="lcNu0IvZOWlpeHzhZCPy-21" style="edgeStyle=orthogonalEdgeStyle;rounded=0;orthogonalLoop=1;jettySize=auto;html=1;exitX=0.5;exitY=1;exitDx=0;exitDy=0;entryX=0.5;entryY=0;entryDx=0;entryDy=0;startArrow=oval;startFill=1;endArrow=classic;endFill=1;" parent="1" source="bQxnhAWywP4pUUYXjwK0-35" target="qK7P-8Lu3oddX9ztJ0Ts-19" edge="1">
          <mxGeometry relative="1" as="geometry">
            <mxPoint x="-6723" y="-6588" as="sourcePoint" />
            <mxPoint x="-6723" y="-6460" as="targetPoint" />
          </mxGeometry>
        </mxCell>
        <mxCell id="bQxnhAWywP4pUUYXjwK0-25" style="edgeStyle=orthogonalEdgeStyle;rounded=0;orthogonalLoop=1;jettySize=auto;html=1;exitX=0.4;exitY=1;exitDx=0;exitDy=0;fontFamily=IBM Plex Sans;fontSource=fonts%2FIBMPlexSans-Regular.woff;fontSize=14;exitPerimeter=0;startArrow=oval;startFill=1;entryX=0.5;entryY=0;entryDx=0;entryDy=0;" parent="1" source="qK7P-8Lu3oddX9ztJ0Ts-1" target="waI4hvnf7LsabYLLWTcf-20" edge="1">
          <mxGeometry relative="1" as="geometry">
            <mxPoint x="-7194.657" y="-6110" as="sourcePoint" />
            <mxPoint x="-7279" y="-6001" as="targetPoint" />
          </mxGeometry>
        </mxCell>
        <mxCell id="bQxnhAWywP4pUUYXjwK0-26" style="edgeStyle=orthogonalEdgeStyle;rounded=0;orthogonalLoop=1;jettySize=auto;html=1;exitX=0.6;exitY=1;exitDx=0;exitDy=0;fontFamily=IBM Plex Sans;fontSource=fonts%2FIBMPlexSans-Regular.woff;fontSize=14;exitPerimeter=0;startArrow=oval;startFill=1;entryX=0.5;entryY=0;entryDx=0;entryDy=0;" parent="1" source="qK7P-8Lu3oddX9ztJ0Ts-1" target="qK7P-8Lu3oddX9ztJ0Ts-4" edge="1">
          <mxGeometry relative="1" as="geometry">
            <mxPoint x="-7174.803" y="-6110" as="sourcePoint" />
            <mxPoint x="-7096.421052631578" y="-6000" as="targetPoint" />
          </mxGeometry>
        </mxCell>
        <mxCell id="lcNu0IvZOWlpeHzhZCPy-13" style="edgeStyle=orthogonalEdgeStyle;rounded=0;orthogonalLoop=1;jettySize=auto;html=1;exitX=1;exitY=0.5;exitDx=0;exitDy=0;entryX=0;entryY=0.5;entryDx=0;entryDy=0;startArrow=oval;startFill=1;endArrow=classic;endFill=1;exitPerimeter=0;" parent="1" source="qK7P-8Lu3oddX9ztJ0Ts-22" target="qK7P-8Lu3oddX9ztJ0Ts-1" edge="1">
          <mxGeometry relative="1" as="geometry">
            <mxPoint x="-7355" y="-6235.98" as="sourcePoint" />
            <mxPoint x="-7250" y="-6175" as="targetPoint" />
          </mxGeometry>
        </mxCell>
        <mxCell id="bQxnhAWywP4pUUYXjwK0-17" style="edgeStyle=orthogonalEdgeStyle;rounded=0;orthogonalLoop=1;jettySize=auto;html=1;fontFamily=IBM Plex Sans;fontSource=fonts%2FIBMPlexSans-Regular.woff;fontSize=14;exitX=0.55;exitY=1;exitDx=0;exitDy=0;startArrow=oval;startFill=1;exitPerimeter=0;entryX=0.4;entryY=0;entryDx=0;entryDy=0;jumpStyle=arc;entryPerimeter=0;" parent="1" source="bQxnhAWywP4pUUYXjwK0-43" target="waI4hvnf7LsabYLLWTcf-19" edge="1">
          <mxGeometry relative="1" as="geometry">
            <mxPoint x="-7310" y="-6620" as="sourcePoint" />
            <mxPoint x="-6786.5" y="-6200" as="targetPoint" />
            <Array as="points">
              <mxPoint x="-7470" y="-6550" />
              <mxPoint x="-6885" y="-6550" />
            </Array>
          </mxGeometry>
        </mxCell>
        <mxCell id="lcNu0IvZOWlpeHzhZCPy-26" style="edgeStyle=orthogonalEdgeStyle;rounded=0;orthogonalLoop=1;jettySize=auto;html=1;exitX=0.6;exitY=0;exitDx=0;exitDy=0;startArrow=oval;startFill=1;endArrow=classic;endFill=1;exitPerimeter=0;entryX=0.5;entryY=1;entryDx=0;entryDy=0;" parent="1" source="qK7P-8Lu3oddX9ztJ0Ts-22" target="qK7P-8Lu3oddX9ztJ0Ts-13" edge="1">
          <mxGeometry relative="1" as="geometry">
            <mxPoint x="-6972.75" y="-6413.02" as="targetPoint" />
            <Array as="points">
              <mxPoint x="-7470" y="-6310" />
              <mxPoint x="-7007" y="-6310" />
            </Array>
            <mxPoint x="-7364.6" y="-6259.98" as="sourcePoint" />
          </mxGeometry>
        </mxCell>
        <mxCell id="CTs-Wv3J004sUVuDb8Zz-23" style="edgeStyle=orthogonalEdgeStyle;rounded=0;orthogonalLoop=1;jettySize=auto;html=1;entryX=0.45;entryY=1;entryDx=0;entryDy=0;startArrow=oval;startFill=1;entryPerimeter=0;" parent="1" source="qK7P-8Lu3oddX9ztJ0Ts-22" target="bQxnhAWywP4pUUYXjwK0-43" edge="1">
          <mxGeometry relative="1" as="geometry">
            <mxPoint x="-7440" y="-6250" as="sourcePoint" />
            <mxPoint x="-7379" y="-6589.0560000000005" as="targetPoint" />
          </mxGeometry>
        </mxCell>
        <UserObject placeholders="1" label="%Primary-Label%&lt;br&gt;%Secondary-Text%" Icon-Name="undefined" Primary-Label="Data" Secondary-Text="" Badge-Text="" id="H_-RUEQiNK6hWnsl50mb-1">
          <mxCell style="shape=mxgraph.ibm.base;ibmType=nodep;ibmLayout=itemColor;strokeColor=#0f62fe;fillColor=none;fontColor=#878d96;html=1;metaEdit=1;whiteSpace=wrap;fontFamily=IBM Plex Sans;fontSize=12;image=;align=left;verticalAlign=middle;labelPosition=center;verticalLabelPosition=middle;spacing=0;spacingLeft=0;spacingRight=0;spacingTop=0;spacingBottom=0;" parent="1" vertex="1">
            <mxGeometry x="-7920" y="-5780" width="32" height="16" as="geometry" />
          </mxCell>
        </UserObject>
        <UserObject placeholders="1" label="%Primary-Label%&lt;br&gt;%Secondary-Text%" Icon-Name="undefined" Primary-Label="Management" Secondary-Text="" Badge-Text="" id="H_-RUEQiNK6hWnsl50mb-2">
          <mxCell style="shape=mxgraph.ibm.base;ibmType=nodep;ibmLayout=itemColor;strokeColor=#009d9a;fillColor=none;fontColor=#878d96;html=1;metaEdit=1;whiteSpace=wrap;fontFamily=IBM Plex Sans;fontSize=12;image=;align=left;verticalAlign=middle;labelPosition=center;verticalLabelPosition=middle;spacing=0;spacingLeft=0;spacingRight=0;spacingTop=0;spacingBottom=0;" parent="1" vertex="1">
            <mxGeometry x="-7850" y="-5780" width="32" height="16" as="geometry" />
          </mxCell>
        </UserObject>
        <UserObject placeholders="1" label="%Primary-Label%&lt;br&gt;%Secondary-Text%" Icon-Name="undefined" Primary-Label="DevOps" Secondary-Text="" Badge-Text="" id="H_-RUEQiNK6hWnsl50mb-3">
          <mxCell style="shape=mxgraph.ibm.base;ibmType=nodep;ibmLayout=itemColor;strokeColor=#ee5396;fillColor=none;fontColor=#878d96;html=1;metaEdit=1;whiteSpace=wrap;fontFamily=IBM Plex Sans;fontSize=12;image=;align=left;verticalAlign=middle;labelPosition=center;verticalLabelPosition=middle;spacing=0;spacingLeft=0;spacingRight=0;spacingTop=0;spacingBottom=0;" parent="1" vertex="1">
            <mxGeometry x="-7730" y="-5780" width="32" height="16" as="geometry" />
          </mxCell>
        </UserObject>
        <UserObject placeholders="1" label="%Primary-Label%&lt;br&gt;%Secondary-Text%" Icon-Name="undefined" Primary-Label="User" Secondary-Text="" Badge-Text="" id="H_-RUEQiNK6hWnsl50mb-4">
          <mxCell style="shape=mxgraph.ibm.base;ibmType=nodep;ibmLayout=itemColor;strokeColor=#000000;fillColor=none;fontColor=#878d96;html=1;metaEdit=1;whiteSpace=wrap;fontFamily=IBM Plex Sans;fontSize=12;image=;align=left;verticalAlign=middle;labelPosition=center;verticalLabelPosition=middle;spacing=0;spacingLeft=0;spacingRight=0;spacingTop=0;spacingBottom=0;" parent="1" vertex="1">
            <mxGeometry x="-7641" y="-5780" width="32" height="16" as="geometry" />
          </mxCell>
        </UserObject>
      </root>
    </mxGraphModel>
  </diagram>
</mxfile>
